<mxfile host="app.diagrams.net" modified="2021-03-19T08:08:00.110Z" agent="5.0 (Macintosh; Intel Mac OS X 10_14_0) AppleWebKit/537.36 (KHTML, like Gecko) Chrome/89.0.4389.82 Safari/537.36" etag="U9RzlzS986FB0Zyj4vik" version="14.4.3" type="github">
  <diagram id="sxPfANT5nkHc2nFFfb7H" name="Page-1">
    <mxGraphModel dx="7327" dy="1631" grid="1" gridSize="10" guides="1" tooltips="1" connect="1" arrows="1" fold="1" page="1" pageScale="1" pageWidth="4681" pageHeight="3300" math="0" shadow="0">
      <root>
        <mxCell id="0" />
        <mxCell id="1" parent="0" />
        <mxCell id="zWPt4ddoxy-hTkP56XcS-8" value="" style="shape=image;verticalLabelPosition=bottom;labelBackgroundColor=#ffffff;verticalAlign=top;aspect=fixed;imageAspect=0;image=data:image/png,iVBORw0KGgoAAAANSUhEUgAAA2EAAAHwCAYAAAAvqWfwAAAgAElEQVR4AeydB1xc15n2bSebvslmN8l+m2w227LZzZfNFm++rGOLe+6Aei9IqCWO4yhuzL13QNUqY1nFlqwuYG4ZEKBerN57l6wuOpJQ7xVJoEJ5v997hkFIAoRsgYB59PtdY2aGmbnP/c+955n3nOd94QX8gwJQAApAAShQzxV4uY/5DfFO3P9xRZv/FOZJ/HFEf/M7L7xAL9bzt423BwWgABSAAlAACkABKAAFoAAUqP8KvGKM/7qqxf/MpduuMI/9W5dujxCaNV9oVqbQzLtCM88Jt7VBuM2pYW5LUw27vUs3/7tJdOL36//e4R1CASgABaAAFIACUAAKQAEoAAWeiwL04ivG3K+/NiD+uyLW+YXQrZ5hbnO0cPuWCt06qBr+M66YpMKmA2ZQy2ELqe2IFdRxzAbqPH4bdfpkM7UbvZpaf7CYmr8/l1wxieTy+C+rupOtaOZmRfNZQjffFbotXn3P/0PxTty3hHfjl5/LbuJFoQAUgAJQAApAASgABaAAFIACz0MBEWN+r4lm/1LVrObCbb0lNGuK0MwNitt3XjWc4vC+ydR80GxqNWwRtRu5ijp+sokiJ+2i7r6D1NNOp552BvV0MqlX2SZ/59usNOo6da80Z+0/Wktthi+lFkPmUdP+09mclQjNui0084BwW9MV3RqoGFZHVTN/7YpxftIyevJXn4cWeE0oAAWgABSAAlAACkABKAAFoMAzU0B4vV8Of3fqX7k0X5hw+97iKYNCs1YJ3T6gGs4F1eOn5oPmPDBbYzdSlwnbqeuUPdQ9gQ1XJvXyZ1MvJ0sarnKzxYarqk0asyzq5ee/yaIe5mHqFrdPmrhO47ZQ+9FrqTWbs8HzKaJfKqmGP181nBxh2FtEdMJ0RTMHqW67Pa83e7mP+WcveL0vPTNB8ERQAApAASgABaAAFIACUAAKQIFnoUCkd+5XXEbCj1SP/z9Uj91KaHaMiLaSwjTfPqFZ112epMKIvimlLQbPo9YfLJFGqPP4rbJqxSaph5UmTZU0W2XmiStdVRqtqgxYpbcHK2YBY8bGrqeVLs1ZVPwB6jJxJ3UYs4HajFhBLYcuIJ7yGB477Z5qODfD3L5jwm0uEZr1kWqYPdRY89dszgJBIM9COTwHFIACUAAKQAEoAAWgABSAAlDgSQoQvRjusf7FZfjaKprZV9Etv9DtNUK3M4Xh3Izom0LNB8+lVh8slmu1eCohGx2uRvUw08orVDyV8NkZrWoqY5UaswqPD1bOnCxp+qISDlDk5N3UafxW6vDxOmrz4fJyc6Yadomq2yeFbu9QDXuOojujhOH8TtGsX73az//nT5IO90MBKAAFoAAUgAJQAApAASgABapUgAMsmr7n/6FqWP9X1e1OYW5zmOL2fapE+7J4KmF4TNJtns7XYsgCavPhCllN6jxxO3WL2yunErLhkuu2eDqhrG5xZetZVbcqmKgnmaynvT9oysqmQfaw0qm77xBFxe+X5oxNZbtRq6mVdzE1Gzibq2b3XR7/VcVtnhTuhE2K2zdZ6OabLo/1m7D37H94bcCM70ZGzv1SlULjDigABaAAFIACUAAKQAEoAAVCT4FmsSnfFDHmvyqa3VQY/j+4DHt02TS8LEUziyL6pcigjJZDP5WVofZj1lPnCdspKn5fYMpgsKoV/NkQzNbnMGeycle2j1zJ46CQyMm7ZHBIu5ErpTFrPpiDQGaQGpNIimZdFLq1SdVtUzFMI0z3dVJj7JfDNfuvQ48y7DEUgAJQAApAASgABaAAFAg1Bbzel8rM1ve4j5YwzN8pmjkmLNq3SuhOmmo451yxSXeaDZxFrTgGfuQq6jBmI3WZuIO6TQ0EZXBVSFa1yqpE9WI64dOaqWf6+LL1Zlzp82dLQyqrZnH7qOuU3dR53FZqx0EgHywhXg8XHpvE8flXVcM5IjTfThHtS1J0n0cYVkSYJ+7HEX3M78gwkFBjE/sLBaAAFIACUAAKQAEoAAUagwJcbRF9rf9UYvwthea8p2h2vHBbmxS3dUk1/KWyuvX+HGrlXUTtRq2iThwDP3k39fAdehCIURYBX2/Wbz1TA1VbUxoDa90eaBaYgsnhIzxVk3ubdeD4/A+XUYsh82UQiCsmiatmdxS3eUho1iyh2++7PE6kqjuvNou1/wHx+Y3hE4l9gAJQAApAASgABaAAFGgcChC9yMmE3HdLcZuq0BLeE5ovQejWWlV30lwe/0VuXtxMmq3FAbM1loMydshkQtl3i43W08bANwgzVFsm6ws8b/l6s0BSI6+bC64147RIac5kb7P5FNE/lVSPc1vV7aOqYW9XNHOWqvmGKm6rIwejiNeTvoa1Zo3jY4y9gAJQAApAASgABaAAFKinCrSMXvHVME/ij3kqoerxtxNue4DiNmco7oRDimbmu2IS78qgDI6BH76UOny0TlZduHlxD/MQ8VRCjnwP9Nwq67vF65tgqJ6jBhXi82U6YzA+P41kSuOkndRx7EZqO2Il8Xq8ZgNnchBIkcvjv61E+04rWsIKVTPHuHSnt8uT+Jum7qSfvvZ2/HfrKcJ4W1AACkABKAAFoAAUgAJQoP4qIIT3yzIow53QMUw331c1O1kY9jpVd7JVw74V3i+Vmr9f1nNr1Grq9MlmipxUFgNv1cMYeBi9z2f0yitngfVmUQkHA2vNxm+jjh+vp7bl8fmzSOhOqWo4p1Td2aUazgKhW2PDoq03RLT9v0JP+ov6SzveGRSAAlAACkABKAAFoAAUqEMFuLcUV7fCPAn/pcb6uwrN96ESbS5W3GauajiXXTHTCjlpT6YSjlhOHT7eEAjKiN8nY9MDTY7LphM2pBh4mLIvaMq4kpn1oOl0sLfZJ5tlfD4HgTQfxPH5yUWqJ/G6olmnFbdvi6KZ8UI331X62k2E4fwzT2MV3o1frkPk8VJQAApAASgABaAAFIACUKDuFPh19ORvh8ck/ly4fS1cmvVH1fCPEZq1VNXtHEW3SpvK6tYcmUzIDYI7jFlPXSZyDPx+OWAvD3qQUwgbSM8tmK3PZ7aeWreyxtcVglQ4pZGDVjpKY7aKWn+wmFoM5iCQmSSDQHTrktCtLUK3baGZMS7NjBTR8f/bRDf/pu4+FXglKAAFoAAUgAJQAApAASjwBRXwer0vvfqG/885mVCJSfpVmOb7g6IlTApz+9YJ3c5WPX5ucnyPm/y2GrZYxsDzmp/ISbuoW9w+2eS4p4yB5wbH2YFqB9Zt1ZGR+QKBG09tmuritR6Pz+9hHpamvuuUz2R8fvuP1sr1g2zOwvsmc3z+DeFx8hTN/Exx+1IVzewrDF8LV4zzk9YDZnwXKY1f8ASBP4cCUAAKQAEoAAWgABT44gpw1YCb76qav53QbV1odoJwW1uEZl5xeRIpEJQxVzbxbVe2dqvr5N3U3Tz8wFiUVS/KGwHXywF9XZgGvEbth6RUFZ+fLr8E6DJhO7X/eD21Gb6MWg5dQM3KqmZCM4tUzcpQ3NY81XA+UDWnh0tzwlx9zX96xRj/9S/+ScIzQAEoAAWgABSAAlAACkCBCgpwDDjHgTft5/8hN9VVNNMtNJ8jNGuj0O1M1fBfccVMo+bvz6XWXo6BX00dueeWDMrYK9duscEKVrbktEIYrQcmFFrUDy3KQ0DK4vOtQHw+f2nQadxWav/xOuJpsi2GLqCI/tPJZfgLVI+TJ4NANHOu4jaHC83uFh6d+PO2fcxvoOl0hZMI/hcKQAEoAAWgABSAAlCgagWa9R77TaEn/L2iWb9SdbsTN80VmjlbRJvpQjNvuWIS73N1q+WQ+dR6+DLq8PE66jxhm2zCyz2feCphIAaep4IhBr72KzuontWexsGqWVkIiJwWm04cBtOdg0Am7aJOYzfJKbWthi2kZgNnUUTf5GLVcO4o0QlnhWatUjVrvPD4X1ejE5Uw3f638Hen/lXVnz7cAwWgABSAAlAACkABKNDoFfi51/uVMD3l31SP1VnV7SFCt6arur1Z1e0jquHcrthzq/3otdRp3JbytVs9ZQx8YM1WoLKFflu1ZwZgtOqltuWVM47Pz5TrGbtO2UOdJ2yXKZ5tRqwo6202i1TDIaHb54Ru7xGGvUhhc6abb7rc1m+aG85fNvqTDXYQCkABKAAFoAAUgAKhpkBEf/M7XN2Sa7cMp4eimx8rbt9yxW0eVT3+q+GxSXc5Ma7lsIWyKS4HZXSZtEMGGHDCXKDJMU8nDFQEYLpgiuqlKXre0zrLTVlZ5cxOJw4C6c69zaZ+Jr/EaD96Dcn4/PfnyqqZy5OYL9zmeSXat1vRfJaq2W7FY6qq5v/Zb2ITfoApjaF2tsb+QgEoAAWgABSAAg1SAREz83vCbb4mdOdNxWN+rOr2HGHYO1XNPsvfxkcM4J5bC+TaFjmVcPxW4qQ4Hijyt/lssKTJKo+Bh+GA4QADX4yBR+Pzs4in7naL2yt73vH6yXajVlEr76JgbzNSdStf6Haa0J0VQrd8QrdihWa1aer2/fQFohcb5MkJbxoKQAEoAAWgABSAAg1ZAeH1fpmrWy4j4Ufhuv8VRbf7hLl9U4Xb3CR4KqHHf9kVO62o2aDZD4Iyxm6irpPLYuB9h+TaLVnZQgx8/QiFeN5VHLx+HXPwaHx+pqyaRcUfkFWzzuO3UfuPyoJAhiyg8L4pFB6TlK8azknhNg8omjlD0cxBYR6rXbiR+I/cdBopjQ35rI73DgWgABSAAlAACtQ7BdhsKVrSrxTD6sjfiCtuy69o5g5FM/NdMYkyqa354HmyGa2MgR+3RVa3eCpU4Bv8YMBA2TfyNtZvfbHKBipD0K82GHjkc1qhP15U3H7ZuPxBQuOnMggkPHYaKbpVJDRfttCsT4XujHDpTm/F45dTGl/uY36j3p3Q8IagABSAAlAACkABKFBfFODqFsdaN/Mk/liNsZrL6Ue6OU3o1hZVd7Jdcu3WNGo+eC61Gb6UeG1Jp082lwdl8NotOZWwrLIVWLdVGwNFPCcMCBiocwYqrjfzZ8uERlk1m/IZdRm/jTpwb7MRy2UQSNMBM0j1+O+ohnNK1e29wu1bomjmSCXG7h5mJP37q/38fx7pnfuV+nLuw/uAAlAACkABKAAFoECdKNAsNuWbPIWIk9FUw99VNayhwm3NU9xmpqJZBTyVkAdSLYbMpzYfLpXNY7tM3E7d4vfJwRdi4GEC6twEYLpiHU9XfBLjD6pm3ApCNjq3M2SITnffQYqcskv26ms7chW1GraIeGpyRN/kEtVw7inRvvPCba5V3dZk4XH+pLqdcOF2fsFTGuvkBIgXgQJQAApAASgABaBAbSvA6zSEO+EXLs2MVDTrA2FYs4RubVV15xj3E2rafwa1GDyf2nDPrdFrqfO4rRQ5eZdMJuRUQiQSPmkwivthyMDAYwxUrJw5mcTGjOPzu0zYTh3HbKC2I1aQ7G02aA65PH5SdfuCqtv7hGYtC9OticJj/kk1LCVgzBAEUtvXCTw/FIACUAAKQAEo8DkVeG3AjO+6os1/amI4/08Yzu8U3TdOcZurFbfvpOpxboTHTrvXbOBMOfBpN3IldRy7SZotbvrandduseHigdNDMfAYXD42uERFpp5VZMBog2D0IVOWJRnihEaextx16h7qPH4rcS/A1h8speaB+PwSlyfxttCsSyLa3KO4zUShmTFN3E64alj/t4lu/k3L6Mlf/ZynS/wZFIACUAAKQAEoAAWeXoEmAxO/H6Y5YZxK6DLMT1TdWSB0+zOhW+dUj5+aDpwl12a0/XA5dRiznjpP2BaIgfcFY+C5jxBCMhrE4BWmD6av0TPw8NTGQHz+PuoycSd1kvH5q2XKKpszTmkUmsXmLEvVndVCt21FN/upmtXutXetf3nBSy89/RkVfwEFoAAUgAJQAApAgTIFuEnqawPivxvhNv/OFeMLUzXTrbh9poj2bROGnVcWlFHcfNBcavXBEmoXDMqYsru8ybGsbnFQBmLgMZBv9AN5VMQaz5cKj8TnO2Xx+QkHqFvcHvmlkgwC+XA5tRiygCL6pZIrJvGWathnhNtMC4s2Fyiabyinuapa/M/CNfuvkdKISysUgAJQAApAAShQmQIvhnnifqzE+l8Rut1F1Z1+QrenCc3cFYyBl0EZMgaeDddq6jRuC3Wbskc2XeUmx3JhfLC6hUbHMF0wXWCgsTFQ8fwW/H87g6LiuWq2XVb923y4jFoNLYvP75tCqmYVK5qZK9zWImHYo4Vh/0EYVoSISfpX8U7ctyo7GeM2KAAFoAAUgAJQoJEpwNUtvvCHvWf/g6qbrYVm9Rdu33ShWTtVwzniivHf4Ok2zQfPp9bDl1G7jwJBGV0n76aouH3Uw3f4oRj4YCJZ4/kGHNUMHEswAAaekoHy9WaBqj/PAIhK4KbTgSCQDmM2UJsRK6jlsIXUdMAsDgK5qxr+M0K3Dyhu33KhWR+pmv1b1W2/LPSkvxDepK+98ALCQBrZ5Re7AwWgABSAAqGiAPfCEYbzz4phN3HFJHYXuj1CaOZCxW1mqYZ1Jzw2qYSrWy2HLiD+9pbXbvG3uVHx+2XMc3AgJsMynIpruJ5ygNLYvg3H/qDCAwbAwJMYkMaMpzU+iM/vaWUQN5DnL7U6jdtEbUetolbeRdR80ByOz+feZkWKZl5UNHOzqpnxLk/i2y7D3yxcs3/ZcmDi90Pl2oX9hAJQAApAASjQMBQgepHXG6ge33+ohtOjiWaOVDVzrtCdHaruHFcN527TATOpxdBPqQ0HZXy8ViaByepWmeF6OJEwEwOsJw2wcD8YAQNg4PMyUF45Cxg0js/vxlWziTuo49iN1I57m5WZM1dMIrkM/0VVtw8IzV7J5kzo5rth7yW4msUm/CAycu6XGsaFCu8SCkABKAAFoEADViD83eS/UjX/z1Q94VVVd95QNHOScPvWKW7zrOrx3wyPTS5qNnCWbE7KF/JgDHxUwkH5DSxi4FHFC1Y48RMsgIF6wkAFUyYrZ7LpdFl8PgeBjN8m4/PbDF9KLQbPo4i+qaUuT1KhottXFbfvoKL5koXm689TzLlq5jISfiRe5ymN+AcFoAAUgAJQAAo8tQLinbj/I5uFGtZbQrcnCMNepOr2XqHZl1yexEAM/LCFsuloxzEbZRNSbkbKfW94rRZfzB/EwNeTwcbn/eYYf4eqAxgAAyHJQDA+n8/nWdTDSqNucfsoctIu6jRuM7UfvYZaf7A40NusXwo3nS5QdTtb6PZa1bATed2v4rY6Non2/RxVs6e+DOMPoAAUgAJQoLEqEOmd+xWubnFQhku3XUI3daFZjuJO2OvS7ZOqx389vO+0Eu5P0/qDJfLbUE4l7Drls7IY+MNyYCYj4MuaHCMsA4azMVc4uvrSKcpMf6Ih6RGSA3aw35jZD+zbw/H5/EUb9zXj2Q7d4vbKL+M6fLxBTj1vOfRTGZ8f7kkqUA3nvNB82WFu3yJVN4crHjMy2HQaKY2NdYSB/YICUAAKQAGpQGRk5JdcMVN/ourOq8JjdxOexPeFZqcKzfpMaNZNV+w0asZrt4bMJ552wt9wSsM19bNADHwwErniT46Gx2ATGjQABrpbGdTNl078s8fn2IJ/N2xxHr07PYe6W9Ubsd/5M5/69fg52eTx+8PnCho0LAYqaxPC8fn75VozTmhsO2IFtRq2MBAE0i+Vq2bFQreOqJq1XOjOWJdm/ZGDQNiccbATLt1QAApAASgABRqUAi2jJ381oo/5nUAyodVRaPGDheabzWZLNZw8lycxP6JfimzyyamE7TkGfvy28uoWp2fJqYRlDY7llMIGMMhuWAMWDDDr8nhx5Wr40uO05OBl6jfvKLln5ZJWxfbejBx6KzVbPkaf/eBx7pm5lLTtHBWXlNLRi4UUPZONWOXHMcpKp49XnqRN2ddo8MI84r+t6vWCt783M5dGLT9BK9OvUp+UbJgwnHMaBwPBqek8U8KfTbwuuDtXzSoEgbQduYpaehdSs4GzyRWTdE81nHNCtw8rurk6TPdNCIu23lA061cixvxe2z7mN17wel9qUBdlvFkoAAWgABRofAq0jJ7+bRFj/quItYXQ7F7CsD4SurlEcfuOCd26Hx47rZSDMnhaCPeJ4W8jOQErKv6AvBgGBsJl00uCFS5UtxrH4AeD2PLj2M1Mp/FrTlFpKVHOhQLaeuQG7Tj6+Lb96A3Ku1woH3fo9G3i3ys+bldePu05fpP2nLhJk9edllWryswkmzM2evwv92Jhla9X8bm35t6Q743/ZtuRG/K9oyJWucmtTHPc1oC0ksYscN15MH09nbqbhylyCsfnb6Z2o1ZTK2+FtWYef7Fw+64IzdoqdMunemy3qjutIzzOfzXRzb9pfFd37BEUgAJQAArUCwV4QXOz2JRvunTzv1261VvRzY+Fbi1SDWe3ajinVMO532zgzDKzxTHw66nzhLLqVkLAcMkYeLlui6cQYhohBm0NaND2BQ0lm7Bxq09RSSnRuDWnqNWkQ9QpPo26JKRRh7jD1HbKIWo75TC1nnyQ1mZco0OnblGkL51aTw7czvfz437nz6COcWnUKS5NTjWsiiFeD/bGtCxpwvj1mo47IJ+fX6OqjR/z0YqT0gBO236OuJpW1fPj9tBhN9SOdXlfyLJrFQc9dZu6tyw+P9jbbDG1eH8uhcdOI9VwLgvdThe6tVbRbVPRTLcwrAiZ0Ojd+GU0na4XQxi8CSgABaBAQ1CAXmwSnfj9CN3+N9VIVFy6/bbQzamKZm5Q3CanEt6OiE0ubjZotuzj0nbUaur0yWbZfJN7vfAC6Z52eiCdEEEZGMR+QfPSWAaAFU3YlPWnqXN8mqxibcm9TvP2XKSxq09Kc/bJmlN0+todWnb4Cn20MnAbm6gxq07S/L0X6UL+XfJvPfvENVtswv4wLYtKSktpRdoV+mjFCfn8/FxVbfyYpYeuSKP4yeqTxO+5seiP/YBp/NwMlFfNAumM/Dyc0MjT5jmlUcbnf7ROBoHweuaIfqnkik26oxr2DcXtSxOaNUs17EGq4Wsf5nH+q5kn8cevGOO/3hBGA3iPUAAKQAEoUIsKNO3n/yF/ayc08z1FtyYLw1kiDHu/qtuXw2MSqTmbLRkDv5KCMfA8l56nbZR/Y1g+jRAX+s99oYdZadQD/spMWGRCOuVeKKCz1++Ss/Ucpew4Lzf/1nOUtP3B73w735Z5rkBWqWZ/duGJWgVNGK8f46mP/PfB56/qJz9mU851acImrDkFE4bP5BM5w/kuOJWe15txfH46dYvfT5GTd1HncVuo/UdrqLXsbTZXmjOh24VCc3KFZm5QdStF0c0hqsffWbidXwhZNavFiz2eGgpAASgABepeAW5a2Sw25Qdh7qSfhmt2U+G2YsN0c5ri9rHZOuOKScoPj00pbT54rrxgtB+9ljqN20pd2WwlHAg0ObYz5KJmOaXQyZKVLlyAYTrBQM0YqMyEcQrh4dO3aOexfFLG7KeWEw9WuYkx+2n+3kt0534JcToi/2112gdNGM9H5Coa/311z8/38WNGLj8hjd741TBh1emL+2rGfSjqVP7lJIeAcHy+xU2nOT5/30MpjS2HLaSmA2aQK3ZaoWo4l4TbzA3TfMuEbo5QdLs7V81EtP23v46e/u26HzXgFaEAFIACUOCpFeBv04Se8Pdhmi9MaL5equEMVXVrptDs/UKzbof3nUYclNFiyIJyw9V5fMBw8cWiZ9BglVe3sHYrFAcS2OdnO8isyoTtPXGTTl+7S0nbz9P0XReq3KZtP08Z525Twb0SGr7keLXrwfjYyTVhSVkySZHDPfjvy59/5wX5O1fbUnc+uJ0fsyX3hlxHFr/xjKyEIZjj2XKAz1Wo6vl4fH4vO5OiEg5Q5MQd1PHR+Pz+qSR0myP0jwndWaFq1nhhWG8putUyzDD//bW347/71IMD/AEUgAJQAAo8GwWEN+lrrw2Y8V1Vi/9ZYDqDPUzRfJ8KzeTq1kmXJ/FWRP/pgaCMD5dT+4/WU5fyGHiubqUhBh7TjaqtpmDA+OwGjFWZsP0nb1L2+QIa9Okx+mDJ8Sq39z89JpMSC9mELX2yCeN+X0MW5klDtfjAZfpw2XEZWT96xQmauuE0XS8oontFpTR953kateKEvI8fs3D/ZbpRUERTy9atvZHE62AyqozCByPPjhFoGYJaVhmfv5ciJ+2kjmM3UbuRq6jVB4up2aA5HJ9/32X4LwjNzgrTfOuFZk5RNOuPwmP/b7PYhB9w02kO0Xo2oww8CxSAAlAACrwg9KS/CI9J/Hlg7Zb9B6GZnwjNWqa4zeOqbpXI6tagWcTTG7gZpYyBn7STohIOVhhkB+eul30jh3TCCtqE4MUfBrROjz+bMF5nxRH1QYPDUwoPnrpFxy/foUnrTlPCpjNy4yrUhLWnKG5j4He+nePo+bE8HXHkshOPVcK48sVJixz4wVvHuMPS2M3YdYG4aXPbyYeo/dTDcuOkRTZo94tLadauC+X3tZl8iN5MzpaBHh2mHpb9zDLP3aY5ey4GqmJgpk6ZgSkL0fNyeRBI8Fod0KG7mSZ7aXYat4XajV5DrT5YQryEIKJ/Krk8iaWK27ymaOYOVTMTVY/lCdOsdsLw/w+nNL7wwgsvYigFBaAAFIAC1Sjwch/zz4R37rdUzfy10K3XhW6NFZq1VNWdvarhP6N6/EXcTDJotjqOWU9dKsbAP7RuC9MIMYgJ0UFMPTQLkQlpcjogB2WMXXVSGia+Le/yHTpx5Y5MLJy64Yw0aLP3XJQVrIX7L0nzxQaNDdz+k7cov7BIVq0qrgnjKYOchLgq7SrtO3mTuJfYrmP5tP3IDdqcc12uOePfK268Dq3gXjEduVgo+5AF7wv2DeMpjOdu3JPpirfvFpOz9Sxxw2l8pvCZAgPPkYHyyllgvZmMz48LVM04pZh7m7WW5mwehccmk8twrgrdyRSas0FxW36h+2JVzcETRXYAACAASURBVGrexkj+UaR37lfQdLqaARnuggJQoJEq4PW+FK7Zf81zu0W0FSEM5z1u/qi4ze0i2ndF9fjvRPRNLmk+aI5sFtlu1JpADPyUz4hPunLtFhuu4Ak5uI6rHg4+ccF+jhds8FBvTAMbLo6iLyouJZ4SyL9zdYzDNjgyfviy4/RmcpasVBlzjkgT1n/+UfpjcjZ9uPS4nA4YPTOX3p2eQ739lX/B4l1ynLi/l2f2Efm4d2fk0B+Ts+it1Gx6b0YO8e8VN37ut1NzHrrv7dRs+lNKtnwc/x0/pk9KNr05LaveaIlzCs4pYKCMgfKqWcX4/HQZphUVv4+6TNhO7T9e/yA+v/90Co9Juid0+6Zw+7IUzZyratZQXtLgMpz/J/Skv+cpjY105IXdggJQIBQV4IQjV7TZTLgtTdUsn2rYy1XdOqjq9lVXzDSSPbeGLZJzvzuO3SgTlLg5JBuuXk7g5MqGi5OWcPHBAAQMNDwG2HTN3XOR7hXxdMLjxPH0fBy5ATOv8eKpgRzSwWuwYucFTNjghXn0p9Rs2nP8pqxYJe84T7/1Z1ZZkeJ1YGzsuDLG0xN/62TI4I0hC4/J33s7GVTVxuu+ejuZ5Gw5SzN3X6CeDvdCerCBuYbHHI5ZqB+z4BKEQHx+Tyudojg+f9Iu4imNnILcRsbnzyNeP64azj1Vt48K3d6i6vZMoZveMMPqyl8W/3P05K+G4tgN+wwFoEADUeAVY+7Xm+jm34Tp9r8Jj9VGuM0Bwm2mKm7zoNCc866YxFvhfVOImzm2Gc5BGetkk0dpthK4yfFhOSiTEfBocgyziSpWo2KA12utSLtKt+4U04D5R6VZ4imFHDd/o7CIrhYUSfPTbuphClbC+D5e3/XGtKyy/l2lcupi/IYzFGUGjFZVA202Ya/7M+noxUK6eaeYOACETd6+Kja+70DZmrO790tkrD2mH4b6IB77X9Xnq6HeXj57pjw+P11+2RsVf6AsCGRjIAhk2CJqOmAmhccm3VUN/xXhNo8KzbdKuH1jFd3qLdeaxTg/4fXqDWSIhrcJBaBAY1FArt16x/lnoduCT0gu3faquj1b6Gy4zMLwfskyBr7lkAXym6Z2H62lTjIGfq9s5hg4EVaIrEVIRqMacDfUCzTed+0NOtlMbcm9Tpdu3qc+KVlyTRgnIl6+dZ8Onr4l13lxE2aOiV+dflVOR2QT1s2XLqci9rIzaNGByzLYg6tmvK6sOpPEJowDOTh58dbdYjmlkB/P1bLKNq6g8bTDM9fvUtb52zIRETzUHg/QFtrWLwYejEeC4xOOz+8yaYcM+uLAr1bDFlHz9+dS00DVjIRmHRe6vUrozkTVcN5xGU5bNdr/H6+9PQPx+Y1lsIv9gALPU4G2XvMbTaInf79JtO/nwp0QFWb4PlQ0c7HQrcMclOGKSbrNJ6SWwz6lNjKVcD11mbiduk3dI/t/IAYeF9r6daHF8XgexyM4rS/j7G3KOFcgDZi5+aycYmhvOVs2RTCTBi04Rhuzr0sDxuZMn32k3Gjxc/B7n7s3ENrx2fGbcophVftT0YTl3ymm3ydmUqe4B+mJwRTF4M+OcWnyMdyzLP3sbfmeqnpu3I7PERgIAQaCa8792dSLK2d2WdUsbl9gSmNZEAjH57M5C4+ZVqx6/JdVw8kJc5ubFN2MF4bvLeE2X3u1n/+HLaOnf5v7mD7PMR1eGwpAgXqqQOu3478r3M4vODlI1e0+QjcnCM1aIzTzNDdNDO+bTM0HzaZWwRj4sRtl+b57xRj48kWyWL+Fi3QIXKQxZbJGFVyuMnnmHJFVrw1Z14jXdnFyIcfEc3WK14F1ik+T6724hxdPHRyy6BhVTEDkzxNXsF5PzJR/m7LjvFyzVdXnrKIJ435gHFXv33pObonbzpFv01niKHxnyzni352t5+RjrhcWwYSB6xpxXRV7uL0xn/sDY5sHa9QD69R7WIfll8/B+HxOaGwxeJ6smrliEklo5m2hmZ+puj1N1Z1+itvqyEEgYZ7EH6OvWT0dFONtQYFnrwC9yLGsXC53ua3fCN15U9HMSUKzVgndOqAazjmXJ7GYgzJaDltEbUeuoo5jAkEZXafsoaDh4m+F5NotGZSBsAxcdBvzRRf79kX55lCOUctP0P3iEmmueBoiGy+easjR8ltzb9CCfZfo90lZsnny1dv3aU3GVZlS2MMKBHjISpiTQd4lebKXV7C6VtV7C5qwrPMFdPrqHWm4OOp+yvpA3D3H4vO/T/ddoolrT9OEtafJ2nyWLuTfo21HbhBPf6zquXE7tAEDYOAxBipWzpxMuc69W7BqVtbbrPXwpdR88Hzi9fGqx7mmGnaO0K2tim4lK7rZT/XYrVy81syb9DWYs2c/AsYzQoE6U0B4vV9u+p7/h0K3/jPMbbcSuq0LzXIUt283NzV0efx3I/qmlHIZnZsecn+NzuO2EJstDskIDn7KF7IinRCDMgxMwcDnZGBNxjU6fOaWXGvFBml1xlVZyWIzxobozv1iGrHsuKx+rcu8Jg3SqvSrcj0YD3ZGLDshpyfO2H2Bci8U0AdLuIpW/UCQkxSHLs6joYvypMFi48YVt/ZTDtG2I9dlIuP7nx4jnorIYSAcZ/+2jMCv/nkfG3x9Tk3wPNAZDDRiBspnBj2Iz+eERl6mIVMaJ2ynDh9voDYjllPLofOp6YAZ5IpNLFI1q0Bx+3IVzfpU6PYIYVhRiu5/xRVt/tOr/fx/XmeDSLwQFIACNVPA6/W+xGVtYTgtFMM0FN20VcNarep2utDt6+F9p8k5y628i6ndqFXU6ZNNgRj4uL3U3TwcqGrJREJMI8RFsRFfFDFYrnMTycanT3K2nIrI/cHaTTlMCRvPSOMVnIrIDZs5xfB3iRlyeqI+O1cmGmaeK5Dvl+Pjlx68TB+vOCFNGleqCu+XUHBKIpu6Rz+3fBtPZ4yde4ROX70rTd3ajKv0+6RM6hKfJhs0c8CHd3EeRfrSiRtFcwNnbhD99vRsmd5YXfDHo6+H3x8/BtAEmoCBqhgITmssi8+3y+LzJ++mzuO2UoeP1lGbD5dRiyELKGLADBK6fV/oznFVt7cJDkEzrA+FbvXkL9mb9R77zZqNFPEoKAAFvpACbfuY33AZyT8Ke8/8d9Ww2ytucwg3G1Tcvgyh25fCPYkFEf04Bn6B/AB3+Hg9dZ6wnbgkLpscm2mBQQ0bLsTAPzZwwwWjqgsGbgcbn4+BLgnpNG/vJWlwetjpsgnyqat3KfdioTQ6XAljE3bsUqE0SGzaupvpMiUxafs5WZHnihavExuz8qQ0cf3mHZWJh/eKS4krWY+uHWPzxNv4Nacov7CIrhcUyR5l3KiZe4Hx9MgdR2/ISljQhLFp4+bQh8/cpmsFRbQq7SrFzA0Eg/B7wvGHBmAADNQmA+Wzjni5B8884iRX87AMOYucvIs6frJJxue39C6S6dPhsdPuq4b/uqL5ToVpvnVCMycobvv3Itr+39eMxH98xXD+8gWiF7/QoBN/DAVCVYFfxqZ806Wb/y0MJ0rICHgrRWjOBqFZeUK3iiL6p8qFn22GL5NNB3lBKDch5DI3nygCH+hgZQvrtmrz5InnxsUZDDzOABsh96xcaaBi5hyh1xOz5JRELkttybleHspx/ModOn65UAZzdDUDDZe5rxhvHOrB2p67cVeuE+OqGBu7jdmBKYsflk1h5MewWeLHa7NyaUP2dbp2+z4tPXRFvgc2anwfv6fO8YdluEewEhY0cXwfx9qz+eNK2+27xbT00GV6c1q2DAXBMX78GEMTaAIGapuBsnFc2fTGnk6m/FKdU6i7jN8WiNAfuYJaDltITQfOJJcnkStnF4Rm7xW6s1DRrPHC8L+luP2q662EH4XqmBr7DQUqU+BF8U7ct8I1+6+5rMzl5TDNHK1ovuWKZmXKoIyYpEJuGthy6ELiXhUdx2x4MJWQmxxb6dTL4coWf3vCc49huHBRqO2LAp4fjD2ZAa44cT8v3thQcdXq4s17Mpqeq1lB08Nx8/zvyIVC2deLe3vxlnO+QCYVZp0rkPdzU2eeXshminuI7TqWT+9Ozyk3SO/NzKXk7ecp8+xt2ph1nQYuOCbXjfH7iJ6ZQ4v2X6aETWekSePnvHO/hAYvfLiSxkaOpyd+vPKENGH8wjxVkaPsccyffMyhETQCA3XAQMUQEBmfn1HWdHofRU7eTZ1kfP4a4pTG5oPnctPpEpfHf1XV7WNC820TbtMWhqWJWFuIaPtvuek093+tbJCK26BAo1GAe26p0b7/UHSrpWpY76i6NVno1lpFs84K3SGeStj8/TnUysvJhCuoYzAG3newbADw4BsR/jZEbpWsh8BJsA5OgtAdg1IwUCMGuj8ynU9OOSy7jY0Yx9dvyL5G24/eqHLbnHudxqw6Wf56/Bxyq3AMFh+8TLN2XyBeUxZlBdaX8TRDfhxPaeQUxM+O51NJaak0ddy3jPuHcfR9xXMm/400kKtP0vn8ezLOvnMcTFhFjfD/uMaAgfrGQGBMKL+Il1/GB+Pz06jr1D3UadxWaj96DbUevoRaDJlPzTgIJCaJFLdZIHRzj9DMVGHYAxSPExnmsX7DKY1IaGw09iN0doRDMjheVMSY31Oi45sIt+8txe2LUzRrvao7aarhXHB5/CUcA89mi4MyOo7dRJETd1K3qXupe5nhejgGvr592PF+cAECA2Dg2TDAJogbKT9p40j76jTn9V5ccXvU9AX/hqcd8nqzpQevyEobmz82gcH7H/3JFTeeTtknJVsauUfvx+/P5vhDR+gIBmqZgYqVMydLJmBHxXPVbJcMAmn/0VpqPZyDQOZTRL9Ucnn8+arhHBG6vUPRrJlKtDlIMXxtXX3Nf2oWm/JNVM1Cx9PU6z1lELmUq7rtl12G01boTqyiWynCbe4VbvOG6km8L4MyBs+TZeH2o9fKbyNkzy3EwFc5+MEJuZZPyBWqB9AaWjcWBrji9aR9CT6GK2PVGbDg8/BjqjJ1wcfg55N1h0bQCAzUJwaCVbMK8fl2OvWwOD7/AHWZuDOw1kzG539KzQbMpPDYacWqYd9RNDNPcZtLhGaPFrq/p3D7Xwtz+37aMnr6t+v1gB1vrmErwGXZcCP+H4VmtRGa1V91m4lCs9cJ3c5UDftGRN9kGZTBc3DbjVojk2y6TNopkwm575ZMI0QM/BMHSThR16cTNd4LeAQDYAAMgAEwEDoMZJYFuwWyBni/oxIOUNcpu6kzB4F8vJ7afLicWgxdQJxXoBp2kWo4J4Rm71R1e0GYZn2k6FZv1R3/snhn7rca9sgf777OFeBmeBFu8+9Uj/8/1JikTsJje1XDWaAa/uzwmKSrEf1S7jQbOCswlXDkKur4yWZZ0uUI+J52ICSjd2IO9U46Qr2Tcql3Im851Dsxm3r7sUEDMAAGwAAYAANgAAyAgQbAgBy/8pg2l37L49rEXBkEx+aMK2e8jKbzhG1lvc2Wy2JE0/4zisJjk/NdHv9ZYdgbheFMUXTzbVV3Xn3tXetfeLkOL92p8wE+XrB+KcDlU+6poGr2b1XdGaUa9hxhODtU3T4dCMpIpfC+KRQem8ylWDlXtvn7cwPBGSNWUNuRKx9s/Ds2aAAGwAAYAANgAAyAATAQCgxUHAePXEmthy+VvWq5SsbjZrn1TaYIHkv3TSHVcK67DPuwGuNfpnrsqcJwNJfhbyb0hL9/4QX0NatfLqmW3g03PVY16x3V41+pGvZO1XAyVN056zL8F1XDPqcazinV4+SphnPssU23jymaeUzRfMcUNzZoAAbAABgAA2AADIABMBDiDPC4mMfHunmM4/AfGz8HxtQnVMN/hkPq5KbbR1WPs9flSdygGo7F68tqaeiPp61XCni9L5WVQ9FRvF4dGLwZKAAFoAAUgAJQAApAgZBRgOhFjMlD5mhjR6EAFIACUAAKQAEoAAWgABSAAlAACkABKAAFoAAUgAJQAApAASgABaAAFIACUAAKQAEoAAWgABSAAlAACkCBEFIgzJ3002b9U3/j8iRigwZgAAyAATAABsAAGAADYAAMBBjon/qb8Hen/lUIWaO62VXxetLXXIazgftyBWLiOSoeGzQAA2AADIABMAAGwAAYAAOhzkDTATNIjUnsVzfOJIRehZsmK7p1st3oNdQtbp9sCseN4bBBAzAABsAAGAADYAAMgAEwELoMdJ26h1p5F5PQrUUhZI/qZlfDDbuJaiSWRk7eTT39WdTTycQGDcAAGAADYAAMgAEwAAbAQIgz0MufTR3GbCBFM89E9DG/UzfuJEReRXVbA5u/P4e6JxwMfNDsDOqJDRqAATAABsAAGAADYAAMgIGQZqCXP4u6TNpJ4R7/XWFYESFij+pmNxW3b2Wb4cuop50e0pDBeMJ8gwEwAAbAABgAA2AADICBBwz0cjIpKuEgNR0wk8Lc9rC6cSch8CpNoid/X2jm+Y5jNhKXGwHdA+igBbQAA2AADIABMAAGwAAYCHUG2Ii19i4hRbOXe73el0LAItX+LgrNahPuSbwbOWkXcbkx1CHD/uNECwbAQENloIedQZEJadTdqvoYdrfSKTKhdmY98Gv3qOa1G6queN9V8wRtoA0YCA0GejlZ1OHjdaQadk7YO4k/rn2HEgKvEKbZo5sOnEXdfYeop50JE4Z5z2AADICBBshADyud/jAti/xbz9G7M3IqNUNswPTZuRS/8Qz9zp9Z6WM+74Cql51B9taz9KeUbIoya8fkfd73hr8LjUEijjOOMxioRQacTOo6eRe5PIn3VMNSQsAi1e4uRkbO/ZLQrVWtP1hK7HABby3C2wAHdeABPICBhsNAV186vf/pMbpzv4TO3bhLgxceI76t4jHk30cuP05FJaW0+MDlZ2aWIn3p9NGKk1RUXErZ5wuk0WPDV/G18f8NhyUcKxwrMAAGKmOACzbNB80mYVha7TqUEHh2V4zzE2E4uR0+Xk8817MywXEbPohgAAyAgfrPQFdfGk3dcJr4X875AnorNZseNUJswkYsOy4fM+jTY4/dz9MYH/2bJx17nn7Yy8mgPcfz5fNeuX2fhi7Oo+6ohuGaii8fwQAYaFQM8IyL1sOXkNDs2cK78cshYJVqbxcVt19VPf7irtwfDCasUX1QnjRwwv31f1CNY4RjVFMGeC1YbyeDDp66RSWlpTR0UR61n5pGXeLTqHOFrd2Uw9IgsVviKYsd4w6X398pLo3YmH249Dh1eYo1Y7wOLG7DGWnAjlwsoJ1Hb9DoFSceq8LVdF/wOHAPBsAAGKifDHDBhgs3its8/drb8d+tPYcSAs+sanZf2R9MrgernwccH0QcFzAABsBA9QxwBUuffYTuFZfSgVM36e3pOTR1/RnybTpL9pYHG/++7NAVaZjm7LlI1uYH9/Faspt3iul+cSlNWHuKomoQsNHNTKf+84/StYIiunb7Pg1ZdExuuRcKZMWt2yPTIXEcqz+O0Af6gAEwUJ8Z4AC/yIk7SDX8peGG3SQErFLt7GLk3LlfUnVrcevhS6kn5u6jCoYpA2AADDRYBnhN1tKDAXM1ZuVJOT1wdcZV2nbkuqxScRAHb1PWn6ZFBy5LEzZj1wWK23Ba3s73xW08I83X+DWnaPjS408M7WAD9sdpWXTkYiHdLSqhsatPyupXpC+NJq8/TRfz7wWMmJn+1FMc6/MgBO8Ng2QwAAZClgHuFxZ/QPYLE5o1uHYcSgg86yuG85eK27rQYcwGrAfD4LPBDj5D9kQIZsFsGQO89qpPSjZdyL9HaWdu02/9meWBGzxVkKcc8s8uCWnUfuphGrY4T5qw92bmUqf4w/J2vo+nI3aYGnjskypYnH74x+Qs2nUsXwaB8HREXm/G0yL5M8l/zwbv6u37NHfPRXo9MVO+Dj6vGLyCATAABho6A5nUyruIFM1c8cILL7wYApbp2e+iK9rfzOXxl0RO2olkRAxoMaAFA2CggTLAa74mrQsEcqxMuxIwYFaGrGQlbjsnTRdPV+zN32CaGTRqeSCYI3buEXnM+XYO1pi35yJNXndaPqa6QRJXwN6ZnkP7T96kgnvFNG7NKbmujI1ZcGMTxuaQ309xSakMCknYeEauWws+hgNA0FOsoQ/G8P6r+6zgPvDRGBno5c+m9h+tJdVwjjTRzb959g4lBJ5R1c3hTQfOpKiEA6iENdDBV2P8cGOfcNECAzVngE0MV5kyzt2W1a3bd4tp7KqTshLFZif3QiFdLyiifSdv0t4TN2nP8ZuUc6FAPjb97G15G9/OgR4cL8+VK17jVVUljJs8u2fmUtrZW1RSUkrLDl2m9xfm0QdLjsspjDyNkbdhi/JkBP69ohIZWX+jsEi+5vHLd+jTfZcodu5Rem9GDv3WySSeSoljXvNjDq2gFRgAA8+TAQ7n4HVhrpik20JPECFgmZ7tLnq93peE5lvV2ruYeqFBMwYAMKFgAAw0SAbYaI1bc1JWpNjo8DosDujgapU0YRcL6MTlO/TH5Gx5G6cecvoh/ws+jqcRsrG6dPM+7TtxU67ferRCxZU0NmZssE5evSOrYNO2n6OjFwtlGuK6zGu0IevhbX3WNVqbeY0W7r8k14ZtyrlOpaXypaXhO3v9Hm3MuiaTHJ/ngAKvjQEtGAADYOBpGMgk7hfWbOBsUnT77WfrUELg2cI8iT9Wdftoh4/XYSoiBp8NcvCJE+bTnDDx2MbICxujP6Zk0amrd2jxwcu069gNunDjHkXPzC2fFsiVL64+8Zoxnv5XsU+YZ84ReRubNW1WLl2+eZ92HMuX68eCerEZ440NGxstbsRsbTkrpxXyOjNp7nzpct1ZxzhefxbYOAqf15/xOjOeLhlYLxboUcbviRMY+X19suqUfO7g6+EnPqtgAAyAgYbBAAf7qYaTEumd+5UQsE7PbhdVty/cFZNUGDl5N6YiwoTBhIEBMNAAGeDmzFxlyjx3Wx6/3Xn5shJW0YTtPpb/VCZs5yMmrLc/k1J2nKfdeTcpded5ejM5mzonpBEbQA7hCK7r4mAPNnM8eGLTNm71SRmTzyaM72Mjxj957dpHK0/QxytPEJtAnor4tM2hMUBrGAM0HCccJzDQmBnIpA5j1pOiWbnhmv3Xz86hhMAzqbrlaT5oDvUwD2Pw1QAHXzixNeYTG/YNfD+ZATY8/eYfpUOnb9GABUelyfns+M3HTNhnefmUd+kO/T4pizrHH5bph96ydEQ2a3xbp7jDMmiDpyM+asJ4vdnI5SfoD9OyiKtb3EuMzRgnI76Vmk1/Ss2WlbfNOddp+JLj0ojxVEg2hjxtkZ9vV16+TFHcc+KmjLIvvFdCI5adQFoirj0Yf4ABMNBAGZDrwibtJJcnsUTVnVdDwDo9m11sGT35q6phz2kzfBn6gzVQ+DFIffIgFRpBo8bMAKcZrky7SiPLzAwHZlRmwnj6IJsrc/NZmrjuFHEPsAX7LsmFWck7zsvbJq49RUnbztHNwmLacfSR6Yh2hpxKyJUvrmatSrtKJSUkzR/H03P1jYM9+B8HfbDZ46mHmecK6MKNu9Iosll7KzWHYuYcpZNX7tDpa3fpd4mZ5XH2jfk4Yd9wHgIDYKBRMiD7he2nZgNnknCbA56NQwmBZ+GyoaJZpzuO2YipiDBh+BYKDICBBshAbyfjoRTDqkwYpyNy/7Dk7efJv+0c2VvOSfPGpmne3ovyNq5ucS+vgnsl0lDxtMHKBg18O//NrTvFcioh9xTjqYlsCPmfb9MZadQClbACuVaNK2VRVjpFWRlyKmPepUI6dqkQUxAbIHOVMYHbYDDAQAgzYGVQq2ELSXH7VoaAfXo2uyh0W7g8foqctAuhHLgQVjrYwkk1hE+q+Ew0mM8Em53gZ7UyE8ZrtqauPy2rYO5ZuTIog42Ttfks3SsqlWEd3MiZwzS4wfO0HedpwPyjcr1X8Hkr/mQTNn3nBcovLJKP47REfg2eqsj/4jY+bsK4CsZrvmSISHI2wYTh3FKRKfw/eAADDZcB7hfWbtRqXhd2sjn6hdXMpCma9UGzgbMoKv4A9XQyyy/i+CA03A8Cjh2OHRgIbQYqM2HMBCcYGrOP0Nbc6/Tu9BxphrYduSH7gXHDZTZHQXZ4nVnF34O3B3+yCZuxq2oTFg8TVq5lUDP8fMAXtIAWYKBxMcDrwrpM2EHhsYkFYbqvU81cSGg/6kXFba5t5V2MiwW+8QcDYAAMNBIGqjJhPOjhNVpLD12mLTnX6Xf+TMq7fIcOn7lFbyRlySTDmg6MYMIa1wCqpscdj8NxBwNgoHIGgv3CZpHitkaFtr2qwd67YpyfqLp1sv3oNcRlxMpFBWzQBQyAATDQkBiozoRxZPzvkzJlj6+N2deI0wlnf3ZRNl/m6YQ13c+KJqz//KOBwA47g94om45YVSWM14RxhY3j7TEdseZ61/S44HHQFAyAgefGgJNJrT9YSkJ3lr3cx/yzGliR0H1ImGF1DfckFXSZuAOhHE8x+HhucOM91niAiGOEi1AoM1CdCWNduBo2ZFEe3Ssqkeu3Ri0/QR3iAv2+aqpb0ITdvFNEI5Ydpz7J2bIXmDHniHzOykzYuzNypAHk8I63U7NlMuLRiwjmqKnmeBzOa2AADNRrBhzuF7aBVN0+JvrZfxu6DqsGex6mmZ80GziHevgOUU8b68HqNdgwYDBgYAAM1JCBJ5mwLvFpNG71KSq4V0w3CovoyMVCGrXihJyeyNHz1a0FC54n2YRN33We7heX0uHTt8p7gO05Hoiof9SEcRz9sEV5tCHrGh08fYt2HbtBpaWlsm8YGjRjYBnkCj/BAhhowAw4mdR10i5SPX70C6vOh4nXk74mNHuN7A8GA4bBXQ0Hdzg5NuCTI45xyHzOKzNhPNWQwzY4RXHa9vN0+26xXBvWb16gyXNJKVHG2dsyvv69mbnUw0qXa8SCf/PoVEU2a0sOXpZR9p45R6j9Fq6lKwAAIABJREFUlMMykp7j8kuJaPL608Rm76GI+pRs0mfnylTFO/dL6Pa9YtmoGSYM5xVcW8AAGGgMDGRS94QD1HzQHJ6SGFudDwnp+8I8iT8Wun2K+4MhFbExgI99wAkcDICBAAOPmjCuWkX50mnggmO0Oec6nbp2l5K2n6MoMzA1kZslc9Lhxfx7cirhrbvFlHHuNi0/fEU2dB66KE9Gz/N6sqDGbMLWZFylm3eKKWbuEfn8fB83aJ687jT19mdKE1fRhHFEfaQvTZrBSWtPEz9vxWj94HPj5wOdoQW0AANgoCEx0MNKIy7wKG5zSUgbrep23qXbLpcnkbpO3g0ThgpB+cCqIX3Q8V5xYQIDlTPAJmzviZuyMfNbqTk0YP4x2pB9nQ6eukXJ28/Rn1KyHzI/XOWK9KXLXmH2lrOygbJ0Y0TyORK3nSM2UBVNGFfI2ESNXH6CuPpV8VjwfcHf2WRlny+gs9fvyucIVr34McH/Dz4WPx/WEXpADzAABhoaA738WdRx7EbuF3auueH8ZXVeJGTvUzV7UPP351BUAvqDNTTA8X5xUgYDYKA6Btj4pO68IAMzuGkyr8Mav/aUDM7gXmHdK5ikis/DpoirZhyaMWDBMTndcPjS49SpitAODvjg56v4HI/+P7/W+qxrNGX9aepZoZL26OPwO5gGA2AADDR8BtiERU7aRS5P4t0ww2wWskaruh1X3L6VbT5cTj2tB99YAv6GDz+OIY4hGAADzABXrdhU9Sqr9D9N5YmDOYKPr0lIx5OYC76XJz0O94NdMAAGwEDDZoCbNvO6sKYDZpJwm97qvEhI3veb2IQfCM08z+VC9Adr2LDjZIXjBwbAABgAA2AADIABMFBfGGAj1vqDJTwlcbnX630pJM1WVTutGE5bV0zi3cjJu4jLhvXloOF94AQCBsAAGAADYAAMgAEwAAYaLgO9nCzqMGY9qYadw0GAVfmRkLw9TLNHNxs4i7qjPxgMKEJJwAAYAANgAAyAATAABsDAs2LAySQu9Lg8ifeaGIlKSJqtynY6MnLulxTdWt16+FJip4pvGhruNw04djh2YAAMgAEwAAbAABgAA/WNAS70NON+YR6/XpkfCcnbwo3EfxSGnddx7KbAVEQnMxBRj5/QAQyAATAABsAAGAADYAAMgIEvyoCdQW0+XEaqbi94uY/5ZyFpuh7daUW3WjbtP4NaDJlPLYd+ig0agAEwAAbAABgAA2AADIABMPBMGWj+/lwSun2r2VsJP3jUj4Tk76phKeH9km3VcCzVsLBBAzAABsAAGAADYAAMgAEwAAaeMQPsNWwzzBOHcI6QdJ3YaSgABaAAFIACUAAKQAEoAAWgABSAAlAACkABKAAFoAAUgAJQAApAASgABaAAFIACUAAKQAEoAAWgABSAAlAACkABKAAFoAAUgAJQAApAASgABaDAc1ZAjUlsLjyOLXQbGzQAA2AADIABMAAGwAAYAANgoPEw4HFs1WO3es6W6/GXVzR7RovBiJhHxD5aDIABMAAGwAAYAANgAAyAgcbFQPPB8zjeft7jLug53vJqP/+fu3T7s7YjVlJvfzaayX3RZnL4ezAEBsAAGAADYAAMgAEwAAbqBQPsb9qNXEWqbh2M6G9+5znarodfWuhJ/6l6nMudxm2hXgyLnYENGoABMAAGwAAYAANgAAyAATDQ4Blgf9N5/DZSPc41YaT8z8NO6Dn+JjS7W0TfVIqK3x9wq4CtwcMGI40vEsAAGAADYAAMgAEwAAbAADOQSVHxByii/3RSdKf3c7RdD17a6/W+5DKciTzvtYeVBvMBAwoGwAAYAANgAAyAATAABsBA42LASqdWwxaSajhxkZFzv/TADT2n/2sWm/JNoVmftRu1qnEJjQ8OjicYAANgAAyAATAABsAAGAADZQy0H72GhGbvbxk9/dvPyXo9eFnxnvmvqmbf5XmSvfxZOEj4oIIBMAAGwAAYAANgAAyAATDQqBjo5WRRlwnbOSHxfphh/vsDN/Sc/k/o1uvh/VKo65Q9xG8O80YxdxgMgAEwAAbAABgAA2AADICBxsQAh3N0m7qXIvpNJ1W3+zwn6/XgZcPcltNi8DzqYR5GKAe+8YAJBwNgAAw8Vwa6W+nUzUynHhYGP41p8IN9Ac9gAAw8dwacTOphplGLIfNJcZupD9zQc/i/SGPu14XbPNh2xArqxf3BMPiABmAADIABMFAFA1196RRlptdYnx52BkUmpBEbq5pcX7r60mjyutO0+MBlip6V+7lapnS3MqSJq8nr4TEYFIIBMAAGQosB9jttR64gRTMzxDtx33oO9ivwkuGa/UvVcC51+mQz1oNVMejAhzO0Ppw43jjeYKByBtjcDFucR+/NyKGOcWnUJb76rXN8wHx9uPQ49UnJrpEx6pKQRjN2nSf+l3O+gN6Znv2QgWNTV93GZu+NpCzyzDnyVGYRx7zyYw5doAsYAAONjQHOv+C+yNwvLMzj/NdzM2Fhmq9bRL+Ukm5x+2R+fmMTGvuDkwcYAANg4NkwwAYp61wBnb1+l3bl5T95O5ZP+0/epLtFJXTkYiGNWHb8iUaMX2P6zgvShM3YdUEaKTZdfAx/68+kPyZn059Ssumt1Mc3vv3dGTm0Jfc63Sgsok9WnyI2jjj+0AAMgAEwAAYeMMD9wvbzurDSMN3q+XxMmNf7kmqYY1oN/RQXKVTBwAAYAANgoFoG2CDlXiigUiIau+qkNETvTM+hqjY2RUMX5dGd+yV0s7CIRi0/8VQmLG7jWeoUH+hdyVMgjdlHKP3sbdp38ibtzsuvdPvseD6lnblNGedu08bs69Ks1XQq5IMLNAYr0AIMgAEw0NgZaDVsEQnNnMD9kuvciL02IP67Qre2tBu1GlUwDL6qHXw19g8i9g8XGzDwZAbYhOVcKKD7xaU0ZFEeRfrSq50ayOEa+uwjVHi/hPaduFWj6YEVK2EJm84ST2kMBnSwEftTKk9PzCB+XLVbfJpcixasouH4Pvn4QiNoBAbAQMgw4GRS+9FrSdGs7U2iE79f5yZM7ef/mdDs27I/mJOJQTiMGBgAA2AADFTJQEUTxhUuDumo7oIdrF6xCTtw8la1jw0+z6MmjNee8TREvp8NFVe1YKwwUAzygp9gAQyAgc/FgJMp+4UpulPQRLN/WfcmzDB7RPRNlXn5nJv/uXYCAxboBgbAABgICQZqy4RxpYsNG28d4w5T6o7AmrCpG85QbyeD1mVdI3vL2YcCOmpyvWKzBsOGAVpNWMFjwAkYCC0GZL+wuH2yX5jLsH9f5yZM0U27xZB51J37g9kwYfgAhtYHEMcbxxsMPB0DkQnptOf4TbpXVEL95x+ltlMOy+mCPGWwsq3D1MNyvVh1lTCubA1fcpwOnrol13rxmq5TV+/KYI68y3fo8OlblH+niM7duCeDNtio1eS48fNyBa2Xk1E+nbEmf4fHPB0T0At6gQEw0DAZCPQLazlkPqluM6VOTVjL6MlfVdy+tDYfLqOeTlaNLmoNU2R8OHDcwAAYAAPPggE2YTuP5lNRSSktPXSFnC3nKGlb1Zt/6zmav/eSXEO2v5rpiL9LzKSYuUdktDyvI5u355I0Yebms+VTHvl2XoNW6TowjsqvsEaMDeHriZkymGPx/svUC5VaXOPBABgAA2DgEQZ6OVnU5sPlpLh9OcKb9LU6M2LhWtKvOB+/49iN6A/2yEF5FoMVPAcGvWAADDQ2BqQJO5ZPRcWlNOezizR+zSnZWJmbK1e2TVx7iqZtP0/3ikupOhPGOgWj5NlAbc69Lk3Y1PWnqf2Uw7Kaxa+378TjqYifHb9Jh07fogOnbj2Ulsgpivy6hfdKaM6ei3LwEQz4aGzHBfuDcw0YAANg4OkZ4H5hHT/ZxP3Cbobr/lfqzIQpuhUd0S+1uOuUPYT1YE9/4AA7NAMDYCDUGGATtutYvpyOOHDBMeLphnxbVVunuMP03oxcmY5Yk2AOnmqoz8qlizfvSRO24vAVOZ2Rn59TFodz0+fkB/3B3kzOCkTgF5XI1EaufgX7h3E8Pjdt/sO0wBZqxwr7i/MTGAADYKB6BuS6sKl7KKJfaqmiW546M2FCM1NbDl2I0iSqYGAADIABMFAjBiqasNpIR+S0Re+S41RSWkqlpUTHLhXSiSt3yLfpbHlwBw8q2KxxVYunKHrmHJFrxrga1ikurTw9MRjKgWCO6gchGKRBHzAABkKdAdkvTDdn14kJe8Vw/lLVnT2yPxhSEWs0+Ah1QLH/OEmDATBQ2yaMDdPajGuyCsb/Sdh4Rq7rKiklGrfmlDRfHLhhzDkiz9s8dTFowjjYg/+eK2A1De8A02AaDIABMBDaDHA1rN3oNaTq9oE66RcWrtm/FLp9u/OE7dQTJgwmDFUAMAAGwEANGKhowoYszKMuCelyLRev56ps48qWNivQrPmJ0xGtDNmI+fKt+3T62l1ZDYvbcIbem5lD94pL6LO8fOpp8fPl0pVb92nH0XwZ5mHMzpWVMF4TxtMPtx25Qe5ZudTtCT3MMPAK7YEXjj+OPxgAA5IB7hc2cQcJwy4Uhv9/ar0aphpmj6b9p1NU/H6YsBoMPPBBxQcVDIABMJBBbMI4HZGnC2adL5Bx9RyWUdW298RNSjtzm4pLSmn/iZvVGl1+bg7xOHv9Lq1Jv0qlZZWwrmY6rc+6Rp+sPkkd4g7TzN2BHmJ5lwvp3Rk5pJeZsIOnb8k1agv3X6KMs7flfaiI4XOLzy0YAANgoHoGMikq4QA1HTCTlLroF6ZqVlzLoZ+iPxgMWLWDouqhxYca+oCBUGOgYiXMuziPoswM6u1kVrnxuq2YOU+uhPHjOKY+90IBzdt7iRK3npNTEhM2nZX9x7jKxuu/3kjKpOzzBXTnfgm9/+kx6hj3YDoirwnjRs9/Ss2WRi79zG35eJ6+GGrHCfuLcxMYAANgoOYM9DDTqJV3EQm3bb9A9GKtVcNe7mP+GfcHazdqDVIRYcIwOAEDYAAM1JiBiibsWQZzcI8vjrs/erGQfp+URak7zz9kwngwwVMbRy4/IW9fkXZFTjd8NJhDNoxOSKPk7YG/35J7XfYLYxOHAQk0AANgAAyAgcoY4HVh7UevJcVtZtdqvzDhdn6hGs7tzuO3US9/Ni5MGICBATAABsBAjRioDRPGVTCuXnFfrzGrAlMOp1diwvhxPAWSExM5dp5/r8yE8e2/T8yk45cLpWHjKY6ohmHgVdnAC7eBCzAABpgB9kOck6Ea9l2hJ/1nrVXChGG9FdEvpaTr1L2ohGHgVaOBF05SOEmBATDADNSGCeN1W8k7ztOSg5dlqmHnhDSavjOw7is4HZGrYBzSUXC3mIYtzpNVMX4/lZkwvp2fkxs9878z1+7Sb/2ZONfhegcGwAAYAAOVMiD7hcXto4h+00sVzXTXmglTNCu5xdAF1MPGPHm+WGODBmAADICBmjHA0wZ5Tdb94lLqN+8otZl8SK7L4rVZlW3tphyit1NzqOB+CVWXjsiJh6/7M2V1i1+jognjhtBc+cq7VEhz9lx8KPWwKhPGlS8O7bh1t5huFBbR72DCcK3D9R4MgAEwUC0D6cR5GYrbmlUrJkzoSX+h6vbedqNWUS9/Fg5GtQejZoMSDN6gExgAA6HCQNCEcd+ufSduytTCjdnXZS+vyn5uyLpGu47lU9ET0hF5CmGwqXJFExa/8QxxZWzF4StyC6YdBuLw0ynSl0767AfNmnlNWPBYcGDIhuzrtC7zWvltwfvwE59ZMAAGwAAYqMgA+6KyfmGHwt+d+lfP3IhFeJz/Ug3/FbkeDP3BcGGGCQUDYAAMPAUDbJByLhRIU2VtPkvvLzwmpwfyFMHKtiELj9HEtafpblH1lbCKF8JHTZh7Zi4tP3RFVrOCARvcoDlm7hHZmHn40uNUeL+YuFlzRRPGxu7N5KzA+rGn2MeK7wX/j0EaGAADYCA0GOApiV3kujD/9XDN+tUzN2HCbUVF9EulqPgD6A+GizIGn2AADICBp2KADdKRiwXElbDBC49J08PVqaq2yIQ02Vz5XnGp7BdWk8FMRRMWXBPG5otNVfDvp++6QHmX79Dlm/fp4s17cu3X1tzrD5kwfqyssFX4u+Df4+cDLaEFtAADYAAMMANl/cL6zyCXbvV+pibM6/W+pLqtya2Gfko9rAdTNiA8PnxgAAyAATBQEwY4IGNzznXZMPn1xMAarur+jtdm8XqvHUdvkHdJ3kNGqqq/YxM2a/dFaaziNwb6hD36WA4IeW9GDnFjZv536dZ9aQq7mziOj2qF38EEGAADYKBmDPSw0gP9wjQrITJy7peemRF7uY/5DaFZe9uPWl3+bSIOSs0OCnSCTmAADICBAAO9nQx6tDL1JG16lSUWPulxfH83Xzp9vPIkLTpwmbTZubLKVtnfcSjH60lZNGPXBdm4ObherLLH4jZ8fsEAGAADYKAmDLQfvYaEbh38dfTkbz8zE6b28/9M6NbdzuO3IpQDU5BgxMEAGAAD9ZYBNlhcEQuuAavqwslhHlwVgwHD4KoqRnA72AADYKCmDPRysuS6MKHbRWGG+e/PzISF6dYbEX1TqNvUPcQvUtM3hMcBXjAABsAAGAADYAAMgAEwAAYaMwOyX9jUvdS0fypxX+VnZ8K4P9iQ+VgPhm+/YcDBABgAA2AADIABMAAGwAAYeIQBzs1oOWQBhUWbs5+JCXvZa35D6ObBtiNWUC9/NgR/RPDG7Oqxb/jWCgyAATAABsAAGAADYAAMPJkB9kltR64kVbMyxDtzv/WFjVh4bPIvVcO51OmTzZiKCAMGEw4GwAAYAANgAAyAATAABsDAIwxw0+bO47aQy+O/6tIT//sLmzCh2d3C+6aWRsXtkzn4cMJPdsLQCBqBATAABsAAGAADYAAMgIFQYiCTouL3U0S/6aVCs3t9IRPG/cFcmv1Jy2EL4XYfcbv4UIXShwr7Ct7BABgAA2AADIABMAAGnsxAK+8ichnWxC/UL0zoSX8hdGdru1GriJuQ8YIzbNAADIABMAAGwAAYAANgAAyAATDwKAPp1G70ahK6s0PEmN/73NUwoVv/6YpJomaDZlPzQXOwQQMwAAbAABgAA2AADIABMAAGwEAVDLBvCo+dRsLw/8/nNmGud52fRHiS3lB15w1Vt7BBAzAABsAAGAADYAAMgAEwAAbAQJUMOG+wf4pwJ//d5zZh+EMoAAWgABSAAlAACkABKAAFoAAUgAJQAApAASgABaAAFIACUAAKQAEoAAWgABSAAlAACkABKAAFoAAUgAJQAApAASgABaAAFIACUAAKQAEoAAWgABRoQAp4vS+19ZrfwAYNwAAYAANgoK4ZeIHoxbq6YraMnvzVtt6luN7hmg8GwAAYAAN1yMDSb/D157FrXZg76aeumKR8RTPzFbcPGzQAA2AADICB2mdAM/NdnqT8cCPxHx+7MNXSDS7dnxTRN6X29w38QGMwAAbAABgoY4CvO6rhzHjs0qZq/p+5PH7iZs2dxm2hTp9sxgYNwAAYAANgoPYYGLdFXnP42iMM558fuzDV0g2qbs1pMWQ+rnVgu/bYhrbQFgyAgYoMjNtCLYYsIKFbCx+7tLEJUw2Huk75jHon5lIvfzY2aAAGwAAYAAO1xgBfa7pO2U2qYdepCROaObvVB4txrQPbtcY2xlAYQ4IBMFCRgd5JudTqgyUkNOvTKk1Y5KRd1MvJop52BjZoAAbAABgAA7XGAF9rIiftfD4mzLsI1zqwXWtsYwyFMSQYAAMVGejlz6JW3sUwYRVFwf/jQwIGwAAYeD4MwIQ9H93BO3QHA2AADNQtAzBh+NYP3/qBATAABuoNAzBhdTsIwKALeoMBMAAGng8DMGEYfNWbwRdOAs/nJADdoXt9YgAmDDzWJx7xXsAjGAADtcUATBhMGEwYGAADYKDeMAAThgFPbQ148LxgCwyAgfrEAEwYBl/1ZvD1vD8YPewM6mFVf4Lix0SZ6bWuWXcrnbo/4b08b73w+tWzAn0+nz4wYZ9PN/DW8HXj60tNzvt8DXrSteqL8sDP/6yudfxctf1+q9tfqRfGerU+bqnuGOC+ys9PMGH4YOKDyebLzqA3krLot/5M6pKQVqkm/JjXEzPJM+cIdfWlU7daMmO97Axyz8ylN6dlUaSv9g0fTo6Vnxyhy/PRBSbs+egO3p+v7sHryx+TsygyIa1K09LbyaT/z957xkh2HX1/wgu8wAvYgGEYtj8aNl7DsP3xwfN8MGyJ4ZEeBSowB5GiKFGUKJHcXQaJFElpSZESRQWG3eWm2Zy5Oeecd7lpcs455zxTxq96zsydOz09PdM9s3276wJ3bs8N55xbp07V/VfVqTN/a4HqIu6bjX4DMP18bY7M25IfaksM30kAIHTZs6uyJwV16FP07mwANXT6a18WyJPLM1Vvzwa9rMy7O3aCTH8DYTEIlyB3vLV9vNBACfxpf4ncLu+Qvx4uEzxRfhqhTF7/skDq2/vlTF6z/HFvsQp1tbLFyWsVUsQ5klnZKQV13fLZiYpJFZe/ffb/+D41egSTHgbCgtlvNt5i6zeMer/dXigZlZ2y4XKNvLA+V57y6SG8ZL9YlytZVZ163+JTFQpc0EHReNCi7SPA3ZLTldLU2S/brtfJc2tyJrQlmrJoPyDoTG6LXC9pU+OiX7fyP3pu1fkqNYT63zmaeia7B1D364150t4zKBcLWuXDg6UKxia7387HxsNGv+nTz0CYgbAJYCMVBxIg7IMDpcJWXN+tFkC/skDRvbatQPoGhqWqpVde2ZIvKMHPT1TIc2uyJ7VeAqwi0dR7HaXxwvocaesZkMqWXlXKXuWKon582eyHokRqr12L3J9Gn9joYyAsNvoZ/wWTfsj2178slK6+IekbGFK94vd0oQvwUBXUdYkMiyw5ValesU1XauXlTXmjRsFwPODVM/7r3mv8xtt2obBV9eHiU5XydNoYTdFR6Eu/fvSXyf+PLctQoyYFAeg+OlQqjy4db+BEr26/XidDw8MK1lxd1MM19nBlR3POgTDqb+sZlHd2F8UVrEbTBrtnjHeMFhNpYSBsig9kY5qJTJOMNAHYvLu7WIaHRTZdrg0r+B0I6x0Ykl036hV0fXiwRJVLVnWn/PNYuYIxBL+XRoQwomA5j4LT48hvp8gc0KKOz09WaDv+cbRMvr8oXetBGT/8RYa8ubNIrxOy6FWc3vrs93j6Gz2CRQ8DYcHqLxtf8ekvdMGvNuRKeVOvZFd1htVBYyCsW8oae+TJ5VnqabpV1i7Nnf2y8XKt/GpDXthQecAN+mWcDhrRQ/QhOooj+gmgB2i5WNiqIfGECqKDOBK2v/xslXrknP4KxwOh98mTiuZeKfQYNn+5Pne0HTxHm9ZfqlHA97cjZSO6MlOB35oL1Rqh8oTPIxiuvnDneBc8YWzXitvlmTTTm+HoZOfiM4ZnQkcDYQbCxgGGmTBRMjzjBWEoMhSDey+UCcKcc3jCegaGZM+terWooZgIX+wfHFbgtOhkhTzsi9MnlGPnjXqNS//1pjxBCbGjHD7YXyKXClvl7V0hCx3lXS4KWSAJOblS3CbXSkI7vxs6+lWhrLtUYyDMxu4ojzpeTYajgbC790GQDPwT1HfwgjBkvwNFvA/AieuAsJ+tzZH82m4pb+zR808sz1J9UlTfrboBPQGIQmc5WgDAtn9Vp+F4v1qfKy9uzFMQ9ZtNefLy5nw5ndsseLy4n3oXn6zQsoobeuRK0XgdlFPTpddulHYoAAxnDKSdGArRZbwLoZXoWDxje242yJfX60bniDkQhgH03T3FamykzD23GrSemtbe0JyuGQAxaAAoZTue1axtcjSx4xh/GC3uHi0MhNmH3KigTuWBOBkIQ0EAmNSKuCJTQxABQleL20aVHB4qgBsbsfwPLhk/WZpnsSoyx+tSUavUtfdJc+eAgi+snmwH7jRqeYQ41rX1SU1bn3x0qEwnX6PAfrYmW97aWSRt3QPS0jUgfz1SNlp/KvebvfvdUx6zRXsDYcnXp7PFK8lU7mQgDCABoHEeJJI1nctv0ZB19/4AJyI5CGWsbe2TlzblTQgXTK/o0KiNy0VtklvTJT39Q6rH0GVshXXdWgeGwGvFbWpY3HilVsEaOoidBBuZVZ0yMDQs+243qF70gzAAGHoTwyMgjnY7QMm1BVsLpKV7QAEanj90L54wQNhbu4oUZJ7ObZGhYdE52ivPVslLm/MnvI9790hH6ntje6G+31QgDDpzf6Ty7JrRJ948YCDMQJgJHax/nnDELVfr1MJHNqdXvyyQ/LouOZTeqAoH5YaSu1nWPs4TRcghSu4fR8vlwS8yxl1zIIzJxz9cnK5ALLe6S364KF2I5WfS8O92FMn3P0+XpacrFYQtP1OlwIwBj2JgsvLhjEaNmydkA+AXb2Fg5ZmCSQQeMBBmfJgIfDjXbfCCsJzqTnlmVbY8tzpHw//232lQkERm3h8sSpejWU0KuLxtBOhs/6peDqKrwqS6J+EHURUPLcmQvx0pl+6+IQVLzO/q6h3URBw/WJyu85AxEq69WC1n8lo0RBIdRCjihwdKFYCdymkZCRscz6uEDeJZ47nihm5ZsDVf9RT6kYgQ9qfTskfDD68UtaquJLJjYHBYjmU1SXY17WzX+WMk9Xh02Xh96n1nfgP40N/h9ke+yFCdCgr74nSlGkjD3UcdRKaQDRJ6+Ouw/8f3s9EjfvQwEGYgzASOB4QNDg1rTP71knZhJ1si1jy8WH85VCq/2ZgrtW19cqO0XcMOAUPsKEYSe2BN/PhI2biwBwfCUAIoSsJF8mq6VGlsu1anni1S6KJw8mq7ZOW5KvWAoYzI5vTQFxnyhz1FQttO5baYtc7GbFKPWQNh8VPw9rEUHFo6EFba2KOGOYDI9dJ2+aq0XfLrulUP4X0ipA+wgtfLzdNCB/1ocbpGTHD/3ltGFe4KAAAgAElEQVQN6rkiLbvjAUAY1/D4fHq8QkEY4Ai909k7qIlA0GNbrtXKrfIOeWRpphzJbJIjGU1a5/PrCIPs0igNwhmZj+bKdkcADIZEtq6+QSFEkiRWvBO6lPDEY1nNGmrY2Nmv3jiAz+oL1eoJA7yRIfInaaFEV9RBaOXmq7UK6ABcri6OtJ1kG4DDjw6X6dQApge4HZ2NAZVtx416+eBAyeg1dw/Hjw+XadhkTWufvLe/xHSs6dhxfObluXj/NhBmzDZnzBZv5o1neV5PGKERWNA4R+gHCg4rIAqG8AkmGQO2Vl+oEUAUivFEdrOUNPSoMqto7tEkHShL2hgtCFt2plIuFLTq/QCvUDhHt84Xw6rIBOcX1oUmNcfz3a2siR8TRpO7RxMDYXeP9sb3d4/2DoQRos4SJegddBB6h9/s/CbcHc8YWXrRGYQM7r7ZIEczm9Q4iFeLkHWAGNEcgC76dSoQRqTGixtyNdzQrYX52x2FOg+ZuVo7vqqXoaFhcckzwvEKHjNS6JPQA68cYI+lX363o1CTYtB+3un7i+7Irpv1Gvb445XZgieMcMS3dxcp+HMhjrSdRCAnspoVbLmwRlc3WRy3XKuT9MoO2flVvWy4XKv0gCbs6HIMm2yEI1KPu+Y9brlaKx09g2roXHOhRp6wsET7LpwjbGAgbI4I7YSGHe+ekotEey8I8ybmQIkAjIjBP5vXokqjtXtAmrsGdDIzimTVhWpVECgurHrM6wKsOeU3FQijrIV7i+VQRqM+6xQNMfhYERva+1Wpki0RJRbpPexaYvKX9Uv0/WIgLHpaGV8lD628IMwl5sDzQzKo0zkh/YMuwluEXmBe1o3Sdtl9s17D2v98qFSz56J/2Amdx1PkeGQqEMZSK4AWIjacnqH+8wWtGv3BHLK9txvUMOlAkivbe0R/EdqHB+v7n9+RBz6/o5EigEdCIbn3vX0l8vy6XL0H3ctcakAY2X/xxjnQyTOEZOJRw2OFUdRbF6CP0EvqIvU95Xt3QvyPZzUpuGK+2QOfp4+77u6lzczFxoBKu5zu9tZlv5NnrCVSXxoIMxA2TqglEnPOZVvCgTCUorMAMteLTFIopcMZTWodRFCjBLiP84Aw4vhRYF4h7kAYi19yzYUjPrY0U7Zeq1NAx6Tq0IKYY4KOe8loxcYzDy1JH1fuXNLH6hrrF6PF7NLCQNjs0tf4NzHpGw6Ece7FDXmqJwjz+/2uItUhgBbmUH1+olKjNLgPIIHXCAMgIAbd5O1rB8II8ftkJBwRTxneJMIRyexLyKH3OXQU4YFsjR398vJm1iKLPB+ZdgDoCOHffKVWvU+AO3Y8UcxZI5swkR4/HkniQfINNjIifnIstPYmZeCdW3OxWvoGh6SsqUc9dX4AyP9efet9Z0IqeW8Mp69/WaBeOO91fvM8upe12Zjr7dfD/vvt//F8ZfSIjR4GwgyEjRPUqTSgUFwKmDxzwrDGeT1hhCESa++AFZYz1i5hrTDi1h29EORYL2+WdUxY6NmBMJQQKepvlneoZQ9r4f7bjerlen17odbhygMU/mFPsa4Fw6LNKEksnlj8UCxeRemesWNswtDolxj0MxCWGP1g42Fu+gHdgi5iB0ARjug8YfQB50nohC7C2MeRdbqYI7z5ap3+z32kqifRE14y5iXznLcP0ys7hZ3EGavOV+t8LAyHZCtk/hYgzJvZl7oAacyNLm/q0XvIjEiyDeaicd1bvvsNCAM8sTH/i3lZGDHZaZebo7X/TqM+jy7DawdYwttGwhDmu7Hzm3P17X3qhUP/+UGYq9d/pH14BEl8dbuiQ57AOBrme49zz6/N1VBLshdrCGeY+/zl2/9zMz6Snc4GwmywhRWkyc74KChAEB4ohDUhEFj8AGHEhKP0sCYSAvGXQ2Wq4KAJ51CAhIK8ty/0LErn/f0lCsxIP8+izV7LHCCMlLxYBomVZ0IyioHfWPeI3yeNLuVQB5ZG1g1D8RBK8Yt1OXIip1mVGqmF/3ywVK11tMU9k+z9Ze+XOgrPQFjq9HWqj2v0BNEWzKP64eI7mpCprLFXMio7hEyFGADf2F6gniU8ViH9kCl/PVyq+obwQPQA59EzJY09MiwiBzMaJxjqSIzRpEujtOk8KUAcERasA4Y+w/PkykKv/GRVlnqGMAIu2FagCaPQW02d/QriXtqcp3OnnYHS9SXPOhC25FSlfH9RyIjJfcx1/uxEueqyj4+UjwJIgCU6mUQh/v3ZkeQh0MqrV119kx15F3QxGwZM5nmHuxf9j55nO5weAobhwFq4Z+2cyapYecBAmIGwsIIpVsZK9Oex5DHBGKVCCAKx9ncqOlQZkQ0RgMT6Kd39Q+qFAmSRfhdl8emJCgVrWBNJbYvXivlibMTTozi97+88YSgmFCtlk4IY4Lfpcu0oCCPeHUX1ybFytWZuu16nljuUk4ubR3GysWAmCUE+OV4uz63JDmvh87bBfpuyCAoPGAgzXg0Kr8baTmQ+xjmSPaGDSCGPTiJFPHriYkGrAitkPskj1Gu2POQ5IsSO+WFEZzy2NENBFEbEy8VtCsj8QAJPEzqN+wFA3hT1HSPhiIAkQBSeqVvl7XKjrF3mb83Xc9S9cF+x6ibaw1qWJ3KaZOW5ar3fASQvCENHQiM8WOwAquVnQ9kT/340BMLQbxsu1ajHzNtmL+hyZUdLb/csoY8AzDd3FobN5kh5tPfzkcWpvzhdpUAx2nrsPpNVsfKAgTADYeMAQ6wMFZTnAWF4lNguF7ZpGMgrm0MJNVBAhDGQGYrQDkJD8EahINxzZIkCBAG43tpRqKEapQ09asXzKwwHwiKlqCckBGWE0sLbtexsaP6YCzukTCx2pNglpIRtaEhUCTOZ2V9nUPrB2mlKzM8DBsKMJ/w8kaz/A8LIqgvo+sPeYgUzpH93a1YRnsj8L+ZQEanh9AFGObLl5tV2K7B5Ji1LsxpyH0kv0FN+mrk5YeiKcCnqMRKStZDwQe512RWpy5UFYKFNJ3Oa1ROHHsqq7pJFpypHwx8dCBseHta0+gA/t+QLIJMkG2x/P1KmRk3uR8cSdsi8adrHTkQIqempy5vl0bUl0hFdyvw1PH8FdV2j7Q/3DH3g5l6jo503MNy9ds5kU7x5wECYgbCIAireDJco5SH4sY6RzpfUtVgHnfDnyORlJjkTC38yu3mURijBX27I1fDC8/kt8uDidDmR1aRKZfHJ0Dpg/necCoQ1dPTLinNVmm2xuqVXY98BXP5yUCzME2ONmPWXa2TtxZqQZdQ3Adv/nP1viiNIPGAgzPg1SPwaS1vxLmFUq27tU+AF4PHqIfTSF2cqpa17UH66emw+FPqLdcTwhmEwxKCIF+xacdukc7UigTDSs6NPAD1kCGTuF2GBtMX/fj9bmyMH7zTo3GnS0AMYyUzo7nMgDKVIOCIRH7wnuzcc0XnCQiCsSzMwuuRXnCMhB14sNhJ6kDbe6ylz9YU78rwDVotPVU5KE54FsB4YWUuM8EWiXcKVaecm8oLRJHaaGAgzEJaSAgchzQLJhH6wxpff+oXyIXwCEHYqp3nc4ssoExatZAI1a6Bgwcuu7gqFBaoFb0whIaQigbCtV+uEUBDWfSF7E8rGZWm6UdquKYjdkYU7SaPLtvFyjfZbtErJhGXswtJoODc0NBA2N3Q2fr77dEaXsDAyIMwBEG+/oJeWjoAwzdo38r2CkY7lUQBeADDme/X2D8m7u4sUrHDdb8iLBMKYs0z4I3OjmBtGGD4hkl/5dBD/p1d0qA4ifJ8U+H4dhG51c8LI3vidT++MpoUHkP3zWGj+lReEoT/Rtehcnv/yep30DQ6r14yEIQA9L10i/ea9ub+5s1919C/WkvFxvE72Pg/oOpMbmk5A4hADYXd/XHj7J9l/GwgzEBa1cEumwYCgB/TMBIRhrTyVGwrHqG3r07AM1vnCooZCemd3kQIvRy8HwiZLUU9ijte/LNT1VIivH5ZhDTFxz7sjCvtIZpOGpizcWzJhzRR3nx1NiQSZBwyEGf8GmX+n0/aZgjBAxTt7imVoeFgXduZI+OBTK0IZAJnHhZHRhS/SJgfCNEX9sQqdE+ZPUf+9z24rqCP9PZ4kf1gjxkkADhuh8+HS1TsQhg8LYEc2YRZRZsfIeL4gBHj8IKykoVvD7TGKAgDxzOGNozzve0SiL/qX+4kWYVt+pmpKUPXwkgwFm9DwfQ3lnBywRarbrpncmgkPGAgzEGYgbJqeMBJ0/OlAiQp5/qD8nJLgGpOpvYtkOhBG6nvSAxPqUdncKy9vypcDd0Ip6smOiJUw7Xy1KlYmMPsHtANheN7I6sj//nvsf1MEQecBA2HGw0Hn4WjbP1MQ5iI1MAKykegJTxleIACaW8DZ69Uh7BEgNm9Lvqy7GFocmcyLgDWXop7FlZkTBgjDGxUJhP3Nk93Q+75eEHYovUk+PFCqqenxMn10qFSjPmizF4SlV3ZoG26VtStwel6XYgkZNSnbZUj01hPuN/SkDhJYnc9vFebKhbvPnYNWLM6MF46QT11LLMxUAHe/HSPT0+gzffoYCDMQFlFIJeugQlFE6wk7kzsWjojycxOGUSSEDr6+vUAeG7HWMRmY8EEWbXa0A4S5FPUohstFobTAZMMiRT2gisnUpPI1EDZ9IebobMfkoJ2BsOToRxuPU/djtCCMiA1vOCKLKP9xb7G09wwoCGORYwe4AGLoFsIYyZro+iGUor5fU9JfKmzT9PSXCkP6iEJYemU6IIx1v1ydrg6ODoRRZvRzwjqlprVPXtmSpxmHveGD1EFI4gf7S7Rsb13e39TL/DiWiSHjJMm0nHHUe5/3N/R/a1ehdPcNSlF9Tyi8MkLoovdZ+z01fxuNpqaRgTADYaNCOpUGjBeEkeaXNVhYq8XtLN7IOihYyMjchCWOZ7Cssehy7wCZn7o1FDGvtkte3JCrmRKXnq5UT5eXloAwFp5cdKJCvkt8/BcZuj/w+R0Nz6hp65V3dhcbCLOxmJJj0TtW+G0gbGrF7aeZ/R9MmgECbpZ3aLp3jIIkg3I6iCN6ibA/PDvMlwJUME+MdcJIykEip5rWXgVjf9xTrNcAYeisjw6V6dImjjeYd8W8YhJcsCiz00O0gbW/SNNONEa0nrBoQNiyM1Xj5lujQxefCi3k7PWEuTlhZF70AjDaTjtJ0vH3o2WTRn/wDkSZkGkS7yC/oYN7d3ckQoXyuZ+2PLiEOWqhtcQuFLRMupaYe96OwRxnidxvBsLsw2+CoEpkho1X2xDCLJLZ2Tcode0h6yDZprw7Hi3AE/HpT6/MEkIkDqU36gRoFskEXBGywca9v1qfq2u5kDrY287nVufoxGksl9TrvUbMO8qVslA2zhPGfShK7w5oI3zRwhFNEXh5KNl+Gwgz/k42np7sfZDzGVUdKtNJ0EE6d68OYiFlUrozX8mFGwIauvsHVacw94soCtb8IssuSTre2VOkv0lD7/QN+ovkE6svhE/o9Py6HPUCEX7oQNimK7XCHDGvDvrR4gxtBzpvOiCMedRkUARAfjqyWLMfhJU29sgv14cHYcwP23mjfkJ4JHTlHYlAKazr1iVlmNfl3ttL95+kZcvhjCbV0ehipgDwDVA8kjJ/+ZnKcaDV+6z9Npk0WzxgIMxA2DhQMFuMlmjlomw+OhxaJ+xYZrOGYXDO7Y98kaFKCS8XCzG/tbNIhXxlS68u8uxi7wFPZDZkK2vqlaK6brVQErbo3vm51dlq4QxnmeMel10KELbyXJUwofl8QavWS91uR4lSP6ETJP8Ip2hcnXYco7/RIli0MBAWrP6y8TXz/mKNKrLskvX2hfW58tCS9FEdhC4iPJBshfUd/bqG2PHsJmnrHpCNV2pVv6BT8OgQrkdGQ+Z2ZVd36pwuFkB24YKAMMr3rvnl7Tenr6gTEMZ6Y3iVTuc2j+ofp4cIp2dzIMpbDr9pj8uOSGQI4Iusi+g21rl0STMciOP+rKou6eglQVWB6jU8frovz1I9TOp9vHUATqdHaTPtZV4bEStka2SNNcrzt8n9/7sdhUIoJp5FQjw7ewf1XZijjZHV6WJ3vx1nzttGu+hoZyDMQNikAiuZBxHC+8ODJRqHvvpC+CxPvD9CnzVEyNy071aDCnnAjxPWKApCFPFQkS6YDeFOumGn2LiX+6ai54MKwqq1DCx0v99VNG5nsU4WlmZ7f79lR5yKnnZ9ap5LRBoZCAtmvyUiLyV6m9AlJGo6m98qGOv8egLA8dKmPF2/ixDD2+Xtumgz59296BfKIfSvsbNf9QN/WPPLu/SKP8wvHG0cCBsaEl0k+Y0vC8bpIIyReNvYSO4RzhDoBWErzlZpmD56FK8eQIoN8PPWrpAhkXchkQhbW8+glDX2KDAFnGLYJFKFjQgQ5pgBJHmXZ1dlyWcnygVDKc/jKZwMZLp3BfSirwGoblNwN8V8M/e8HU02xZsHDIQZCJsSHMSb6RKhPIQ487hIt0tGQ3+bUHAoiZM5zXLgdqMqIhSOU3ze+1GCKB5i6rHGoSyYN+askN57I/2mfEJAmFiMh402enfK23atTtPpvrotP6LFL1I9ds0USSLzgIEw489E5s94tg1DHcY1Z7Dzl024+q4b9XIqp0U+OV6u9zlPkP9edBCenlO5LRqNQdINynUGQ//94f5Hx/ztSJm0dg0o4OF/rw6i7l9uyNV1Ml17/OXQDuZ9EZb/hz2hEHz0JufXXqpWoMU6l9ou2rciS1PRb7tep/oWnevfD9xp0MgVfZ8VWQq4dnxVJ+fzW9QgSTsno6G/fbwPUwBOZDfJiZxmyzRs38ATvv/8PDOb/xsIMwa8qww4m8w9VdkI7XCgiue4RmIOYu4R8CiQqcp7eGmGKpM3dxRqGuDJyp6sHEJGmFBMhqdw96C0yPgEQJtMEYd7zs7ZR22QeMBAmPFrkPg11rZGkuUkhHpzZ6HqKfTQVHWhp9hf3VYgv91RGMr2N41vHHQWYYukrfcus+Ktl8y/zCEL5wXjPvQUc7vUwOnRm+hU1iWjbX7AxDN47bzzz7y/CdV39fHsc2uyFXBSnzvvbeNUv6kPjxiZjqfynk1Vll03eRULDxgIm4aAioXQ9mzwBioKCavZdPoOBYFSne5zrg6ei6SUKd+vwNyzdgwej1mfTewzA2ETaWJ8kro0QR8AGqLlAe7lmUh6JFJZTodFqnMqAyNlhNOB0ZQdqW3umnvHWHRhLM+6dtgxer40WoWnlYGwaQg3Y6LwTGR0MboYDxgPxIsHDIQZL8WLl6wc4yXjAeOBROYBA2EGwqK2sCUyI1vbTNAaDyQHDxgIS45+tPFo/Wg8YDxgPBCZBwyEGQgzEGY8YDxgPJAwPGAgLLLSto8ao4/xgPGA8UBy8ICBMPv4SpiPLxMqySFUrB+tH2PhAQNhxj+x8I89a/xjPGA8EBQeMBBmIMxAmPGA8YDxQMLwgIEw+4AKygeUtdN41XjAeCAWHogKhD226Jo8szpfnl6Va7vRwHjAeMB4wHhg1ngAXfPYoqty74KVcs+CtP/6tTna7pm3fOt3F+41XWe8PWu8bd9Q9g1pPGA84OWBZ9bky3cX7pN75q3YNUHV3Ttv1f9x36ur5Ad/PioP/eOcPPT3s7YbDYwHjAeMB4wHZo8H/nFOfvDnI4LumUsQdu/8Fdu+/e4O03XG27PH20Zbo63xgPGAlwf+eU6+/e5OuWf+it0TQNg3X1nzv9/32qqOe+Yt7/jGK8tsNxoYDxgPGA8YD8w6D6Bz7nt1Vcf9C1b/bxMU0yyduHd+2tr7f7t+1t/NdKl9SxgPGA8YDxgPOB5A79w7f9Xmiapt4cL/dM+vl/y3thsNjAeMB4wHjAfmmge+tnDhf5qomGbnzD0/XfNf5vr9rD4bU8YDxgPGA8YD9yxc819mR7NZqUYBo4BRwChgFDAKGAWMAkYBo4BRwChgFDAKGAWMAkYBo4BRwChgFDAKGAWMAkYBo4BRwChgFDAKGAWMAkYBo4BRwChgFDAKGAWMAkYBo4BRwChgFDAKGAWMAkYBo4BRwCgwJxT49xeW/3f3vbrqp/fMX2F7gtDgvlfX/PTeBSt/OBMGuP+tdf/DfW+st75MkL60cZWYcuWbb2766X2vpf0vMxlj976adv83bYyZjEk0GfPqqp/evyDtiZkkOrln3ooH7ntjjfVpovWptSdheJLxce/8tO/NRGfcP2/l/2w6IzG/Beb6G+3eV1f9hARRo3z07/NX/p/f+v0W+dZbW+Vbv98m3/o9R9vvHg22ybfe/lLunZ9WMtpJ0/hx34K0f/uPt78c6UPrz7vXjzaGEpn23/7DLrln3srHpzG0Rm+9b8Gqk6w1ZfLSeDxxeDwk6+9dkNb3Ly8s/8+jzBrlj3sXpGX9xzvoDdMZidOnNr4Spy+2CePj3gUrM6McUuNuu2/+yvu+/c52+y5LaWyxTb711hb59zfWy//z+vr/aZRBWKz53gVp8sinl+THK7LkqRUZtt9FGjy9MlseeP+AfOOVZRmjnTSNH/e+tvJf7nttjTz6+RX58YpM68u72Jc2lhJTljyx9JZ8883Ncu/8lQ9NY2iN3nrPvBX7v/feHvnxymwbXza+EoIH4MUffXxKvjFvWcNMQNg3Xll29YH39xtPGz8nBD8nmu5kfDE+7pm3/MqoIpjGj/vmpX39/jfWyWOLr8tT9l2Wkjz245VZ8tA/zsk35i3v//9eXv0/jrKPA2GPfnZFnk7LEW60/e7R4JlVufLAnw7GDMIeW3RNnk7Ltr40fjYe8PHAk8vuxAGE7ZWnV+UabX20Nd1xd3QHvPjg307HCMIOGE8bP5tMC8MDjC+M47GCsMeX3JAf23dZSvLY06ty5OF/njcQlugfCQbC7s5HTKLzhbUvfnxhICx+tDS+TAxaGghLjH6w8ZCc/WAgLDn7dS7Hq4GwMNaNueyAaOsyEGaDPVpesftmxisGwmZGN+O3xKWbgbDE7RsbN8HvGwNhwe/Duz0ODYQZCEtJF/DdHnhWf+IJbwNhidcnNk5i6xMDYbHRz/jP6BeJBwyEGX9E4o9orhkIMxBmICwgPBDNgLZ7Zq4UDITNnHbGd4lJOwNhidkvNl6So18MhCVHP97N8WggLCAf4BaOaIP9bgqKVKjbQJiNsWTjcwNhxtPJxtOJ9D4Gwmx8xcqPBsIMhJknLCA8EOtgt+cjKwwDYZHpY/wTPPoYCAten9k4C06fGQgLTl8l6rgyEBaQD3DzhNlgT1QhkiztMhBmYyxZeNm9h4Ew42nHC3aMPy8YCIs/TVONTw2EGQgzT1hAeCDVhNNcv6+BMFOoc81zs12fgTDj6dnmsVQu30CYja9Y+d9AWEA+wM0TZoM91sFuz0fmIQNhkelj/BM8+hgIC16f2TgLTp8ZCAtOXyXquDIQZiDMPGEB4YFEFSLJ0i4DYaZQk4WX3XsYCDOedrxgx/jzgoGw+NM01fjUQFhAPsDNE2aDPdWE01y/r4EwG2NzzXOzXZ+BMOPp2eaxVC7fQJiNr1j530CYgTDzhAWEB2Id7PZ8ZIVhICwyfYx/gkcfA2HB6zMbZ8HpMwNhwemrRB1XBsIC8gFunjAb7IkqRJKlXQbCbIwlCy+79zAQZjzteMGO8ecFA2Hxp2mq8amBMANh5gkLCA+kmnCa6/c1EGYKda55brbrMxBmPD3bPJbK5RsIs/EVK/8bCAvIB7h5wmywxzrY7fnIPGQgLDJ9jH+CRx8DYcHrMxtnwekzA2HB6atEHVcGwgyEmScsIDyQqEIkWdplIMwUarLwsnsPA2HG044X7Bh/XjAQFn+aphqfGggLyAe4ecJssKeacJrr9zUQZmNsrnlutuszEGY8Pds8lsrlGwiz8RUr/xsIMxBmnrCA8ECsg92ej6wwDIRFpo/xT/DoYyAseH1m4yw4fWYgLDh9lajjykBYQD7AzRNmgz1RhUiytMtAmI2xZOFl9x4GwoynHS/YMf68YCAs/jRNNT41EGYgzDxhAeGBVBNOc/2+BsJMoc41z812fQbCjKdnm8dSuXwDYTa+YuV/A2EB+QA3T5gN9lgHuz0fmYcMhEWmj/FP8OhjICx4fWbjLDh9ZiAsOH2VqOPKQJiBMPOEBYQHElWIJEu7DISZQk0WXnbvYSDMeNrxgh3jzwsGwuJP01TjUwNhAfkAN0+YDfZUE05z/b4GwmyMzTXPzXZ9BsKMp2ebx1K5fANhNr5i5X8DYQbCzBMWEB6IdbDb85EVhoGwyPQx/gkefQyEBa/PbJwFp88MhAWnrxJ1XBkIC8gHuHnCbLAnqhBJlnYZCLMxliy87N7DQJjxtOMFO8afFwyExZ+mqcanBsIMhJknLCA8kGrCaa7f10CYKdS55rnZrs9AmPH0bPNYKpdvIMzGV6z8byAsIB/g5gmzwR7rYLfnI/OQgbDI9DH+CR59DIQFr89snAWnzwyEBaevEnVcGQgzEGaesIDwQKIKkWRpl4EwU6jJwsvuPQyEGU87XrBj/HnBQFj8aZpqfGogLCAf4OYJs8GeasJprt/XQJiNsbnmudmuz0CY8fRs81gql28gzMZXrPxvIMxAmHnCAsIDsQ52ez6ywjAQFpk+xj/Bo4+BsOD1mY2z4PSZgbDg9FWijisDYQH5ADdPmA32RBUiydIuA2E2xpKFl917GAgznna8YMf484KBsPjTNNX41ECYgTDzhAWEB1JNOM31+xoIM4U61zw32/UZCDOenm0eS+XyDYTZ+IqV/w2EBeQD3DxhNthjHez2fGQeMhAWmT7GP8Gjj4Gw4PWZjbPg9JmBsOD0VaKOKwNhBsLMExYQHkhUIZIs7TIQZgo1WXjZvYeBMONpxwt2jD8vGAiLP01TjU8NhAXkA9w8YTbYU004zfX7GgizMTbXPDfb9RkIM56ebR5L5fINhNn4ipX/DYQZCEtKT9iTK7Lk4S8y5InlmRX1NG0AACAASURBVLP+fo8vz5RHl2bIUyviK5Bo+5MrIrefOqmb941VGET7PHU9sjRD93i/c7RtmI37DITNHQ/NRv9ZmRP7z0DYRJp4+QT5FY2OeGxZZlT3ecvm96MzeO7xZZn6nL+sIP7vdMVTAfnOmi6NDYRFHl/TpWcq3m8gLCDCwTxh0Q/2p1ZkyqvbCuRoZpO8t69EAcpsgQUU5keHymTb9Tr5xbpcAZDFQ5DQ3oV7i+XNnYXCB0A4MMY9z6/LkfWXauTlzfkz+kiYrK0oTRQoHyi8Ezv1QdsFWwtk+1f1su92g7ywLids2yYrN5HPGwiLfowlcj9a28b60UDYGC38fIEse2lzvnx4oERlWzgw5sDDp8cr5I97i1UeunP+8rz/Iyt/ujpb0s5VyQcHS6LWCTz3j2PlsvpCtfx8bU5Uhr2nR2R1OB3hbVO439THe3PkejyNebRn3pZ82XK1Tp6P8l3CtTGRzxkIm3x8JXK/JVLbDIQZCItaQSQS40ZqC0ryp6tz5Ghmo/T0D8n5/BZVAk8uj7/AQHmhLK+XtEtlc698sB/QFzsQQzG+sb1ACuu6Ze+tBgVbfoBHPQu25ktX36A0dfbLklOV8sQ061aQheV1xLOF9/DBJemqlF9YnyuvfVmgQPBvR8vkbH6LlDf1yNDQsLht/50GieajJFJ/Jco1A2HxHx+J0rep2g4DYZPzNPLzl+tzJaOyUy4WtMpvNuVNMKIh3zGulTb2SN/AkHx5vU4APQ60TMZXgJnfbMyT2rY+ae0elHf3FIWVzX7ZSZt23aiXwaFhrWuqejDQAQ63XquTX23IVYPdZG1y5ykTD92DSzLkp2uy5bfbC+VgeqPcLGvXd52J/vICOVcP+uqd3UWqKk7mNE9JM/dckI4GwiYfX0Hqx7vZVgNhBsICC8JQdJNZ7lAkz67OVsWCFvjkeLmGz4UbbChC7vcrxHD3hjuHAsLz1tI9IL0DQ/K3I2VhleF0y39saab8aX+JAsmcmi4BFHkVJPXiBWPLrOqU9/dHb3HlPaDd77YXyocHS2XpmSrZeLlWdt+sl0MZjXKtpF0K67ulqqVX9+rWPkmv7FBlveZijXxxulJBH1bbp9OSQxAbCEuOfgw3RlP1nIGwyDwNUFiwrUDBUk1rn/x2R+E4sISM/cOeYhkaHtZ70CM/WzO1h4rniBgYGhLZdq1OvU3I7pDOCkU28D/eMtU9qsuIOMiQHV/VS3vPgLy0KU8eWxYKqae8cDxMebQnvaJD5fTCfSVaF/cCtlx9PM9O5AZeqUUnK2TnjXrJru6U/sEh1SH8OV/QovLcD/5cOaF3GGs//1MuQO4XvqgIaPv2rhAI+/hI2Wi7wr1HUM8ZCIs8voLar3PZbgNhBsLCCve5ZMKZ1IXw/8uhMll2tkoe+PyOPPRFxoT9B4vSFRzhoXprZ6F8f1H6hHseWpIhT6dlyz+PhZTrZMqONjoLKIrM32bmSB3ObFJltudWg85H895De/k/Uvne+91vlPCBO41a7qXC1gn1ljR0S3Nnv7y2rWBCna4M/xEF+9HhMjmV0yInspvlWFaTnMtrkTO5LWqF3XGjTqiLDw/AHZbWFzfkhbyJK0IWVDxm7Ly3v/yg/m8gzBRqUHl3snYbCJuap4kCAFyxFdX3yHNrskdlGtfO5rXIwNCw/PlgqXqP/AAlHO2R84Rsd/QOyq835qmsXLi3RL1tb2wvVNDy4YFSla+rzlergQ0A+LsdhYLXiOcALq9vL5RD6U1yKL1RfrIqO6w3CR3x1q6ikYiIAZm/JRSarpEM2wrkrZ1FsvZijUaEZFR2SE1bnxoLiRLBU4eB70pRm+y+2SCEXfrf75m0bNWjtO/3u4rG7YTLLzldKV29g+pNfGFd7ujzXhCG/uX/cLQK8jkDYVOPryD371y03UCYgbBACkaAEHO+squ7BCW27lLN6E48PfvaSzWy6UqtXC5sk/WXa2TdxbF73P1rLlbL4Ywm6R8cln23G0NWwEl44idp2fL3o2U6VwvlTEjHo0tDk6gJ4cPqd7GwVRUpoFCvLQ2Blnf3FMv+2w0aIz8dIAZ4Y75XZ++g1Lb3CQoRwUD9tKW3f0jfH0DkBAbPEKbiV6buOkcApdeDxb3stJmwFsIOocm1krZQKI2bEzYCJCOV7a0nSL8NhJlCDRK/RtNWA2FT8zSy7GdrsiWvtluItAY0cQ7vD94oQr0xVj0xIiOhO9dDc3XDl//4sgzJremSho5+jVZg/uzA4LDk1nRKSUOPZFZ2Sk51lwI/jGB/PVwmxQ3d8lVpuxQ39Ejf4JBcLW5TQNbWPSCNHf0aGk6d4fodnXI0I2QE/PxEheqHFWer5FhWs5zIblJD2/47jaoDKZcyAVQAo/FervHvw3sS2n88u1nKmnrkfEGrglKAqdvP5bcIO0Y8ojGcfvOCMHSjgbCvTdjum5f29fvfWCePL7khPx7R7eH6186N58tkooeBsEk+uBOtky0xx9ggRGkQglHR1CNflbRrYgw8WewkySCU7lRus1o3/360XC2K7jpHQujc/yg/lCVbfXu/Wjud18rPA498kaFx+lgpb5S1K0ChLnbmhF0qbNPzWBX53127XNSmFkfqQMk+p+EsE5UpCtZlHfQeAVjMRSBU0HmgAKGUfyKrST8GaBvP4NlDueI9wyrpFKL/Xfz/EyoJsHt7d5Hk13ZJZUuv/OVQqSp85/lTZb08U2n38uY8DW3xlxPk/w2EjY2xIPejtX2sHw2EjdECvgAIeGWr+/3DxenyybFyldvunh8sTpd9txoko6pTnl2VrVEUTsaS0ONIZpOGHOKJ8vIc8pKEUG3dg+rBQseghwj71qiCjXkaKo+nrKVrQEMSqf+51dk6H5ew8OauAf3/no9vyK3yDkGHIKNdNIa3Pn4j55l/hQ4jfBJdQtjhM2lZWiZGQXTH9z6/I8vPVklTR/+4NvvL8/4PEKOcFzfkahnMJQu3o3u8QIvfLhzRD8JoL3SibG9dQfttnrBg918i8JuBMANhgRKCKCKSTxDPzkYIBWGHKB2UDAAHi13f4LCkna9ShYt3h+vsAA0ACwoDRfLmjkK1dOKlInzD6x3yD1CewbvG9tmJCg1bIQ7eu5Okw/s/v/FekVyDjfkBj/qUNvWg5AE9i09WytLTlbL0jGc/XSnLzlTpvvhUpSp0QBnzBjZertG5We5+FCwKnO1Webu8tDlPLZ3+d/H+jyKEdsxlq2vvU2DLJHXa6ZQkR5QqyT+w6BK2Q9KO6SYC8dabaL8NhJlCTTSejLU9BsLGeBoAA1BBhjKnlXmwTm66I94jZByGOiIs2noGZMeNep1Dtcwjk0mYxFbZMjKPzBNqhyzde7tBKpp7FWyFIiKIjMhQ4IEeIrwbwEQ0B+GCtImd0D4MeN19gzpHFz2DsZHEIOXNvXI4o1HBGfLY6TTHI4QrhoBXtiYcedKT9dDdAxjjvQBh3O/OT3WkvsmMk95nuU+B6hcZAoh9/csCpRNH/qf+Hy1Ol/lb8+UfR8tU7/GMt4wg/TYQFty+SxQ+MxBmICxQAhALGh//3f1DCkIIf3DWN47br9ep0Ce05L19xQqI8JoBjjgCtI5mNWnsO4MQj9nKs1WqIKdSBoAwwhjZsG66eqcazChlJluzkUgDJeV/BvAHaCRUBEsoYIoPAu+Ogj6V06zlEPqBgg53H5OuucZx3tb8iCAMUPvSpnw5eKdB6tv7tH18rNC+Z1Zlq5Kkbc+vzdWkHITr1LX1Kah8/cvCqD1t/vdNxP8NhJlCTUS+jKVNBsLGeBoQgaEJr9LOm/Wy/GzlOPmKrAWcHRyZg5tX2yWfnqhQ45dXDvMboIaMBTgBolzEAUapX27I1ay2zOlC9hO2zlIi6J4nloe8Vn89XKqhj0QtMNeMObibr9QKQI9oie6+Idl8tVYWn6rQhBtEJzBvjQgOdBmeKULuV5yrUu+YA0hEKwBwNl2pUWOjn3emAmGh0MToAJe/bDxbgEAMjkSDXCholTsVHaqvOPI/70lII4meyADJ+7pIC395QfjfQNjY+ApCfyViGw2EGQibAAgSkVFdmwBKKKFFpyp0MrIDTghyJjUzd2p4JKEEAh+rou6l7QpwShp7VCn0DQxr5kGUhloMo+CD2QRhvAcKEOWKhdOFF7pwGY4kIOEjgm3RiQp5cHG6AjrvPf7fTjk7+nmPgEhi/dt6BjUDY1F9t2RVdarivFnarnPpUKZkScS7RvZHLLzMGSPdv/vw8JYZ5N8GwkyhBpl/w7XdQNh4nnYyFtkHQPLLS6Iq3t1drDL2SEajECbov8f/v1cOooc+O16uc7gAcIQlfnCgRHUQxiuyCD62NEOBIN4tIiVoC4Yu5D5zi1lzEllL+N93Pr0t6aTQL2xV+Y83DV1Bne/sKdbIheslbRrxENIhmbLtegjMfe+zOxPCBr/96W1ZerpKGtv75ZGR+coutJB3xTu262a9vLIlfxQcuXT27r7JjugmIkoIuQSAEk3x9xF9xZEQTgAiXkDmk2HQ+/hwmRpAw/FuEM4ZCBs/voLQZ4nWRgNhUXx8J0Kn2Zyw8YMdJYRCpW/4zXovTGiubu3VUEXmT4XmOYXCELEAAt4AYaSR3/FVnaYjdiAumj6eTRDm6qfN7rf/iLJee7FaPxCYfO1V/v57o/kfq+2Gy7VaHkCMTIiEOS4+WaFgj7AVQBn0Op3bLK9+WaAfJLHWG03b7sY9BsIm57270R9WZ+z9YSBsIg0jyVhADnO32Aj9Q+ZGy4foEvTQ7fJ2BVLIUsIKiTAgKdSaC9U6RwqvGMk+mBMGoCFNPTJVwdVIqH1r94AmcQKUIZfx3gH+vG0BHAF8BoeHVa8poFuWqdESREEgs4mY8O4ncpoFDx8JnQBC3mtkZSTRFRuhlCy0DDAkPN57H7+JyOB+IklO54YSc+C9YyPRCLqZZ3+/M5SiHgMp//OO6NEjGU0aUfEzjKAWjmiJOSJ893h5Phl/GwgLSOcbCJuoTBmQCHDC5xD8rV0Dah1E0J/Ja5aT2U16DeWFggJQMI+KMBKU3nTDILwgjDBIrKacm2r/zqd3ZMvVUJjkZOGIUwkXPhzwkqH42MjaxXtO9hzv51fa/nspk+QdhOWwpg0g9YeL0nWeF6EupPbPqRlbfwx6EQrKhwZlJxsYMxA2OT/5ecf+DwatDIRNr58AYS7agPUQI8k4dA9y0IEIABvGMcAWRj/mJ1c198rtsnZ5WOcgp6vXhyVMyDy7/lKt/PVImYKirddqda0v1u2qbunT6ywiTXg6qeTxhuG5CzfuLhe1qk4gDBIPFBEgeKGYN73yXJUmWyI7Lztp5snUSHZE1hRz5zmS0IMEGszfAjShD4h4IL085bh7SUtPhkfWkCQ8Es+hK5v0++x49ojCQI+w1AnnHC15D8BbeVOveuPCvVNQzpknbHrjKyj9OpftNBBmICysYJ9LJpxpXQh5gAkx6IR6EAaBtY3zWNiIQ8ea+eq2fLlT0alrr2DlVIvcDPrdC8IAQ8wP23B56h1FdLs8FBs/GQgDUEXaHdjE6sj2i3WhkMBwz/AxQNgHHxPQNhJY45oXsBE2Qlhifl23KlCvlfapFZnCBwRglncidT4hLZEsyzPt27vxnIEwU6h3g+9ms04DYWM8HU5W+s8RBg6QYVt5vloNdf57nMzEsEcCD5XFI+tA0pfIanZS3Ve39Cq4wlCIXCYVPnO+mjoHBK9Ufm0owQc6DMPeG9sLdP6w84Q9vDRD54oxVy2c0ZDQRsAUc8YIJTyY3qhzyagLue7fCTlceS6UmIO2+q97/3dynXdx56EPuqWxs1+Gh0XnJD+2dHw9LgSeI+8FiHx1W4GWQZ3oUcAlIA5dPJv8P9tlGwgbG1+zTetkLd9A2Aw+xu8GM5gnbPxgR0Gg0LDqpVd2qGJAUbi+QQkxERpAwTyxvoEhzT5I+IdTLu7eaI88i3WUbeu1Ok3OAdCZagf4kb6ejWyGXg9V6D1y1LMFqEHBhdtJsLFga/5oOVgjSajhv/eVzfnyzp4iqWgOzX1jDtdkWbCcomYdGLIvkgoZejHxHEsmc9CwWqL8WSMNwEt7d41kpqzv6Fc6PLs6+ixb0dL6btxnIGz8GLsbfWB1xrcPDISF6IkMBBSRLZYwO7/cdP//emOuJudAVmMwY16W/37mS+EtYg1Ftq9K2+TFjaFFigEsyHcX/o4n7FZZ+4hHqUj1Ex4mIg++v+iOJtYgjI/yvvvZHfnh4jvj5oSRSRBZTAQCZQMAvWMEeYyhjBBHPGFELrw5kiiEa4Qsep+ZLDGHA1leHeqtx/0GNK0+HwqJZ31NzlOHu+49Uu+14jZdK43IDQfODISNLRdm64SN52cv/6TKbwNhBsLCCtBEHwAk0yCL4Pav6jRsAkDh2kwGKoADVkpSrpNUgrW9CIEgtIJrpA32Kif3bKQjz+25GbLsPbV8LO09iinSjvURhV5Q163WTm9b+U0YiHqfaruE0BLCScLtV4rbNCtkV9+g5NZ2aRgLi2T672X+gFunjMQahJY4Bejej3d/fXuhzgFjTTASlRTX9ygYI1sXIZtkY/z0eIWGojAHgJBP1h+7WNCq2b+whLLhHcMj5soO6tFAmCnEoPLuZO02EBYKiyOZEKCJ5Uvwwvhlpvsf2cl8LTL35dR0qTErvEx2MjZ0/MfRcl3MGaDHfCw8V0RJECLPPGSXcXH/7UY1uCGP0SdEVKCf0s5VjabBx1M2lh2xUttLSB8hgeF0VghsheayMX8M4yPlYxz70/4SfQbgg0HtO5/dURnP4s/oLM5hXIQ+qy9WK1CdDIhRN2WTWp/IDoxyAEoyPKJP/Tz45MosTa1P5ARtcW03EGYgzM8rqfy/gTADYROEZ1AGxPwt+aG1rEb6EOWBYsNqyORh0tgfSiccsUCzMLHeCl4xskmtuVCj88SeHlmlnmdRSjzvlIWXDlghmT+FQqnv6JsWzSiPjFBkYvQCMFc+5/CCoeBQilgr/btTlIR2XClq1RCU49lNaoVEqfnv9/7vB2DUy9yHtBGLJkCKclGuxOkzOZuPkptl7Qqybld0qLfvz4dKNdsXoBHLJmuesaGQqc+9T1CPBsIMhAWVdydrt4GwEE+r/F6fKywyj5yfTGYii8uaejXBE6nnAW7IbRJkeGWq/zfPIecBYSyBwvpfG6/U6mLMRCUAypg/RUr7o5mNeh8esxul7cI8MOaSXS5s1UgL6tR1wq7U6nM8Q3p6ANVP0sKPUYySl4vbZNOVWvXE0Rbm7qIDCctHngMwSRPPGmcY8jDQ6bnCViluCIVFIvMBVoSe+3kK3UgECAbNUKKNDF265GZZh86D84I36sc7194zKEcyG1WvufIMhBkIc7xgxywxEGYgbIKwDcrAcEIf5QComLelQBfWJJ6+oL5blR7KkevsKFOUSG17aOIzSTrwQOHlIesgqYQ/OFCqygsl4qUDQOaVzaEFNgFi3mvR/Ob5cGDIPcu7RLpOLD6pg9mYt8W7kA0Sxezo4MqK5khdhK+cyWtRoMpC0ayjxs6EcspYsC1f6zuQ3jD6AeI8fizkzH18QOAdg/7R1JvI9xgIG8/zidxX1rbo+spA2BidkHmRZOXjyzM0xByhx1wm7ieiYNPVWgVu0fAcYI/7iMZgbUVNzFHervIR0EUyp+NZTRr9gE4iTf3FghZNhU/YIXPAvCnqAX/Ifj2OpKd37eBdKIPrhDOS1h7dQD14xwBTGB3xrM3fUqCGPkIpSdqB7MfwR/g6xr+jmc06xwtdiFx37+Hqoh4ALJElAD30ANfQr0ROYMRj7TTq5jwhiqxxNjA4rJkhaSPnadczK7Mkq7pTiMBw5bh6gnZkfD3w/gG5Z97yK2PQKvpfFo44Nj6D1vfxaq+BMANhKhzjxVBzUY5TpigK0qwDRI5kNmnseV5Nl4Z1ACZQhCg2t9M2hP78rQUaGtjQ0S8DLFYysqEwSCuMkvIrIRQea7wQgkemQyyPc/Gu1IECZF5CS9eAlDX2qNLEmsiaLLk1TMieOFcgmrYBNFGW0ARluup8lSpU/ofGzJNgA4RBk4V7S/SdoQX0cfcwb8IPWqOpP9HuMRBmCjHReDLW9hgIi46nkWXPrc7WBBd4id7cUajAiMWEa1r7FOREAnD+fkI++hNzcA+RDugYIjSQrxgMNZx7FKRk6pxbznOddhH2h/Fwz616eXZVKKzvmbRszWT410Ol8tGhUjWGkZwK4xx1OxCGziBk/emV2aHzYRJAoUtoA/Om39sXSm7lfR/KI7EI2YbP5bVo2eg/dvQG+oK52Z29Q5rUhP8fW5YhZ3Kbdb009ANlUCY0/A0JS1p7NfkT93rrCtpvA2HRja+g9etcttdAmIGwwAlBwguJQ8diSHz/rfJ2Dasg/r66tU9DL7Bg3iiduGMVJHyOMI36tj757ES5ZqMi/p85UFjsAHb+QYjy2HurXkEY88qmo5D9ZU33f+LtUcBszAvgf9qI9bOtJ6TE8USheKdbNvfj1SK5CEqY8BHCDVGuDoSRcQvlTpIPvICLTlYqEKQd7E7BzqTuRHrGQNjM+CeR+tDaMr4PDYSNp8dk/IH8xJPDhkEP+Yc8xYBHqB76RIGHL0JisvKQiX4QhqEKTxHp3NMrOjTDLJ4qwsqLGrp1PTD0EzqMFPakqOf/G2XtGibOkiGs2YXueWplpvzlUJm2i/BAtuul7eLm5vpBGKBtMv0AMHQgjGgQjH7e96K+ZWcrdQ4yOueFdTnqQeM3Ke3J6uiWTiGcnbB9gFZzV7+GZXqjJCiL0HzehTBJA2FpX7//jXW2TtgMv128fBrU3wbCAtL5lh1xTJkyF4lwkS1Xa9ULhtIgOxUpb09kNwspc1F44XaUACEZhE8QH49i5Rw7VsdwAxnlhWetpq1P8LQRrhEuZj7cs7Gew6LIpG88dgBO1m1xZfKhwKLUOPOYUzAThQatUKbQrm9wSOfSfYgi9oCwQxmNqsCfWJGlc+mw0jK/jjT1v1ofmmPh2hTko4GwMd4Kcj9a28f60UDYGC0m4wtkP+tnkTYeOUgGRSffuYahjm3zNMMSvSAMUIYXi6y2yFbmXuG5IhkSKe5ZL+zlLfkKgHZ+Va/GNaIf0G3oMaejvEAqdD5LQ/BpH8YyyuY94wXC0CkkaSJZCaCJeWSEUAIUWdA5s7JTjmU1a4giYJWEJm/vLtK5behYskB69SrvQSQKiUEMhH3taxaOOPX4nGzcJst5A2EGwkY/6oPC1FgnmRiNVRGlg2AnUYQDYX5Lnve9UAgoNxQEnh0Umfd6uN9Y8sjEyMYaKy7uPdy98TxHPQv3Fmtcf051p1oQvV4n2k7cP8qsd2BIJ3E7ekzVDp5FwTJZnLBMJqNjBQXkcR46OU+YA2GUyTUmZbv1bbBorjhXlRTeMANhU4+FqfjKricWDQ2ERe4PdAUgiDnEeG7e2V00wROETHVREERfIBsj6RjGgNcTRuQFHiOy2wJo0F0YsNhYDgRPVEjmhkK8yfiLJ8y7wPFk44pw8nf2FGtZrFuJLuTeeIGwR5ZlavSFViCiAIwlSoiWICLludU52n5S6WMUBZgxR6yjZ0Df0U8n/ieKBf17sbB1SjpO9t6Jct7CESOPr0Tpp0Ruh4EwA2FTgpBEY2CvNZC2oXjwbtW29aknzC/4ve33grD9d6YGYcwrI30va2JhvXSWRm+Zs/GbMD8AWG1rn877Ajg6Beutj/awfhgTptkIK2HSNQDOTyf3HOUAttZcqNY5CXgPeUee4YMgdEzXcBrKPJwZ8oS556kT8HejNJQ9kQ8G5uVNtl6Mey7RjwbCTKEmOo9Ot30GwibnafTEy5vyJKOqU5o7+zWsLpwMQ14i726Xh+Qdc6xe/7JQZeVkRjwHwjBSMS8Lz8+qkcWfmSOFB4m086SUx6iFoY9n0E+AMDbOh5P5Xh7gHRadqtD7Kd/d7wVhp3ObBX0C+EO++/fvfXZHvWmEo4cLR+QdmZP2ybFy/VYgIgIdQF3u/amPNPR/3FusRkEAFmuzcQ8A07UL+nLP8PCwhirOlT710iyevw2ETT6+4knnZC7LQJiBsMCBMP+ARMiTTrird0jj+UnnzrlwO9mnCBPBEhcNCENJ7LvTIHVt/aMLZvrrj+f/KFU8fSzqTPZG0h2TajjcPDVX72PLMzXMpbA+lGaYtXDWXqzReVzcg2J39/I+apUtatPkJGRFdHTiwwJAxr7zRr1mTkS7b7lWO6F+lCqLhObXdukHwOcnK3Q+nasniEcDYaZQg8i3kdpsIGwiT4eAQYZ8erxcDXcswRFKuT4mJ/00RYb+elOezjdG4BGeRyg4xivudSDDPcf/ZJfFQEUyp3WXqhX8cD/JlABneIzSKzulrWdQjWeEQSL711+u0WVUnl+Xq8YyZ0wD1BAKz9HVw1wvt2g03jXXDgfCiHLAgEgoO+noCSf07wAmMhV29w+GBWHUhWEuknGTegm3PJsXWreSOcSc+9WGPMFD996+EtUXtH3z1RrVGXgBXXvd+wTtaCBs4vgKWh/e7fYaCDMQNirQ7zYzzrR+QATAggUuUajMoWKR4XA7661gMUQ5ojAi1Yn1kEnHxO4v3FesiijS/bFcQxm592AdM7IgsrYM4CsaRYUllfXRsKy6jUVAL+S3yu+2F4bmx63M0g8PlPa6izVquUSxepU8Mfzbr9dpaA7l8AGB5ZK2+d8Pq+bHh8vUyssaYt4J2P57g/C/gTBTqEHg0+m00UDYGE/jaQJMEGZ9JKNRsx7idfpx2kQQFY7GGLB+sS5nNAkF8rGjZ1BulXcoeHFylGepCyDCtYMZjeqFIlqDxEaEj7+4MU/bgoeNlPUY3Jj3W9/ep6GRhC6SQfFwRpPO9Tqd0yw51V167xvbC9QTRX2AGkAd24nsUEIR6ncgjPm7gC7S0QMiyXLr32knyUgIaUffRQJbFLyGHAAAIABJREFU4eiCbmDONOucsT4nqfnRWXjJKBsvGqCT8vEKMocZ3USCDudJC1duEM4ZCBsbX0Hor0Rso4EwA2ETPq4TkVEjtQkl8M6uIuntH1KFBMjCExRuJwRvx1f1OoH4WnH7pO+OwkXZoeBYOyxcmEqkNk33GhO28Xqx7hYA6Vfrc8MCn0jlovhQeqwnBsjs7BuUnV/VqZdQFXZallpff7YmWwCY3o8GVy5KkbCV5WcrpaG9X9Mpo+gjKUsSe+AVi3SPKz+RjwbCTKEmMn/OpG0GwkI8jaxj3jDeKxaj332rQcFYOONSJDoj4wBYy89WaSZZwA8LM6Mj/M8hj/F8sQ4XmRfTKztk/aUaTYXvDGuURxtIiZ92vkqjD0h8gezFqEiIoNvO57dqFId71tVHinrAT8hoN/K+K7J0rhvPklZ+qhT1JLpio53TMaaRwOSdPaFFrddcqFHa+PUA5bEeGWtSsgFcMZBCR/cOQT0aCAt+H95t3jMQZiAs8IIQpfT69kI5l98qf9hbLD9akq5AAjDh3wlVBKiwwDBeH5cFyzsQUSKAiq3XajWMAuup93o8fwP2CNU4ltWk6YcJPUQp+xVttHXyHBkfCTP857EytZh6PzT4PZXy44OF0BKstawPM9X9vINf8Ubb3kS6z0CYKdRE4sd4tMVAWGgtSebU7r/TqKF+mnVwZI2rmdAYWYe3COMTIXXIyMmAC/KWZBwH7jRopMJk8pfz6BnWBCPFO/PG8FgRoojnjp05V8haf5s598yqbA1ldNeQ4YQzElXxzu7iiPqEetPOV8uRjCZ5aRNrk0UnB6ADupQEV385GAprn0wPqAdyS77su92oRkHqCGcEdO0PytFAWHS8EpT+vBvtNBBmIGyCUL8bjBhrnQh0BSBRKhDunUxhuLagKLzzqdz5eB9pO/WwT9WmaOt25UV7v/++UJuSQ1H6322y/w2EmUKdjDeCet5A2BhPO3keLciYqs8pR/XIFN8QyPSQPB5ry2RlI3dD94eMX2NtjqwbeC5cmQC0aN6X9kWjE8PVEa2u4b2mo6PD1ZVo5wyEhee7ROunRG6PgbBJhFeidZqtE2aDPdF4MtnaYyDMxliy8bSBMOPpZOPpRHofA2E2vmLlRwNhBsLCWtBiZSx73oRT0HjAQJjxbNB4dqr2Gggznp6KR+z6zHnEQNjMaWd8F6KdgTADYQbCAsIDJrRmV+AbCJtd+hr/zj19DYTNPc2Nz1OH5gbCUqevZ2tcGwgLyAe4hSPaYJ8tIWDlhnjLQJiNsWQbCwbCjKeTjacT6X0MhNn4ipUfDYQZCDNPWEB4INbBbs9HVhgGwiLTx/gnePQxEBa8PrNxFpw+MxAWnL5K1HFlICwgH+DmCbPBnqhCJFnaZSDMxliy8LJ7DwNhxtOOF+wYf14wEBZ/mqYanxoIMxBmnrCA8ECqCae5fl8DYaZQ55rnZrs+A2HG07PNY6lcvoEwG1+x8r+BsIB8gJsnzAZ7rIPdno/MQwbCItPH+Cd49DEQFrw+s3EWnD4zEBacvkrUcWUgzECYecICwgOJKkSSpV0GwkyhJgsvu/cwEGY87XjBjvHnBQNh8adpqvGpgbCAfICbJ8wGe6oJp7l+XwNhNsbmmudmuz4DYcbTs81jqVy+gTAbX7Hyv4EwA2HmCQsID8Q62O35yArDQFhk+hj/BI8+BsKC12c2zoLTZwbCgtNXiTquDIQF5APcPGE22BNViCRLuwyE2RhLFl5272EgzHja8YId488LBsLiT9NU41MDYQbCzBMWEB5INeE01+9rIMwU6lzz3GzXZyDMeHq2eSyVyzcQZuMrVv43EBaQD3DzhNlgj3Ww2/ORechAWGT6GP8Ejz4GwoLXZzbOgtNnBsKC01eJOq4MhBkIM09YQHggUYVIsrTLQJgp1GThZfceBsKMpx0v2DH+vGAgLP40TTU+NRAWkA9w84TZYE814TTX72sgzMbYXPPcbNdnIMx4erZ5LJXLNxBm4ytW/jcQZiDMPGEB4YFYB7s9H1lhGAiLTB/jn+DRx0BY8PrMxllw+sxAWHD6KlHHlYGwgHyAmyfMBnuiCpFkaZeBMBtjycLL7j0MhBlPO16wY/x5wUBY/GmaanxqIMxAmHnCAsIDqSac5vp9DYSZQp1rnpvt+gyEGU/PNo+lcvkGwmx8xcr/BsIC8gFunjAb7LEOdns+Mg8ZCItMH+Of4NHHQFjw+szGWXD6zEBYcPoqUceVgTADYeYJCwgPJKoQSZZ2GQgzhZosvOzew0CY8bTjBTvGnxcMhMWfpqnGpwbCAvIBbp4wG+ypJpzm+n0NhNkYm2uem+36DIQZT882j6Vy+QbCbHzFyv8GwgyEmScsIDwQ62C35yMrDANhkelj/BM8+hgIC16f2TgLTp8ZCAtOXyXquDIQFpAPcPOE2WBPVCGSLO0yEGZjLFl42b2HgTDjaccLdow/LxgIiz9NU41PDYQZCDNPWEB4INWE01y/r4EwU6hzzXOzXZ+BMOPp2eaxVC7fQJiNr1j530BYQD7AzRNmgz3WwW7PR+YhA2GR6WP8Ezz6GAgLXp/ZOAtOnxkIC05fJeq4MhBmIMw8YQHhgUQVIsnSLgNhplCThZfdexgIM552vGDH+POCgbD40zTV+NRAWEA+wM0TZoM91YTTXL+vgTAbY3PNc7Ndn4Ew4+nZ5rFULt9AmI2vWPnfQJiBMPOEBYQHYh3s9nxkhWEgLDJ9jH+CRx8DYcHrMxtnwekzA2HB6atEHVcGwgLyAW6eMBvsiSpEkqVdBsJsjCULL7v3MBBmPO14wY7x5wUDYfGnaarxqYEwA2HmCQsID6SacJrr9zUQZgp1rnlutuszEGY8Pds8lsrlGwiz8RUr/6ckCHtqRWTGeWJ5ZkRg8tiyTHlyijJi7Rj/8+YJi9xnfnrZ/0av6fKAgbDYeObJFZny6LJMeWoSowZyFdk53X7x3085j0eQ0Vx7PA71+OsN4v8GwmLj6SD2ubV57vo8CCAMeYxcnuq7drp8g5wNV2a85LxrD+VF+mZHp0TSB66cqY5Kp6WT1xWvevztSDgQ9tzqbHk6LUuJ6lXmgJ5wHe5/Ie6jQyYDSXTmrzfmyU/SssOW9+yqbPnT/hL9UPDXx7M/XZ0tGy7XyG93FMb8MeFve6T/DYTNnWCN1A92LXn7wUDYzPsWBfX27iLZdr1OfrYmR2W4d6wA0N7bVyzrL9WoDPVem85vZDvlfHaifEIdlIOM/vR4hXxxulKeW5MTUXlPp96g3msgbOY8HdQ+t3bPXZ8nOggLfbPmyLZrdbJwb3Fc5CHf5c+kZaucfXdP8Tg5/NSKTHn/QImkna+WZ9KyJjXIRcujyPv395fIC+tzw37TgxU2Xq6Vz09WqN7xYoZo6+A+6ITe+vJ6nbyyJV/QV+55ygQXrL5QLX8/Wi4/WZU9es3dE8sxoUAYoGftxRq5VtIuf9gzxjCcf3Nnoby5o1AeXJIRYU+Xn6/JkY+PlMnza3PlCQ8hHaEh9sE7jXKtuE0WbCuYAMRgnIuFrXKzrF2BFhYER2A+NGhD78CQtHYPyO93FcXFsuvKj3Q0EDZ3gjVSP9i15O0HA2Ez79tHl2bI2gvVwpZV3Sm/2ZQ3TrY+/EWGnMpp1uuXi9oUiM1EYSL/996ql6HhYTmX3xIqxxOVEAJpJTI0LEI9yPtUHrMGwlK7/1OZ9+fi3RMdhOGMwGHQ0z8kHb2DsuhkRcxeI8r81YZcqWjula6+QfnsePnodzDf6qdzQ3L+QHpjTPKXen6+NkfyarukrKlHjXx+xwh9nF7RIYNDw7LrRv048DSd/qcuvu2Hh0WqWnrltS8LRtuuoHNVtuob6jmZ3SyAzXjploQAYbwkROAIygQA9fYPybKzVYJyf2hJhuy5VS8tXQNyNq9FiYEC9u9cy6nuUkV/p6JDGcVPKP7HE1bT2ie1bX2ycG/JuI57go5fkyOljT3S1DkgHxwoGWXaJ5Znyb7bDTI0NCwbLtXI8+tCQI+2T6fDZ3KvgbDZp/FM+sWeSZ5+MRA2s75E/j2/Nkdya7pkWERWnqtS66gDWSjOlzfnSV1bn8rm3TdRltOvC+sk1krq4aMCb9dPVo23tgLCfr+zSOv59Hj5OCDIWKUMdr9eSNZxbCBs+nyWrLxg7xV/Xkh0EIbj4Exui8pDZOZfD5WOfs/OlB+Q52/vKlLggyx+eXO+ylNk6k9X5+h3dUtXv/z5YOm4b+vp1kfbcXTQ7sbOfnl3d7E8uXxiH94u71CA+eq2ghnXh7PlaGaT0ul8Qav8Yl3OuLLAIXjC2MAEDgzyzrHqk4QAYSjWFzfkyaNLM+WRpRnyx73F2sGHMxrlNxvz5LfbC9VNODgkSog3viyUN3cWjdvf0v8L5Y3thbJga4EiWUIHw3U8nYsCZ7tR1j5KUHcvVtu1F0MEP57VrJ43Phrmb82X5q5+STtfJY8tDcWhPrcmW34BGIswR8GVG8vRQNjEwRcLPe1Zo6efBwyEzYwnkI3ztuRL38CQ5NZ0jwNg0BgFtuJslcrbK0Vtcj6/JWwUgr8//P8zz+utnYUyMDgsV4vb5YeL0+XBJelqpMNQx/6DReny0eEyrWv+lnz5/qI7eh4PGnIdS/DWq3Vq8EsFIGYgbGY87ec9+9/oGI4HEhmEASw+OlyqkVs4HU7mNGs0QsgQNfP+RA4fSm9UGQsgQb5Dm0eWZsrikxV6/lBGo343h6MZ5yiDdkx2nfOPLcuQz06EysP54erxP4PDpbq1T50rU5Xpf5b/nRGRMpq7BtRz+PcjZRpl4eYWozuWnAphBhxFGBgx+L2zu0gwKuKxmykGuOsgDLfeS5vyNDzQWTYh5PbrdYqCIT4xoVhXO3sHdb4WBIEA43YmhI/MB4MYkSytXH9tW4G6UnNru7QczlEeR0Aabcqu7pSPj5TLj5akKzjE00Z7AIoARqy/p3Kb5XpJuwDGItUZrvOncy5eIOzxxdeFsp5OY96G7UYD4wHHA08tz5BvvrlZ7p2/8qGvzWC7Z96K/d97b6+gmKcztoN+LzJz45Ua9YJ9crxiXFIMp+CKG3qkrWdAwxS3XquTr0rbdV7udJQm9WAAYyM2/8ODpTofYNOVWnE77cio7NR7MOIxf9dd23mjXj9IuLj7Vn3cY/sTsR/jA8IOyjOr801fmL40HvDxAOPigfcPyj3zll+Zgcr42n3z0r5+/xvr5PElN+THaeGdBjORK8jVZ1dnS2ZVpwwMDSuYQX7yvYv8BVzMxAgF+GCubXVrr5Q0dI/M1QolY2L6z6XCVmnvGVTHCd/RyH/vTp20g9A/QhqfjOC8eGYV7e+Q7v6hkXla4YEjIKyho19e3pQ3JbALR0vwBPOI2fbcblBj3Zm8FrlS3KbGRdrLPc5xA+CCDuCAHV/V63N4z2Y6B/mugzCIAkOsOBdSrrgECQnkHKGCeKL4vfp8tYKm5Weq1NP1+pcF4t2ZTLfybJVcLW5TRDwVgzGhD68Zz8EM5/NbJaemSz1jfCBcL2nT0MabZR1S3NCtcamVzb2SXtmhoAvghbInRJL5YSj4cB0cr3OxgrD7X1vzr996a6t8+w875bt/3CPf/eNu240GxgMeHvjOH3fLt9/dIfcuWPHYTBRqqoIwZBzh28jHX+oE6jELJ9bMvbcaVFF9caZSs3Q9vy5HPwaOZDbphGeUXDRyksngzA3Ir+tWK+UHB0vlcHqTLDtTJR8eLNHwF47n8lsVEK46X62hI4TF/OVQqXxwoFTnGjOZHAtmvCdYR/MOc31PrCDsnvkrMxgT311oOsN0pn0zTOCBhXtUZ9yzYGX6THTGbICwENDJkj03QwCBZBPOwfDu7iL19my7VqvnpmMEQ3Y9vDRDlp0JeYQ2X6lVcMJ5yidCjdBBvp+ZE0yYovcbnd/ztxbIP4+VK7DKquqUVzaPT4Lh5CPA7bUvC3Vu70GdWza5jrhV3iHdfUNatvd90CsAQVdmuCP1EDGXUdkhTZ39CirBGy9uzJP69j6pae1Vxw8RFl4QRtlMa2po79f78JIBeqfCHeHakBAgDDSM8q5u6dV5A+5FCF1BeUIAFGr/4JACHwDThYLxOwgcIjKxjthNPFXhXth7DvcmBAfV/mFvsfzjaPlILGhobhrX/n60TBU6GVjoUBQ3mVLYXbgjgI4PBG/Z8f4dKwj7+usr/9f731i/8Z75K2w3GhgPTMID//7mpo33z1vxrzNRqKkIwrAGLj5VKf2Dw7L2Uo088kUoNAX5h7wkpr+7b1AuF7WGwhRHohVIvERkA0Y3ZOlUQIy5AO/tKxGEMaGNyPeQhTVkpaRe5DXt2f5VnXq8SLykURMj59ErhOi4D5J4y+hELC9WEHbv/JXv3//aWpMXk8gL06f2PcH4uHdB2nsz0RnxBmF8ywJE+F4eHh7WHAp8pyIrkU+PLguFZPcNDukUH+TuVLLXyTX9Ll+RpSALzxPf7ESycZ0ytlytlb6BYU1sV1jfrVOKLvq+0/luJ/EdSZPY8UC5731XD0fk9onsJgVXTDXyginqcu/DveFAGNcXbM3XuWveZ7118Juy/nYkFL6+7mKN6gZXP1EVbHjauA89x4YnjDJ332qQssYeBZoOR/jLj+b/hABhNBTlSRwpKBpwtOpCtRL36RH0DbAiuwvzxX7w+fh5AA8uzlAioejr2vvDAiI6GsKhvCmfTiaelSwoKHiIjHKGYffcbFB3KoCLbI24XQlPxGPGDvOh6HFZvohLdQaTzKPpHO89sYKwmQgIe8YoYBSIngKpBsKQeyTGSK/oVOMX0QDIT2Qt8pTJzUQRFNX3TAg9eWwkEy4fCmSqxXKK1wwZ7JV77jf6QT1cwyJ/O1qm9/LBgYxec6FaPjlernL5hfU5qkdIEAJoow0vrMtVZXyrrF0NdDznyk32Y6wgLHrutzuNAkaB6VIgniDMyd20c1U6b5ZIredWT5yrhCxFZrIhe3+3o1ANWFMBCa4TQUCGQMK8naym3l9vzNUwxP13GuQ7n95WQxlzhDGOufm64Y7hABL1EKHW3DkgX5W0jwI9ZDXXSLVPxkeX/ZxEfrSJxBzoHUcHHDMY+tANXg+ZV+ajCwrqu9Vox9JU7j7KIPFeY0e/JoLifwfC0HEL95VoFmDyRIQMguH1lreuyX4nDAiDeIAbQBcdQGjLohMVCpxgGi8I+344ELYsU62tTEB82ueV4mOBskG8dAhZsyiPUEJiW8mmpZ23MrRWADG0IHk68UZpu2ZrJD6UUEe3cw9pkpeeqRztuMmIHI/zBsKmK97sfqPA3FIg1UAYMhNDVu8AkEeko2dQFTqKlegGvFx5Nd1C+CEyHNnulYWcW3epRhUoxrOlZ6o0+RGK2ylY7qe8N7YXaNg39dyu6FBrJAoTEIacZtkQQsSRzzfK2tV6yVIn/I/F1WXNLazrVl3glK23Pcn420DY3MoAq80oMB0KxAuEIc+Qr6zDCCAhiuznLNMUxqgF8OA8eRYIHyTNPJFehAsCrJDLgA6/PCQ7uFtmpK69T7+jSVCHU+PAnQb9liaRHpFreJUAYSz55C9nqv+R94A8NiIsLuS3COsH0yaizg6lN2nouQNwTBkiSo5lrHgvzvOtPzg8LF19Q0LoJTkb/O+EI4YM7GxoMObPoavcfeCGVecJdS+VHyweC0ckcgMcAXilLv4nNBGAONW7hbueECAMBuIliDHddLlW8mu7FAS5BsMU3nDEc3ktwkS40T0/5OIkHNGBMK+1E2LiwcIVSmYuANium/XKJEUNPUpMOo9nyNTItvhkpTzw+R1lSD4KaIPbYToQ9pHMRoExvXW5Nsf7aCBsOqLN7jUKzD0FUg2EoayyKjs1WVFNW5/OC8PrhGLaerVWgQ+ZY4mXxyvFXF/kIvIeQxsRBygyYu2JcmDD8kgWLyIU+CAIfTBkye4bofkN3EPGLP1QGPGEEfLCciLcy5wFrqFgnbwmiyLzwFC0fKTMVFnGW6bPRXkGwuZeDliNRoFoKRArCAvJRyK4cnTJps7eAdl2vVbBCvIPGRpuR07iUeJbuKi+W2UvCTVY9olwbyITHBhBTvF9jBcM+Yys5l5kN3UgqytbenXqDrIfj9dkIIwykf/s4eQf5/FoIc+pC5lNkr7Qc1k6Z6uiuUf+crBU9QygjDnCgC1AJfX/elOepskvb+rVyDne1V8X9aCbeHfWO2NjfWF0A8CR6UUY+KAvdXCeucdsGobJ+ZWhdcxYN6y8qSc0Jy0M6PXX7f8/IUAYjeKF6TgIz7bmYvUoiqejAWEgdhiETiJtvdtJsMG6BddL29QaChEhnJeJIDp1cB6lTEplGGnT1VplJNoAwR0I+/xEhbpVwy0ODZNhQaCNhEL6iTob/xsIi1as2X1GgbtDgVQCYYRgYCVEif1sbY4qMhQRllBCuPE+YVhDduOFQl6uPF8tT44odKyuGLKYWwBAY04uoYv5td3y3r5iDaNBHiPDkdWEphA6g8WTid2Ui5zFY0YYJKmFMYj9aEmGpkb2ym2MaW/vLlKFTpg7HxSzIaMTsUwDYXdHFlitRoFoKBALCANcIcs+OlQqBXVdKj/TzlXrelpkFMeD8+GBiTthdxjGiOYCgJD34HROi/7Ptzd5FW6Wd+g3tVuUmO/nr0radCFmpuGwbhcyGAfHmdxmIQyRe5CBXhCGA2NMFqfrN/bmq7XaLifDvXITeU7OB7xSx7JC63YBuABS1MW3P54+LwiraOrVpaOOZYYWUWaOGEANzxj1e8t3v5kbTEgmOuuvI0uavLunSNsOmCtp7NFoCqZHsV8raZOShh7FJpTvzhMKyb3Q8Xh2c9ipUK7OyY4JA8JoIB4mOoht4b5iRbWcx6q58UqtKnIY6OEloUnYoFN20C+dRzYW3JYQg90PxFSpj2RyAcARPkO5Tik7EIYLNKu6S5kAq2y4HUYglAaGm4y48TxvICwakWb3GAXuHgVSBYSh/AFGBXXd8sH+ElXGRCCgpDCkkaUWOYxcZQeEYVwjExZymnMsEYIRDGXm5DgWRnbKd7ITsHc8q0nDColOGBoSDQVxChzdwAcFE8JP57bIiTDymgy7N0rbVa9gzHPy3tWRzEcDYXdPHljNRoGpKDBTEIaMfGdPkQIWEkcsOV2pKdKZHsMCymSk5duW7+nJdkL+NlyulT+PLOAMaMus7JSjmY3y8zU5oyHhyOBPjpULy4xw/nRusxq9SPJBpkSWbiI9uxeEsc7u0NCwhi+672e+yQEwbHiuWGZkvKwnVXy5AiOSKrnoB0ILkffMGSZvBBs4gO9+vFHokRPZzZpSHgDHbyLfJpPznCdhFN47ckwA7Nj4jS5CH+DU4Z34n/t/tDh93Jww2s159lEM4tFb09EpCQXCeCHWdgGhv7M7RBAsoc+uztE4fwhFWkvmADgk6j0S/w8yJSyRff2lUBpOP0EgYCQQNjQsGmJDBi/mPITbiXddf9lA2FRCxq4bBVKFAqkCwkjFS5IMwA+GM+QpIIz08UyYfnzZ2JwCZDofBQA0QhVR1JxzIIxQQv5HRnPNKXL+R8myODPPA/pQ2lhpicf3grClpyuls3dIF2n+Uxh5zSRqDGaEthB+4+rz64Vk/N9AWKpIH3vPIFJgJiAMGUm4IN4nQrN/tSEUcRCSn6GQPWQnC9mPeaG8Hinv73SV4cg+QNUL63M1uZKTw3x/E9FACnfAGlEFgC4iD5D9gLgXN44HPM4TRtQCS4Z4v5+JegAA8X2PTMe7Rd0cMcClV3YKUWiAHtbkZQOE/XBRup4HG+AkIWMi9RNRwUaoIM8eyWgc1THh5Dn1AK6YM0doOsAOncXmBWEAK97dlYGxz5uiHoeNuxbrMaFAGMoc1x45/wFJ/M8LojQJV0Hx77pRr+ErhA0SXhhud894iegl1FQgjA7hA4OOpzP8+xPLMtUrZyAsiGLP2mwUmB0KpAII02iBtTmaWhhFj1x1IIzQDhSpU+BODhOyyDpi7poXhGFQCweKXFQCRjmU8sNLM7XOyUBYW/eg6gKyLtIe7/7QFxmqYA2ELf/Ps8P5VqpRwCgwEwrMBIQhV/EAsSM7HZDhPDKZUDu+fZGhEfeRRBeUw7PslOX9bkaOss7YF6dZFiQE3hwIo24t3wNWKMOBMBwVhDN6ZbH3t7fd6IzlZ6t0mRN+U5cXhOk6XacqdQkrPGt892OII7KBDcMcqe/JWg74dO/jP0IfwNa2a3WhuV7LM3Vumx+E+Z+LBoTxbl7a+cuY7P+EAGHKOEsz5KEv0hXR4t0CfT+0JITS6ZAfLs5QhF7X1icNHX2aLYvO5pp3p2PY/3m8XF2W4VbkhliRPGFuAjfrAdAO/868h95+84TNROjYM0aBZKVAKoAwFAmK1wEw/kee4gkDhBEG4gdhZNIilCWcJywSCEP+YvGkDsDVZ8crJvWEtXYP6n3Ifq8+4DdWVZeYwzxhyTr67L2MAsGjwExBWLgPepwFhBgSkkjSCf93q/9/PFEkqsOxoVN3PGDMlQ+oWLA1lPqdc3jWvCDM3ec9ekFYtNkRAYKkewdcUSf6xQvCkOuAtvlb8jUkkt8AI0IP8Y4BrJiLjMeOpBpegOdtG7/ddeoBSJJgxIGwcJgCHYIH8POTFXof7+TVM/ymvYBIDbmfZljiXQVhKHPSO+KuZNG2xScrZNHJCgVieKLIy8/O70+4fqpC5xZUtfTqfe6694jVlBhY0seTyIO5ZX5L61QgrG9wWCec84FAanr/TtijzQkLnsCzFhsFZpMCqQLC/EotEggj3INJ3BcKWkbnzyKPXTjiZCCMOtAPlM1vjpOBMMJEiJ4g3bBXF7jfhOyQDdc8YeYJm83xb2UbBaZLgXiCMMAA4d18+7JGGMmR/N+u7n+ukfyCjWyHJLfzfyc7Oe89Hy8QBmjxe41wmLhz4UAY7aEtACx20skTOccyU6zdBYhr7xkxHr7+AAAgAElEQVTQNbyc3nDv4D2iV9z/lOdAGPPM/nywNIRFPPgDPYKnjbnJbCQHdLqFI/PY9t0OzVUjJJ85Zqw97OqY6njXQRiolJWpmcsFeCIzSdr56nE7StZN6HNMw0rV3AtBcEm6Z/jNeSYq8hwEdh3riEEHwXQk5tgQJjEHdaC4/+OT25pJkWyK3v3BxenSbZ6w6cobu98okNQUMBA23hOGgiN9MZOwSZhBWCAyWM+PJOaIBMKcvOY4FQgj+yKWUKcHvEcslAfuNBoIe8FAWFILIHu5wFEgniAMj83pvBZdqJk5V99flK7ZAXWJJZbs8OxMtSE6ALnJ2l/IVy848cpe7+/pgjCiIijb7YCrZ1Zl6zf682tJ5hEerEwGwlxbCLn8455i9YLhDQOAkgwKnHCjlAWew5frnndHLwhbuLdEE0uBRcic6NUhzDkjKyQb84u918AcK8AcpyrVC/n69oJJ38vV6z3eVRBGQxyx8IhBWFyM3v37i+6o1ZRUxoS81Lb1abYt4kKZWMczhJt4n/H+hsjeF+Y315nQR0atLVfrNHxF2zKSoh5LAkr7/X0l8pdDpRN2UoLybJDmhH3r9fX/zX2/Xfdv9y1Is91oYDwwGQ/8dtO//b9vbvrvZ6LNDYSNB2EoUqyEhIuQRh65i5yNNwgjMQfhiCh0gJ5X/vOb+QSscWOesOmDsHsXrPi/TW+YzrTvhgg88Nt1/3b/a6v/r5nojLiCsJEQPuZi8e3Kt7H/29f9T+ginh9A2N5bjaMGMnd9smO0IAyD2MDgsPz18Pjv5w8OlmrmcsDM7fIOeXFDXljAMhUII8vu7puhxB2ErCP7AZlE0jFv+OPDZaPf9ZO9C+e9IIxEfABZsAhlefXI9z67o44Z2k3oZDg94+4PhzkiteGugzDXuHAonI54d2+x1LX36+LNMA3zDtIrOjTmldSct8raNcsKxJsMVY/WsYI0+Jka/nijtE3XVUiv7NDnYUraQMIPsiPiroWRNrGAdJidDC0sGu1iWF0ds3WMNUX9N15b8a/ffHOz3P/6Wrnv9bV65LftRgPjgTEe+Nbb2+S+eWmPzkShGggbD8KIr995s16zWbFuDdZQ5ONsgDASc7BgKQtCowe8+yNLMzWZk4GwmYCwtFvf/N0m0xmmK+1bIQwP8C2l4+PVtJsz0RnxBmGkpp8uCNt/u3HUQDbV9+t0QBhTdohu838/M2+Nb2ucGERKhPtujwTCuP/FjXkaRokzxrWZ879Yl6NZeglRJIOk0znuHv/RC8JcdsRwWASAlRLZER2BIAIvDTIl1TxzwPBcMVG7srlX09Tj5iTbVl5Nt84Tw0X4yw25oeww4QBZWpa8tClP108gPIaVwXGH4krMq+2St3YVaYpOwiNbuwc0Hed3P7uj8xj4mPDutA0ASNjj02nZo0zg2j8bx1hB2L2vrfyX+15bIw/945w8vuQreWzxdduNBsYDHh549LMrgqHi3vkrH5qJQjUQNgbCkM+sKVPe1CtZ1Z3jZGS8QdgXLDw6OKyhKCR1IhzFu18vaVcZjxUTeT9dS+VsyPO5KjPWFPXfeGXF1e8u3CuPL7lpssIjK0x/2vcDPMC4YHzcM2/5lZnojGQGYYBBPEreb2f/78lkcSQQBrA6mtmk84BZkJl7nTzFGUNiEjYWWAYzRAJi4UCYK8t7TCkQhvIG0f7jWLm09w5qtpMFW/OV0GTeciCMDCUQ95cb8tStCdEJVwRh4zFj0h5xourhGokPvVYSWrCT2E4ITAcQDrnxcq0Q7rj1Wq3GyTKxDqLTuezU49/xqLmsKLh9uc+FVno7L16/4wXCEBzPrMqRHwMebTcaGA+M8sCTy9MNhHkmLUcru5CN/uyIyEPi6HsJjdlfMg74IHejSczhrZ86JkvMQTginjAULlm+0A3enfpYP8x5wtAJXr3grSfZfscOwpZdfeD9A/LM6rzRcWJ6w3Sn8UCIBxgXjI9EAWF7Rjxh7+4u1jwGgJJwO3kNcHIQjhhvTxjfznxTA8KQwzORqeiP0eyIR0OLNVMO74I+cXOA/SGXfIP/ZFWWOknABES0YQzU7/Mwus1AmIcoOoFvWaam1WTVa7xRu2/W62Q7CAUw84MwOoVrZEYBfLV0DSgCxg1K2OKtsg5d4+Bna3P0PibeMXGR+wlb4Xk6jf2fx8p1vllb98DogtBHMppk960GTf6BK9K7b7lWKwduN8iBOw2asvNIZpNmZ2FdhJkw3VTPxA2ELbo2Z967qd7Jrs9MQBndZoduTy67YyDMI5Oj5TM/CEMJM5e2rWdQF0fmurcsZHYsIAwD3Q8W3VEjGKmDF52o0Dlh1PHwyBIlGMjcTlIll6KeJB2EnG+9Vqf6hLZ425Zsv+MFwign2Whj7zM7cjSV6Mq4SBQQhrwjPI+cBjnVXZoZEW9QuJ0M3zk1XXrvsazm0cy1U/WdNxwRQ5b/fr6lmVNFlsbu/sGYQBihlWyLTlaOOEUyNNEeBr9jmU1hwxhpD/qGOcB8y7Pl13apPiJU0d9e5L/Ljkgm9XDvxDPoNDIhsmHsCxey6C872v8TYk4Y6PbZ1dmy4VLNKHh6e3eRAifAGS/jBWEwjxdhcw2ky7oHhzOaRsHY4cwmzdsPY4TKCJXl/ndEgqB0HGsrEK5yuahVFxclxT1hLlNtFU29grcunh3j2uaOBsJMYThesOPs8IKBsJnRlTW8UIyVzT2qoP56uEwK67pHAZhf3sYKwtLOV6lSRSmSxfZMbotOxl55rloNZXjGvDtK3FlVWReH9M1shKG/tDn8xPBkGWMGwmbG08nS//Yes9v/iQbCzhe0qmz7+5EyeXZ1jn7T8l3r359bnSMfHynTe8lQC7iKhld+tDhDTue2qIENsOX/5kXWY+S6UdquS0R5v9P///a+LEqu6srSH92r+6+7P+qve63+qO6qWvXX1Z9dhYRxlQ2ewEgMJYHBBiPbSEoQ82BhwMaAbYQkpEylUvOYGtEIAiEJTWgglfM8z/M8D6fXPpE3FRmKiIzImN59b8daL1/ki/fuu+/cfc95+55zz42kfHMO3ucNCUPWQWRzxJQk6Gwk5MC0oUC7Yq7FHtfDaYLcDfjAPm251HTHdbBFL2SX6znbLjXPitgILA/ePZSG5wt8bv9zo/2eUhIGIQIMMJgXy3vkdEGHvHu8RkNKAkcoQbQwGa+tb0zqu0Y0IUbgw+IcuCeRfv4PJ2sE6w7gWOB5of5HfdB4iFvFfDEQQbg+8VLxwelaXawNC7YFbgAHrgtVbjyOk4RF3o7xkDfL8J68ScKib3PoTEQWtPaOCkZXN19sks8LO+Xlg5U6sBWsH0G3r9pXLgMjkzpiGqjrg12DQTIQLnx2Xm2RIzltulAnCBnmACArFpYr0WVLsHSJ34ZjCI2E3sa5MM74DuOOgbtwxjxYXWw6RhIWPaZtal/WNbXt6yQSBmfGmaIuXe4JCzM/HGatKnh83jhSKVcqejRRXSgPkD++oCdBfjCIhXBAeJACdTfOAUlBFNpwjJ4whEnis/ZsvXq2cuv61QYgM2IkOhvygK7fd61VnTH43/958B31hy3AB+cZp4//eSBcIJwIbcRn1f6KoOf5XxPN95SSMJAkrDCNhdCe3V2mqR8x1yqYgJWE7ShVFo7FnR/dFJr0AFDBBB6NYNAYIFYgdShLQ1v81lnwX3MhMNwmmvtEei5JWGqVbaTtxPPsbSeSsOjbDnoSCY+gw2F8kSwJA2vhBqWM3keo9/LdpUH1fWA/grGE3j9f2i0vHqhQggfjGE4v++voUN+DGd3Ae9v8P0lY9Ji2ub1Z9+S2t5NIGNoeoXIYFAv2Dh2IDWT2BrkIJFKB55n/oSuf3lasUQXwogXzchkStv96qxy40XYH6TFlzbXHO3X6uUYNrwTpQUZF5GpYvDE/Ki8U6owtFMkEr4ATCPXVMMMgThvYGaxthig5kDrIba76R/N7SkkYKooHhJAiAQ3OhXHH+dE8pBvOJQlLrnJ1A2b4DNFhhiQsOnkZfEEvw5BjbzbzW6g99D0MYyR635QBgwn9H8015lqv7knC5odpr+KFzx0dXpxGwiLVv6adcb75HukeBGku4oZzYnVO4B5G36t9CUKQIq1zuPNQNuo6lyxwHrZwZc3nt5STsPlU2ovXkIRFryy8iBM+8/xxQhI2f9kRd86UHUmYM9uF/cUd7eI0EkZc2YcrkrB5jASkAugkYfZ1rlTghPecP05IwuYvO+LOmbIjCXNmu7C/uKNdSMLc0Y6p7I8kYSRhcXevphLQvDeV4nwxQBJG7MwXO069jiSMmHYqNt1QL5Iw9q9YcUwSRhJGEmYJBmLt7Lw+vMEgCQsvH+LHPvmQhNnXZuxn9rQZSZg9beXUfkUSZskLOMMR2dmdqkTcUi+SMPYxt2DZPAdJGDFtsMB9/LFAEhZ/mXoNpyRhJGH0hFmCAa8pp2Q/L0kYDWqyMZfo+5GEEdOJxpiXyycJY/+KFf8kYZa8gNMTxs4ea2fn9eExRBIWXj7Ej33yIQmzr83Yz+xpM5Iwe9rKqf2KJIwkjJ4wSzDgVCXilnqRhNGgugXL5jlIwohpgwXu448FkrD4y9RrOCUJs+QFnJ4wdnavKadkPy9JGPtYsjGX6PuRhBHTicaYl8snCWP/ihX/JGEkYfSEWYKBWDs7rw9vMEjCwsuH+LFPPiRh9rUZ+5k9bUYSZk9bObVfkYRZ8gJOTxg7u1OViFvqRRLGPuYWLJvnIAkjpg0WuI8/FkjC4i9Tr+GUJIwkjJ4wSzDgNeWU7OclCaNBTTbmEn0/kjBiOtEY83L5JGHsX7HinyTMkhdwesLY2WPt7Lw+PIZIwsLLh/ixTz4kYfa1GfuZPW1GEmZPWzm1X5GEkYTRE2YJBpyqRNxSL5IwGlS3YNk8B0kYMW2wwH38sUASFn+Zeg2nJGGWvIDTE8bO7jXllOznJQljH0s25hJ9P5IwYjrRGPNy+SRh7F+x4p8kjCSMnjBLMBBrZ+f14Q0GSVh4+RA/9smHJMy+NmM/s6fNSMLsaSun9iuSMEtewOkJY2d3qhJxS71IwtjH3IJl8xwkYcS0wQL38ccCSVj8Zeo1nJKEkYTRE2YJBrymnJL9vCRhNKjJxlyi70cSRkwnGmNeLp8kjP0rVvyThFnyAk5PGDt7rJ2d14fHEElYePkQP/bJhyTMvjZjP7OnzUjC7Gkrp/YrkjCSMHrCLMGAU5WIW+pFEkaD6hYsm+cgCSOmDRa4jz8WSMLiL1Ov4ZQkzJIXcHrC2Nm9ppyS/bwkYexjycZcou9HEkZMJxpjXi6fJIz9K1b8k4SRhNETZgkGYu3svD68wSAJCy8f4sc++ZCE2ddm7Gf2tBlJmD1t5dR+RRJmyQs4PWHs7E5VIm6pF0kY+5hbsGyegySMmDZY4D7+WCAJi79MvYZTkjCSMHrCLMGA15RTsp+XJIwGNdmYS/T9SMKI6URjzMvlk4Sxf8WKf5IwS17A6QljZ4+1s/P68BgiCQsvH+LHPvmQhNnXZuxn9rQZSZg9beXUfkUSRhJGT5glGHCqEnFLvUjCaFDdgmXzHCRhxLTBAvfxxwJJWPxl6jWckoRZ8gJOTxg7u9eUU7KflySMfSzZmEv0/UjCiOlEY8zL5ZOEsX/Fin+SMJIwesIswUCsnZ3XhzcYJGHh5UP82CcfkjD72oz9zJ42Iwmzp62c2q9Iwix5AacnjJ3dqUrELfUiCWMfcwuWzXOQhBHTBgvcxx8LJGHxl6nXcEoSRhJGT5glGPCackr285KE0aAmG3OJvh9JGDGdaIx5uXySMPavWPFPEmbJCzg9YdF19kcyCuXBT/Ll4fSChJPMh9ILZNGGfHk0TlhC3bW8jOieOVZlEOr6xRsLBFuo391ynCTMGXhzC56c8BwkYc7GtFd0qxP6QiLqQBLm7P6ViDaPd5kkYXF6cY53wwSWRxIWeWcHGfr1zlJZ+2W9/GZXaUIJBEjeywcr5Y8na5SkPJIRG1l5NKNQfrW9RN49Xi2Pby4S/B+IhUT97yN/BYK9uQe+v3G4Ul47VBk3kmnKdtqeJOx2uzutbVif+bUNSdj85BYr3qC3QbAwQBdKh0O3vna4Ul49VBnTYCHuE8zuoPxoBwZRjhcG3GJtX3M9SVhq+peRvxv2JGEkYTMv3G4ANJ4BhgdE5kZNrzT3jsq+a62yNDMxhAZGa+WeciluHpTr1X2yYk9ZTAZ10cYCeftYtYyOT8rNmj757a5SeXia2EVvUCNXkHhZeG5fuZwt6ZaXDlTMYAIG+Xhuu7T3jcmL2RX6UuEWnAQ+B0lY5HgJlB3/d6bsSMKS3y6PZhToIODhb9tk04VGeWZHyYw+hQ430RnQuTl1/dI7PC7rzzYEJUwgcDg/GJFDWT/PKpIjOe3y+uFKHTwzZeP8Vfsr5OdZxRpV8eCGfJlre+CTfB1sO5rTLo9tLpo1GMf+HRxHJGHB5UK8RC4XkjCSsBkDYVvHgcF5KESYHAwcvGD1XSOCz59O1aoxCvWMxniF+j3ccRCV1Z9Wy/jklLT2jsrLBytmDG2464L9BlKXfb1N63ymqFONoTHASzMjD1NEOb/cVhzxqOZDGwv1hQE3rukYluW7S/UZUM47x6ulvHVInt5WIo+kR65cgj2fk4+RhLm3bZ2Mu0TWjSQsdZjecqlJugfHpWdoXDZ/3TQzgPWHEzXyeFaResCGxyblckWPDhLevz5PQITMdv+6PHnvZI188lVDUBIG3MDbtfNqsw7afV3WLU9tL1G9jXD2C2Xd8m1tv16PMgK3v56pk4/O1Ovx9V81yOaLTdLePzZje57YUhzyvonErE1lk4Slrn/ZhJNwdSUJIwmzkoRhtPG1w1XywWd18sAneUrGQMj8Nxizt4/VyMDIhBKJn67Pn/U7zgWBwojiK4cq5bEIvGUweiAm/p0K14P0nSvtVgOGkcmffZI/6xy9Ln12qJ9/GfgOsvXLrcVqtPMbBnSU8xE1tAVqWD84XSvZN1pl2c4SeWJLkTy5pVhgKDFqiQ3/Y0MY4xtHKqWoaUA2nAttwM39fSOqxdLQ7SOs6ecbfeRv2quIezR0jcgfToQnsqY8W/ckYTSotmI3VL1JwlKHadiWd4/XCIhWdfuwEq91Zxtk99UWWbq5SD4v6FR7UdI8KOdLu+VieY9cqri94X9DivZeaw06oAa7siSzUK5V9frIU2GXEjrYn9MFnTIlIsdutcuGc406yAbPXMaFRtlysUm6BsektW9Utl5q1mM4Do8cwvjXfFEvT2HQzS80PRTGvHycJCx1/cstuCMJIwmbRRZsATZIz6e32uVGTZ8SrPdP1Ypup2vl3RM1gtFGeL8w2nehtFv375lz/PYYadx2uVlHLDESiHJDyQDk5ndHqzTk8P71+eK/3bcmV35/rFqKmgb1nB+tzZv5/cdr82TF3jLJvNCo3qlQhg2JRLJvtMnI+KSWsRjJPjIK5dndpUr8Ms43qqFF6OO16l4Nf0Q4Cwx1W9+YygLy+KaqV2o7h/XcyrYhDc0MJI7+z7hoY75s+KpBz/+2tk/gcZtVx4xC+aygU18SjFfO/3q3fCcJo0F1C5bNc5CEpQ7TGNxatKFATuR1yvHcDiU2Z4u7VKfDjgyNTsj2y80asfHmkSoNB4euT9tXrjYG9mx0fEr1PEILZ+lkv/cWkL23Pq1W/Q0Sh/BHlH8qv0NGxibllYMVAhsEYoYNg5MYxOsbntCohxeyKwReOPMb7BBCF92s603/iHVPEpa6/hVr2znlepIwP2XmlEYJVg8m5rjd2WEcQBQqWgeV9Gy51Cw7r7TolnWxSW7V9WsoBsjVjivNSrJ2TP+O8/y/43yE2uHTPzKhCTFCEZbFGwrkwI02ae4ZERjTr0q6Z21fFHWpwfwy4DccR4gfPhjd/PkWzE+bTfYQDon5X619Y3Iir93nocsoVK8WPFqfF3bq801NTemcsZ+uy1ND+asdJdLUPSJ1nSPqLYN37yfr8mTrpSaZnJoSPB+MazBM4Rjmm/1ia7GArA2NTupEcZA///MXb8zX45i78McTNXof/9/d8p0k7HYfc0ubev05SMJSi2lDZKCP8xsHZPmeMiVdGCQDSYIXC5EcmHeLOcUgY9DhwO3Vyl61M5jPPFe4POzJnm9adN7u8t1l8mlOuxy+6TegN528A+UgVHH7lWb1zqE+IIqwA7gP5lLPdS+v9yn/5ycJS23/8m8LW7+ThJGEzXrhtgHIGPnbdKFJpqZEjnzbLj/46JY8sD5fQEzgyUIoX0vvqCB8D4QEv5kNI34/WpurI4MYHcSoYVPPiNyo7lOi8dS24pDygOcLoRv47LraoudjxNF/e/3w7P/xG7Inni32hSoey22fSbThL2uMPm671KxhfwgDgfHGsY+/rNf7dQ2O6wTsiYkp9fLBkIIsYt6bIWEw6CgTo5gYYZ2YnNK5CPjf/17+3+EF+/gL3z0+K+wM6gk04ZYYZQVZg0fQjYaaJIwG1b9vuOE7SVjyMQ0yA68VbM7SzYWy62qzNPeMyuqjVRqSeKGsR47mtOlAIuwV9HZpy6DqedgL2DEkZzqZ1yFPZKGs2QN2Bpewg/562OhpzBHDHLRD0yQMxA4JPKDf/3qmXolacdOg7L/eqt+R1AMZGnd/0yJV7cPTST6C39Pcm3sfrkjCkt+/3IY9kjCSsJAv6E4E+8MZhTqa2D00rp4ekBR4alBXGDTE3IOcNfWMyp8/r1MDhpE+GCzsYRwxQfnFA77kGRiNPFPYqdfDoJmRy2DPDqMK7xo+SEkPcoNr5tpgVE2yDRCtQFKEkc9XD1VIR/+YfPhZrf5uRkNz6vp0TsGfTtfqs+HeCLWMBwmDLEBCkUESRBSJN0I9P2SLVPVDY5MaXgODH+rlIJjsbDhGEkaDagNOo6kjSVhyMQ2dipDCrK+bNAoBSTcwGIZBw59tyFfdjUEvtCHORXQFEh8hBL2tb1SjHZAhFwNxSN6BcwLbG7oXvyPxBzxZsG04hvOgpxF+/+yuUg3XR7mGhIFgYX405i6bKA7MRcOG/xHSjg88asHuG1gP/l8oJGF34pO4iE4mJGEkYXcoeSd3IhiHZ3aUyqFv2+SjL+o0hAL1BRFatrNUU6nDkMDgIPQPIR5mw1wpeMnw6RgYk5cPVGg69iXTBnGu5/YnYZhvBoM31zX4HeGACGPEBx4qfxIGsgUjiSyOVyp98fx//qxOE2qcLugQhB9iVPPBDQVi5oTFg4TBaCMEBWGVyOqICeSG+IV6JoQpYmI3PjDcIHD6AhDkRSFUGU4+ThIWnfFwcluybr62JAlLPqYRKQDvEubn4oOkGRjcgscLHimQLOATuvPp7SVS0TYkLX2jeg1CzxGaiN8x0BYMx9DdSzKLdJ4uiBOSdoCwoTzMDUMYI2wM5qHNJmFDUtY6KD9ZlzszX9nMa/7x2lwN4QdJWxnjMivB6uzWYyRhye9fbsMSSRhJWFBF72SgwwiBjKnnajqrIIgUjM/g6IQmpkAMPiYfY74TMg4iwx9CDQsafSQst75P3jvlIx6hvD+BMkgECQNBw8gjPiBD8Ibl1PrmtGEE9VxJtxpvGNh4kjAQSGTBwj3g3UPooxlNDXxu87+ROcgtPphLp+Qt3R0LfJKE0aAarLtlTxKWfExDj4IE/eXzOtWTSP5kBuxga6BHEQaOuVslLYOaIANJnZAw453jNdI5OCbXEB5/qFKvCzbQBduH+VtmrvGeay0axojBPgxQhiZhQ/LT6SQcsD1mQ9g+UtwjWcfz+8rVtrqlDyTyOUjCkt+/EtmeqSibJIwkzDoS5t9RYPDgwdn1TbOMjU/JR1/Ua5r2mzV9GuOO32AAcR4SZoDoYPHmxzb7RiL9y5rruz8JgzcKRhMGcq4Nc8/2X2tVgxzoCYNR/uW2Eslr6FdvGTJVwUh/Udgp1R1D+psJd4wXCUN9MVLbPTQmSBoCsgqiCsKKDSO5GLE1BNYcxznH8zrkRF6HehfxQFhUGuQXdcN5c8nQyb+ThNGgOhmf86kbSVhqMP1IeoFcr+lVe/PSgQolRSbSYMXecjl4s01aekZ1LhjmDBuSBt2MuWMID0dmQ0RvIPrg1ztL5Yms4pnID2AB54K04QOdjPljSEr15pFKJVeBnjB43JB8CiGSlyt6Z22Y74ssu1jTjCQscsyQhEUuq/noLy9cQxJGEmbtizMIDAgK4u+7B8c0iQUMEwzas3tKpaJ1SLMjPrmlSBNjgIBtPNeov4PoRNvB/UnYgZttgnlaH35WN+eG+WOXpr1HgSQMdUBd4KnDHiOSmLPWMzgubx6tksXTIY94TkPCMHn7vjW3NKzkya3F0tg1IjUdI0oKEV5y75pbGsIYLDEH5INJ2FgTDIQKLwNYp8akvEfoDBYYxfoxWOgTI7ImnPN6TZ/Ow0NqZYRjYr0bhLvgAwO+/zommyPzY/SyjbYtEnE+SZid7ZYILLilTJKw1GAa82U7B8Z0DtYL2eWCwTXYAYR/I4IAg4TQ8yBO0Mn+eEPY9293l8rX0zYD+hXkCIsvYy6zyayLgUWsD4mlWpDC/rl95arLkawJHi7M8xobn5Q3phNzVLUPSU3nsM5ZW7GnTNPgmz0y86JO9IRFhxeSsOjk5Y9zfvfJjiSMJGyWAbClY8AAwRhhcjKMC8I5MMfJ1B9EDIYJ4Rr1nSNKFmD0YPDmSxJAwkx2RHjV8B2kaq4NaeJz6/qVrCBlvv+cMFNf1Al1A7kBCUKoIEZOQcxg0PFb+jnffKzc+n415ghVvDIdgolYfszTwqRrGHoQ0MnJKV2bzNwP8kH2RoyIYl2wR9J9SgCLP+MczEHAhG8sLgryBUKFuWi4NzbItG94XAobB9TrhWPwCEIWGO3F/+Z5bNyThNGg2ojbcHUmCUsNpqGzj+S0K+Hae61FTud3KOlCpAbIEnQ7BtbQdgilNxvs2kNI+H4AACAASURBVJNbijX77rov6zVzLUgbQtYRsWCu8W9z1c0bfSnqkRER/0OXX6no1URKrxyqVLIHO4myEAoJXe6/Qf9joJAkLDq8kIRFJy9/3PK7T3YkYSRhVr44I9wj80KTnC3pkrR9vrVOTKcGccEcp5cOVOr6WZNToiQMKXgxERoGCpkSYfDMNZHsH/ykQCdBw/sDo4l09whJnGu796NcNaogV5gnEIysoE5YVBMhiFiwGWn0faSoWNL2lsvKvWXq3QKTA6kD6YFHC6StvW9UU/K/caRSwwwxWnoit2NWinqQPJAtpCnG5G0YXSWy6onzvQzAKH9w2jePYefVFpWhv1wwsRxz7kDQ8KKAMvEyAbIW7OXA/1obvpOERdcfbGhTr9eRJCx1mIZexKAWsu9C9yO0EGF/2N+s6RNEFiDKAN/NhmQeeQ0DGsYIT9qL2RXyy+llU+bKRot1M9d8UT8zzwtzi5GAChkUoa8r24c0AgJ2AsmgYENgK/Ad4ekIiQcJW8U5YRG/F5CEpa5/uUW3k4RF+SKeqobnYs2zOzsIANZSwR6kC+0CUgFSgBC99PONgrW1ChsGlPhkX2/VePi6zmFdyPh3R6t96eunPTwwcCgLW7A2xnHMiULMfdfgWNBzgl2HYyAoLx+o1JAUU1f/c3Fs/dkG6ewfU88dsiNuPNcg2TdaNWMiPF4gnPC4IVsi5gE8sD5PHtqYr8TKrBP26KYCATkFOUQq/MBwRJAoGGN/j6F/PUBcsXYMPvDEIaTF/3eMxIKAYq4B6mxkFS2Z9S/TSd9JwoJj30ltxLpE10YkYdHJK574gl5EJMFnBZ2qN0F0kBkRx2FvYE+gjzEoZ3QpdPOzu8uktXdUQ+ihZ1XXhnlPeTi9UECssDbmywd9EQlLMwsFC0JXtw/LY5mYd1ys3xExgUgJhDZifhhC9BH2iGNICtU1MMbsiGFkHYgPkrDU9a/AtrD1f5KwKDpcKhuZJOzOzg7PDdoEJAfG7fGsYk3MUd0xrEQJYSBI3QuPEsgZRhVhcGB4BkYnpKxlUL4u69G1WRBWB08RYvGRlCKQWMBoIm4e869wXbRYQB1DeYtwHKGE+IA4DY5Oamz/lovNuiA0smCBWIFY4hNLivrA5/J/DnjHkCELE8L9J4sbGWM9G3yyLjZrimP/a93wnSTszj7mhnb18jOQhKUW0yBYIGEI8QYJM1EQmPf17okagfdq19UWDe825MyQsMM57TMDjIEYxrmwa9DZmAeMMHSEmWMQDrYOy6+AZGHNMPwOsodQeERPIB09iBsWiMZAJQjgDz/Olb98VqdREvDgBd6P/wfHEUlYcLkQL5HLhSSMJMxahQsSBm8NJiJjAUykn2/oGpGjOe2ybEeppuyFATJpeLFoMtLzvnQQYYrDMjTqSyqhzEJExiam5EJpj6zaf2eKXhAlxPKPT0zNeILipWhA8GB46zpHlAQhPASjn7gnntF8N4k5YiFhoeqM++D5sAg2EnWYlwVzPn7/4HStigpz4TA/zvzmlj1JWOSGwy1t7vbnIAlLLaZDkTAQqPen9WnXwLgg2RK8YMYWwKuF0EXjIQvEKQYXETGBxFA7rzRrwiSQPRAwRDQgTB1h+AhdxzHcD+fjnrAnSASF+WG4N/Q+Nh2sjHDty8D6ePV/krDU9i834I4kjCTMupdpGBCkQ0fIHAxPYdOAlLUOaSYqLHqMUAsYMCStCLYhAyCyTbX1jsq+6y16LkIMscaKITyBnRuECOGA+Kz+tCqkVyvwukj/x+gjiBiSjYDw+F+He8NAJpKE4WXhozP1MyQL9/Svw+KN+ZIxvVAz6hEYquh/rq3fScJoUG3Fbqh6k4SlFtOhSBj0J+Zv4YMEHkafzpCwnlHJqe27IyLDtDNIGAbjzpV0aRn4s/6rhpmBO2SqHRqblGU7S/UYbCY8ZQhnRzZhLEMCEtY5MC6vHKyUnLo+9cjh/vCmmftwHx4/JGHh5UP8zC0fkjCSMOsU7sEbbXKmqEtO5XfKhnMN8vT2Yk1cgbTrCC98ZocvrBChhYHbb3aVyO+OVMno+JRgEjRGGkGAEJ8PhQEjFExx4BzE2Nd2DOtk61DnBbs20mMgPggzwQbjDcOMMEsk5YB3DuvF4JMITxiMMow0Us0j/DFwBBYk0Cwqjflr5qUh0mez4TySsLkNhg3tyDrebkeSsNuySAUuQpKwDfma2Rf6/OMv62ciDwwJw5ywvPr+kCQMz4LkUkhRf7OmT+3C8t0+woUByqaeUU0IgvIWbyiQv04vHI05zfB6GRKGhCFYfwyRJLCJ58u61X4+HGJudCpk6OR7koSltn85GRuR1o0kjCQsKOmIFECpOA+JN2CAYOBAXBBugZDExu4RXXwYRgckItiG85EtCjH6WF/FkA2zD/Y8ICBIb48PFnpGHH6w8+Z7DPeGsTReuKe2+ozioZvtmv4diTkQdmI8UZibhcQc8E6BcCIxR23niJaB58P8MYQMBibmCFU/ED2sn4bwlU0XmoJ6+RDicvRWu8oAGR7jLYNQdUvmcZIwGtRk4i0Z9yIJSy2mYaOQHXF0YmpmThh0PYhSUeOA9I1M6HfobbVlsE+7y6SmfVhtDc4NhRMM1iEBBzIsYp7zb3aWqk3EYB2yHD63t1wTg4B0IfID0SGamCm9YCYcESQMGRyhz2Hb8EE4OuypWY8s1P15vFBIwlLbv9yAQZIwkrCQSt6pAA8kTDBez+4ulaYeHwkDKQtVdxg1LFAJEnYs9zYJC3U+RgRhuLDeGDxFGHkMvH+oayM5jrW6nt9XrqnvL1f0SmXbkGbGQqjIibwOnSsAooVnMuuEISzyjcOVsvpolfzlTJ2GYfYMTehaaUg/jwngp/M7IyJhIGBIWAIjfbWyR5Zuns7GNU0MzTNgDhgyaE1NiWZnBDE1v7llTxJGg+oWLJvnIAlLLaZhmxBB8EVRlyzbUaJEC7rTJFlCQo23j1drAiZEO0DXg1gZsoTrTVsG7kHCEGaIrIa9Q+MawbB0c5HU6DInvsHCJZuKNNTwVn2/lgk9Dp2P88pahjR1PkgY7oMICNgdfA7ebHPlQFugDGP9nyQstf0r1vZzwvUkYSRhIZW8EwAaSR0whwprnmD07/PCToGXDF6lYBvOxUhjpCQM5AceKCTx+OPJmqBeokjqGOocjJR+eLpWk4KA4CBEEnOuYFxxb5BGkD4YSUPCcur61aiDFGE7U9il4Zkz/xd1aQbHwMWaA+sAWWCNNWR7LGoa0NFPvd+mQnlqW7G+EKAOP9NFnIt1jRmsXfOrHaUhwzYD72HT/yRhNKg24TWSupKEpR7T0KnQtdigy9ecqdfMhUgihRBC6Ht4y+CBKm8dlNMFnRqZ8P6pWvn1ztKZtPaB7Q0ShjD6iUlRMgXihrUwc+v6NdwQ9zv8bZvAXoBgwYa8e7xa3jrmI30I3zeeMNQLIeZmXvDnBZ2uDDkPlGGs/5OEpb5/xdqGqb6eJIwkzHoSBiLz2qFKJUoXy3t0nZPn95dLsO25fWXqycF6V18WdYaNuQcBQSgHFkPGPKhEeX9gHGE8MVEbxhChIdj7KwecYxJzrP60Wu5bc0tTDyP7Y+B275pbMws7w2sWGDqIsnAMGbmwjgwSmfzCb/0w/P764Sr5qqRLipoGdc4BPHT4IJU+1r7xr5tbvpOEzcacW9rVy89BEpY6TJu5vdC1WPYEUQo3a/p0wXsMtqXtLdOBNvwOG4Zojo/O1Elx84BGMUDfYm7YsdwOHZQLxLHxhDX3jGpY43sna3QdS3jUYLuwzuTJvA6d8wwiiG3b5WZNYgXyhU9x86CWjbIwaAmvWEFjv84RA4kLvCf/n40nkrDZ8iA+opcHSRhJmPWK1pAweLda+0Y1OQfIWKgNBhAfTFJeEqL9QUTM4swwXAjhSKSCAenCPQPJl7knftv8dZOGnSAUEfPBzG+Bexh11BnGGSmJIR9zDsqBod12uUmNPco0HkNzjtlj8nbG+Qb1GkJemHPny+AYvaIxZTp5TxLmznZ1MuYSXTeSsORjGjrcRGO8caRK5xN/W9un4fKXK3p0fi/aHSnp/dsfuhkb9DG8VderezX8G7oXenpxEFKEe72QXSG7vmmRy5U9guVNMH8Xc86g+014ubkPiBi8YgitRwg6iJs/2cK9TZIqcw33oTFEEhZaNsRNZLIhCQvxEu40AHGx5tCAxqgf0uxi8ckPP6+Tn6zL03WsEP8euGGtsKe3l+hk5t8fqw46+RiGDQQEcfFIyJFoAhYJ1lAnECCEXWLOQLhrYEixsDTmvs0iYBm+UEx4s/Zdb9WR13DePYyOIkQFc+eQ6j9tb7m+IIS7t82/kYSFx5XNbevVupOEJRfTIDnLdpboPDBk7/26rFsO3GzTdbsQmQGC5K+TQ+ESxAhlISFTVfuwLp8S6joQN5SD8mEL8R26259c+d8H56/KLpcXD1QEjQTBtf7n83toeZCEhZYNcROZbEjCLFE4JGHhAQ1igpCPSDr+ksxCTbBhjFewa3AOYuxhCJ1ilFAXGNlI6oNzgz0fEovAEwaiFuz3YLLANUjRH+n5wcqw4RhJWPg+ZkMbso6z25AkbLY8koEP2KKnt5Wox+mJrCLVtRjIC0WKQtUJA2+4BnYN64KFOg/HYROi0c8oN9r6hLu/V38jCUt+/3Ib1kjCSMLCKnebAB8JObHpeRJVV8opuOEgCQsul0ThkOUmXt4kYYmXcTAcQ8fGS8/Gq5xg9eSx2PBBEhab/Ig/LHNQLD/7y9dy14r0sX9+NutvvmM+C1ds/ruFaZmyaM1VWZLpW8iWAksd4OgJS53siXtvyJ4kzBvt7KX+TBJGTHsJ78l+VpIw9q9YMUcSRk+YazxhsXYGXu9thUoS5u32d2P/Jwkjpt2Ia6c8E0kY+1esWCQJIwkjCbMEA7F2dl4f3mCQhIWXD/Fjn3xIwuxrM/Yze9qMJMyetnJqvyIJs+QFnOGI7OxOVSJuqRdJGPuYW7BsnoMkjJg2WOA+/lggCYu/TL2GU5IwkjB6wizBgNeUU7KflySMBjXZmEv0/UjCiOlEY8zL5ZOEsX/Fin+SMEtewOkJY2ePtbPz+vAYIgkLLx/ixz75kITZ12bsZ/a0GUmYPW3l1H5FEkYSRk+YJRhwqhJxS71IwmhQ3YJl8xwkYcS0wQL38ccCSVj8Zeo1nJKEWfICTk8YO7vXlFOyn5ckjH0s2ZhL9P1IwojpRGPMy+WThLF/xYp/kjCSMHrCLMFArJ2d14c3GCRh4eVD/NgnH5Iw+9qM/cyeNiMJs6etnNqvSMIseQGnJ4yd3alKxC31IgljH3MLls1zkIQR0wYL3McfCyRh8Zep13BKEkYSRk+YJRjwmnJK9vOShNGgJhtzib4fSRgxnWiMebl8kjD2r1jxTxJmyQs4PWHs7LF2dl4fHkMkYeHlQ/zYJx+SMPvajP3MnjYjCbOnrZzar0jCSMLoCbMEA05VIm6pF0kYDapbsGyegySMmDZY4D7+WCAJi79MvYZTkjBLXsDpCWNn95pySvbzkoSxjyUbc4m+H0kYMZ1ojHm5fJIw9q9Y8U8SRhJGT5glGIi1s/P68AaDJCy8fIgf++RDEmZfm7Gf2dNmJGH2tJVT+xVJmCUv4PSEsbM7VYm4pV4kYexjbsGyeQ6SMGLaYIH7+GOBJCz+MvUaTknCSMLoCbMEA15TTsl+XpIwGtRkYy7R9yMJI6YTjTEvl08Sxv4VK/5Jwix5AacnjJ091s7O68NjiCQsvHyIH/vkQxJmX5uxn9nTZiRh9rSVU/sVSRhJGD1hlmDAqUrELfUiCaNBdQuWzXOQhBHTBgvcxx8LJGHxl6nXcEoSZskLOD1h7OxeU07Jfl6SMPaxZGMu0fcjCSOmE40xL5dPEsb+FSv+ScJIwugJswQDsXZ2Xh/eYJCEhZcP8WOffEjC7Gsz9jN72owkzJ62cmq/Igmz5AWcnjB2dqcqEbfUiySMfcwtWDbPQRJGTBsscB9/LJCExV+mXsMpSRhJGD1hlmDAa8op2c9LEkaDmmzMJfp+JGHEdKIx5uXyScLYv2LFP0mYJS/g9ISxs8fa2Xl9eAyRhIWXD/Fjn3xIwuxrM/Yze9qMJMyetnJqvyIJIwmjJ8wSDDhVibilXiRhNKhuwbJ5DpIwYtpggfv4Y4EkLP4y9RpOScIseQGnJ4yd3WvKKdnPSxLGPpZszCX6fiRhxHSiMebl8knC2L9ixT9JGEkYPWGWYCDWzs7rwxsMkrDw8iF+7JMPSZh9bcZ+Zk+bkYTZ01ZO7VckYZa8gNMTxs7uVCXilnqRhLGPuQXL5jlIwohpgwXu448FkrD4y9RrOCUJIwmjJ8wSDHhNOSX7eUnCaFCTjblE348kjJhONMa8XD5JGPtXrPgnCbPkBZyeMHb2WDs7rw+PIZKw8PIhfuyTD0mYfW3GfmZPm5GE2dNWTu1XJGEkYfSEWYIBpyoRt9SLJIwG1S1YNs9BEkZMGyxwH38skITFX6ZewylJmCUv4PSEsbN7TTkl+3lJwtjHko25RN+PJIyYTjTGvFw+SRj7V6z4JwkjCaMnzBIMxNrZeX14g0ESFl4+xI998iEJs6/N2M/saTOSMHvayqn9iiTMkhdwesLY2Z2qRNxSL5Iw9jG3YNk8B0kYMW2wwH38sUASFn+Zeg2nJGEkYfSEWYIBrymnZD8vSRgNarIxl+j7kYQR04nGmJfLJwlj/4oV/3OSsMVrr8tjWWUCTwy31Mng8a3l8qN3Tspdyzfmf2cen4XPb/qnu5/fIg+tvymPZZWyLYlnYiAAA49mFMj3Xt4tC1duemAeXew7C1ZkHLvv95/KY1vLKdsA2dJ2pMZ2AIsPfHhe7lqxsf2fnk7/j9Hi+q7lG7/50dsniGnimTotCAbQv9A/FqxIvxpt38L5d6/I/JfvvrBNHt5wS5byvcyTGHtsa5k8+NEluWtF+tg/P5v1NzM4WvDbLX8PcNz7uyPyw7dPyA/fPs4thTIAAfu317JlwYpNxTONFMWXBWmb/+89L+6Ue1ezPYll9uVgGLjv98fkX1/dKwtWbnowiq41c+rCFZmnvv96tvzwnZPUlSnUlcHa1rPH3jkp33/zIAYWeuZDwhauzLhJTFNferb/zKXH0L9ez0b/ujFjCKL4sjAt667vvbRL7nvrKN+z55K1W39/54T84M1DsjBtk8wmYSs3/M/vPp+Vs2BFes5dy9Nz7sKeW+pksDw9Z2FaVs7daZuzo+jjM6fe8+Kmf/juqm1sT2I4dRh2uOyh6+55aWfOwuWZ353pOFF8WZi2ec09q7ZRXzq8nT1lx5an5yxYuSln4crMrxasXv0fooCznrogLXPHd5/fQkwT07QbwTCwPD0H/WNhWub2aPsWzr97Zdb/ueeFHXwvCyZbrxyDjl6RAQxd/3/Ldv23+eCI11AClAAlQAlQApQAJUAJUAKUACVACVAClAAlQAlQApQAJUAJUAKUACVACVAClAAlQAlQApQAJUAJUAKUACVACVAClAAlQAlQApQAJUAJUAKUACVACVAClAAlQAlQApQAJUAJUAKUACVACVAClAAlQAlQApQAJUAJUAKUACVACVAClAAlQAlQApQAJZAACSz4+Zb/jLWluFEGxAAxQAwQA8nGwA+e/fg/JcC0sUhKgBKgBCgBSsDZEljw/Ja/v+elHXL3qq1y9/NbuFEGxAAxQAwQA4nHwKqtcs8LO+Rflm/5X862kqwdJUAJUAKUACWQAAksXLH57xamZcr9H5yTh9bdkMVrr3OjDIgBYoAYIAYShgHYmvs/+EpgexakZf5tAkxb0CIXpm16/7svbM+9a3k6N8qAGCAGiAFiICkYgN1ZmJb1lzsMkyFhiz7+RpZuLpElmUXcKANigBggBoiBhGEAtmbRx1dlYdqmpJKwBSs3ZX//9Wz54dsnuFEGxAAxQAwQA4nHwDsn5PuvH5CFKzOPhiZha67Kksxi+fdNhdwoA2KAGCAGiIGEYQC2ZtGaK8knYSvS99771lF5LKtMBx1BBrlRBsQAMUAMEAOJwsBjW8vk3rc+lQUrMg6RhPHFKmEvViTwHMAgBoiBSDCQUhK2+ggHHGkHaQeJAWKAGEgKBpZsLpZ7Vx8lCYvk5YDn8CWSGCAGiIHEYoAkLLHyJX4pX2KAGCAGnIEBkjCy/aSwfXZ4Z3R4tgPbwekYIAkjRp2OUdaPGCUGiIF4YIAkjCSMJIwYIAaIAcdggCSMLzfxeLlhGcQRMUAMOB0DJGF8+XLMy5fTOwvrR4VODCQeAyRhiZcxcUwZEwPEADGQegyQhJGEkYT5YeCR9AJ5KL1AHvU7ZhTVw+kFsnhjgTyaEb+Oi7KC3cvck/v4yZqytEOWJGF2tBP7k7vbKRl2KRn3IE7djVPb25ckLMjLtu2NyvrPT+ksTi+QP52qla2XmuQXW4tlSebtchZtyJf0841y5Ns2eXZ3qSzNLIqJvML4oPyntpVoWSifBum2vIlh78qCJMy7bc9+74y2f2JLsWB7aGOBPJJRKI9tLpIlmwp1gDJebfTzrCLBhoHNRzIKYrKn8aoTy3EG/rzUDiRhJGFUftMYeHBDvmy/3Cz4FDcPyK92lMwYh599ki/nSrv0t8q2Ifn1zhKB12y+ygJetY/O1MvQ6KRcruyR1Uer1NjB4M23TF5H2bkBAyRhxLEbcGzrMyASZPuVZilvHdKBx8c3F8qrhyrleG67pO0tl8Ub82O2URh0hK0taByQtV82yK93lnIQku+iMePKxj5HEkbgexL4wTorSNi2S80yOTUlh2+2CYgSzsMo3dPbi6WqfUjGJqZk3ZcNM78FKyfSYy9kV8jGcw1S2zEs4xNTcrakW40RRwX5Ehophtx4HkkY8e9GXNvyTLB7iPrAp3toXJbtKJHHs4rkamWvtPePybov62MOyYf3a+M53z36RybktUOVcbGptsiY9aSOMxggCSMJ8ywJCwz/MyRsYnJKMi80ys82+Eb8MDL48sFKGR2flJLmQTUWgdeaDhXNHsZu0cYCDfvYcrFJBkcnJK++X57cUqxesWjK4rlU6m7BAEkYsewWLNv4HBgEfPNolZKwspZBX1hieoH8dlep1HeNCOxj1sUmDSOc7/PBpiL0H58911oFkSbzLYvXUV/YjAGSMJIwTyo/JMRAPDri3B/O8CXi8CdhWV83Cf5H54bBWHe2QQ3G+rOhvWAgZiBW0YYU4jqEZ7x3qlYmRWTNF/Uai2+zYmHdaRjniwGSMGJnvtjhdXNjByQrnI2CbfzV9pJZJAw26sFP8mXDVz47eK6kW366Lk+jROYzIOlPwrZebpYH1ocmYZq8imH6nnxP80J/JgkjCfNk5168IV/ePlYjhY0DsvF8oxIyjMYhHFFH+vxIGBTB1apeae4Z1QnKP12Xr0YDhsNs96+HQSqUfddbdRQRpCoaBQLD+MyOUvWGIU6eIYlzv0xEI1+ea488ScLsaSv2K/va6qUDFfL09hL1Phn75b+/f12+2jmECWJeGOza/evz5cdr8+Q3O0vlUkWPvPVplRzJaZe911rnNfDoT8K2hSFhGNRE8iokysJ34s0+vLHNwrcZSRhJmCcVG0jSuyeqdf5XTcew/HZ3qTywPi8oCfvFlmLpGhwTnLfraovsuNwsO66YrUVgRDZdaJTPCzt19LBzYEzePFIVldEA6Xp+f7nOORsemxQYynCjlVRs4RUb5WOvfEjC7G079jtntx2ITGHjoJS2DMpOtWUtfrZs2qZdbpZ911plaGxSeobGlWj57F2LJtPY/HWTnCnyJamCwYNNRESJaXvYLcz5Crc98Em+vHu8Ru0lQht/uCbvjvMRiYJMxAUNA3Kjpk8HSmkTb8vZyJt7u2VCEuanPAhmu8EcTfthJO7F7ArpHRqX/ddb5YFP8jT8cHuAJwyGZMNXvgnEp/I7NWTwg9O1YrY/nKiVI7fa1ZicLuiU3x2tkrePV8vz+8qj8mbBOO664svMiMJO5XcwTp59c+bFJhps234uSZh39LDtWLWt/j4SNqD2aueVFnnvZM2MLTM27f1TtZq5F5Ef/cMTsuZMveCY+R17hM6/9Wm1/P5Ytbx+uEo9Z5AFyv/jyRrNephb3y/Xq/vu2K7hWE2fNHSNaD0aukfkVl2/XKvu1ePmGvwPT9zAyIRuXxR1eVIf2oYx1jc6/U0Sxhc9Tyo2kLBV+8ule3Bcsq+36pwsjLxhVA6ZCjEnDIk5cN6Vyl5p7B6RE7kdOhq3aMPtUT6so/JZQadMTon8ZlepPDj9W7ThhEj7m9/QL/CCNXaPSnnLoMAD90h6dB2aCpDysh0DJGHEsO0Ydmr9DQmbmhJNNoUwxECPFZJFwbMFewQS9kRWkfjbPJyP+WCIJoH9Q5nmec1c6798XqcDkph3jURT/ttjWUWCRFTm8+mtdjlb3KWZgf3PQwjiE1uKlOBhnTKUZe7DPXWEWzBAEkYS5knFFoyEwbi8f7pW52WBjP1kXZ6GBYKA4ThG757dXTYrTBDGAeESIHPLdpbMK3UvjBi8chjxK24eVAI4Mj6po4zRzi1zi2Lic3jXyJKEebft2e8T2/b+JAweLJAof5lrEoxNhbIks1C+nA45fGb7bbuG37GIc/bNVlm5tyzk4s2wr/7kzNwDSTyQ7h6h/ZMYuRQRhDcey23XiBPau8S2v2kH7p0jZ5IwkrBZStgrnTMYCYNBevdEjZIhkLCfrs/TGPgvirt0tPBSeY+8ccS3qDLkBIMCEoY5YEVNgzp5GEYqWhkiIQhCIvE5eLNNywQJ23utJaghi7Z8nh99m1BmqZMZSVjqZE/cu1v2IEawVZjv9eKBilkkysy3wmDkoo35MxmB4dUyhArnYLkW0CeEEfrC7iOXGaJNMH8aH4QrgofBK4Y50HkNA77lWRj9EfU7BPtt5Bh0mqxIwkjCPNnhQ5GwKI5rXwAADfBJREFUP0yTMIzOITQCBittb7n8ZG2eHMvt0LlauBYdGSGHrxyskKmpKdlxpUWJWrQdHGUg7ALrsWAS9PI9pUruLlX0KrnDb/MhdtHWg+fbq8Td1nYkYcSi2zDtlOcxJAxhhi9kl8ujGQXq9UL9Vuwtk/Ol3Tr3CwOQmPuFz6GbbTO2DaGKZ0t8STmuVfXKC9mRJ5DCvZFoAws+Yz5Y+rlGQVgkElst3lAg31T1yu5vWmYRQ6fIjfWgTkoUBkjCSMJIwqbnhMETZkgYRuuwIVEHjsP4fPJVg4YLms6IEUOkpMcHC0+adcXM75HsYZjeOV6tZXxVAo8bYvTz5cPP6vTY7qst8yo3knvzHBoWJ2KAJIy4dCIu3VAn2BssgTI+OaV7ZB28WeNLnlHVPqw2Bwk5sE4YMvzivIvlPTrXGYOBGJgEgQJ5evtYtSDLYaRywbyy7Bs+e5n5dZNejxuChN23Jlf+dKpGCRqIXWCYZKT34HnUHbZhgCSMJCxiJWobuMPVN5gnDKNxSJuLuVmbv27UicWmDIwYLttZKnWdw/LhZ7U6MggDhDVTMB8M3jLjITPXRLLHQtGYUzY4OqEhGTCS2JDko6lnVNcme2ZHyUw4SCRl8hwaIpsxQBJG/NqMXyfXHbYF0R3whCGUEGQH5Aoh8QgLBLlCAiocT9tbJl0D4xqlgWfCEi4YHEQoIlLcI0oj0gRUuC+WhBkdn5TLFT1qPzFwaUgYEn1gHhrW7YQ9xLwxXONkWbJu1FPxwABJGEmYJxWdPwnbd61Ffrw2V5ZmFsnaL+tnEnPAMPh3MhgFpM8F8YLRWr67VDr6x3QkEV4x/3Mj+Y5JyOvONqhRw1or/mXgN6zVgg+yR6G+mIMWSbk8h3KyGQMkYcSvzfh1ct0NCesd8pEwQ3QQxQESNjE5pQOQsG8gYvCSjYxNyssHK5QUXazoUZuUcaEx4ggN2C6sw9nSO6oDi74swvkaPWJIGLI0PpReqOnukSEYNvbJLSRiTsYS6xYfPU0SxhdbT77YwzBgJBBJNT4v6NQRPoRmIFQDRgBzwgLDC2GwsF5K/8iErMqu0IyJMCJrv2yIOnzi4YxCHUlElqi2vlFZtqN01sgfRief3lYirX2jgiQdWHuFIRrxUXo0Hs6WI0mYs9uH/cfe9oENK24alNrOYUGEhfFkwdbt/cY36IekVPgf2+Fv25R0fXSmTl47VCmjE1NS1TEk/54ZmQxgx+Dhwlwz2FWEMML2YvP3hIGEAVeonxl8vFrZozYS4fnEXGTyppzskxNJGEmYJxUcPE3IhAiCMzo+pSGF68/Wy4en66RveELXCwskYcgMhRAMhHPkNwyoVwyTjBEnH42Xypx7prBLwz8wAdrfC2YU6cMbC2YyVCFOH+EhMF7md+7tU7hss7nbjCRsbhkRR5TRfDAAkoM5Xbfq+3UtMGOL4Pk6ktOua2QaewR7h8RTCCFE0gyECeKj2RIzbtshlGnK8a8TrgcJwxpgsLEI4zcp6MORMKxRdrmiV+8Fwvi7o1WaQMSETvrfg9/ZD2zHAEkYSZgnX+qRgvf3x3wx6tUdw/L8/nK5f12eJsnAnDAzGhjYwWFEYKSwoDM+yIr4cJQpdWFMNp73pek9cLNtlgfM/34YpURsPAgfPjl1fbpgJYye/3n8TkPkJgyQhBHPbsKzk54F9qu9b0y+KOoS431C/UDCsFYXBiVBevwH+5BK3nzw/fHNRTNrZcJGLd9TJk9kzR6IBAHDdq60Wwc4PzhdJ/d+lCv3r8/T+/5obZ7aX5SLJB3f/+st/Q0DmsdzOzQp1vVqHxGDBw0Dlq8drpInkS2Y72y0/y7CAEmYixrTScrehrpglA6jemn7fB4meKP+eqZOwyaygoQj4pke/CRf3vq0WsamSRgyKOK6SA0DvGsI6wDRu1LZO8ugBZMZjCE8YIinx+dqZa/8emfpLCMZ7Doe44usrRggCSN2bcWuk+v9CELw95crKULIn/FKgUj9eG2eIDsvokB+nlU0Y89g20ymXtg8zJkGYTPPie/Hc9tnpao3IY7nSrqlrHVIww6P3eqQr8t65ML0hvBEM7hY0TYkX5V0a8giokzwwXItsK03a/v0f/zpGx6XrZeaNHuwuT/31BW2Y4AkjCRsRqHaDub51B8kx3iWQJC2XmrWycnBSBhS7IIQVbUPaUw9jAdGDuE1g+HxHz0MVhdc/2J2hbT1jWloB0b1zL2DnW+OoV5//qxOhkYn1CCVtw7paCWMaLAwRnMd9zRQNmKAJIy4tRG3Tq8z7AUSaiCb70sHKuWPJ2rkfEm3HM1p1/nNCK1H9l8z9xieLBCya9W3iVBOXb/OJcM5+P2pbcWCudRp+8r1f9gjrDeG8EWQsKe3+WwcokfeOV6jC0RjYeZV2eU67xoG7eitdlm5p1xePlChZG7FnjJ5bl+5PL29RO//eWGnfFvbp9mDn97OdTOdjjPWLzr9TRJGEuZpEuavMEB2toUgYQhffOVgpVS2DwuSaSDD06r9vsQeCEzEBGYYDRAxGCd42fzLhnGC8WnqHhUYsqe2RZ52HmUh5HHLRR9BhOFCcpD911vVmEbqhfOvD7/Pbh/KwznyIAlzTluwX7inLRB+ePjbdqntGNbBPyTMgGervtO3Phjsyun8Tv3NeLOQmRdzwg7caJOa6XXEvqnsUfuHJVpePVQplW1D+j8GFJF4A94urP0Fu2XsIMrzbb4wRdjT9076UtRj4BOZiGE3/TdzPfaPbfZlSjTlEZfuwaXX25IkjCRsFlnwcocIRsLUw4WQjNN10t43KhfKunX0DwYHhAuhhVjPC5/6rmGBB+3Z3WXyzPYSNRyQJ8rFBOfGnhE5kdcxr3ldxvhsv9ys3jfcb0qmJLd+QA2fMZpebj8+uzsMM0mYO9qR/dE57Qj78MutxTqAuOeb1pkIDIQTIry9un1YzhZ36yLN8HKB9BzNadPoiw3nGtSGYRCxpc/YuhGdo/Xnz+ukqXtEr3skvVAjRWD/YPPCtT9sZ7DsiKGu4UCjc7AUqo14fH5tRBJGEhZWWXqpYwWSsJ+sy9PMh3uvtQpCANefbVBZYYFlIxd4uJbvLpOSFl8sO8gRFl7GgpQr95ZpuODqo9VS1Dioo44wJhjtM9dHs9dr0wsFWRyr2lCfei0LI5rRlMNzKS8nY4AkjPh0Mj5trBtIzx9O1GhmRJAu/0E7DPD9dheOFQpC5hEmf6m8R1p7RzVMEdfimRHO+OrBSg2nh50bnZiUrsFx9az9anuJer18nqzb9jGUrFCm8YTBa+afJCTUNTxOveBGDJCEkYTxBX4aAyBhOy636JywjPONmikRE4gR9ofFJkON7sGgIDY++0abxttvv9IiaXvLdXLzC9nlOsKIsI1Q10erWHA/GD1/QxptGTyfBs2pGCAJIzadik1b67U0s0jD4D85G3xNSzMwCJKV19CviyVjENHMDzPPjUFHJPdAUimEKeKDucqYx2XKMOeG22Ptr/TpDMHbr5CEhZMVf3O3PiQJIwkjCZvGAAzO+6drZcvFJp3fBSKmxiXdt4hkOGUIQgQjtGxnqS5OiXBFE8uONPORJOAIV37gbyRg7lbMge3tpf9JwohtL+E90c8K4rTpfKOcmp7vFSy0D7bvTydrNYIDdg9rdRkPWGD9jC1740iVnM7vkFt1/fLGkUpdyyvw3FD/w6uGwc3JqSklY/4ZF0Ndw+PUC27EAEkYSRhJmB8GYGBgtECgYITMXKxIO3+050daLs+jAfIKBkjCiHWvYD0ZzwmbhrnLWIMrGAFDHTCAqOt9bSm+w/sVqo4YCASZAoGKdlAQ5yNT8J9O1WiSqmi8aKHqw+PUGzZigCTM7wXcxgZknal4iAFiwE0YIAkjnt2EZyc8CzxdcxEdkLW5zonns2CQEyH6ybxnPOvPsqin4oEBkjCSMHrCiAFigBhwDAZIwvhyE4+XG5ZBHBEDxIDTMUASxpcvx7x8Ob2zsH5U6MRA4jFAEpZ4GRPHlDExQAwQA6nHAEkYSRhJGDFADBADjsEASVjqXwz4csY2IAaIAWIg8RggCePLl2NevtjhE9/hKWPK2OkYIAkjRp2OUdaPGCUGiIF4YIAkjCSMJIwYIAaIAcdggCSMLzfxeLlhGcQRMUAMOB0DUZCwIvn3TVgJnRtlQAwQA8QAMZAYDCzJLJJFa67IwrRNsiAt82+/k6TPghXpe+9dfUSWbsZaf0XcKANigBggBoiBhGJgaVap3Lv6qCxYkXHoDlN3z8pN//Cvr+6Rf3ttn/zb69ncKANigBggBoiBxGPgtX3yr6/ske8+l/G/7zBMCToAEvaDNw/K4rXXZNHH33CjDIgBYoAYIAYSigHYmx+8eSg4CVuwcst/vfuFrGV3r9zEjTIgBogBYoAYSB4Gnstads9L6f8lQZzrjmLvTtuc/b2Xd8vC5zZzowyIAWKAGCAGkoIB2J0FaZmf3mGUeIASoAQoAUqAEvCCBBY8u+m/L3xp6z8uTMvgRhkQA8QAMUAMJAcDL239x395Lut/eMHO8hkpAUqAEqAEKAFKgBKgBCgBSoASoAQoAUqAEqAEKAFKgBKgBCgBSoASoAQoAUqAEqAEKAFKgBKgBCgBSoASoAQoAUqAEqAEKAFKgBKgBCgBSoASoAQoAUqAEqAEKAFKgBKgBCgBSoASoAQoAUqAEqAEKAFKgBKgBCgBSoASoAQoAUqAEqAEKAFKgBKgBCgBSoASoAQoAUqAEqAEKAFKgBKgBIJK4P8DL3xz0Gp/PZoAAAAASUVORK5CYII=;" vertex="1" parent="1">
          <mxGeometry x="-4440" y="720" width="680.14" height="390" as="geometry" />
        </mxCell>
        <mxCell id="zWPt4ddoxy-hTkP56XcS-11" value="" style="group" vertex="1" connectable="0" parent="1">
          <mxGeometry x="-4280" y="220" width="330" height="280" as="geometry" />
        </mxCell>
        <mxCell id="zWPt4ddoxy-hTkP56XcS-10" value="" style="rounded=0;whiteSpace=wrap;html=1;" vertex="1" parent="zWPt4ddoxy-hTkP56XcS-11">
          <mxGeometry width="330" height="280" as="geometry" />
        </mxCell>
        <mxCell id="zWPt4ddoxy-hTkP56XcS-9" value="" style="group" vertex="1" connectable="0" parent="zWPt4ddoxy-hTkP56XcS-11">
          <mxGeometry x="90" y="60" width="140" height="120" as="geometry" />
        </mxCell>
        <mxCell id="zWPt4ddoxy-hTkP56XcS-1" value="利润" style="text;html=1;strokeColor=none;fillColor=none;align=center;verticalAlign=middle;whiteSpace=wrap;rounded=0;" vertex="1" parent="zWPt4ddoxy-hTkP56XcS-9">
          <mxGeometry x="50" width="40" height="20" as="geometry" />
        </mxCell>
        <mxCell id="zWPt4ddoxy-hTkP56XcS-2" value="收入" style="text;html=1;strokeColor=none;fillColor=none;align=center;verticalAlign=middle;whiteSpace=wrap;rounded=0;" vertex="1" parent="zWPt4ddoxy-hTkP56XcS-9">
          <mxGeometry y="100" width="40" height="20" as="geometry" />
        </mxCell>
        <mxCell id="zWPt4ddoxy-hTkP56XcS-3" value="成本" style="text;html=1;strokeColor=none;fillColor=none;align=center;verticalAlign=middle;whiteSpace=wrap;rounded=0;" vertex="1" parent="zWPt4ddoxy-hTkP56XcS-9">
          <mxGeometry x="100" y="100" width="40" height="20" as="geometry" />
        </mxCell>
        <mxCell id="zWPt4ddoxy-hTkP56XcS-5" value="" style="endArrow=classic;startArrow=classic;html=1;" edge="1" parent="zWPt4ddoxy-hTkP56XcS-9">
          <mxGeometry width="50" height="50" relative="1" as="geometry">
            <mxPoint x="20" y="80" as="sourcePoint" />
            <mxPoint x="50" y="30" as="targetPoint" />
          </mxGeometry>
        </mxCell>
        <mxCell id="zWPt4ddoxy-hTkP56XcS-6" value="" style="endArrow=classic;startArrow=classic;html=1;" edge="1" parent="zWPt4ddoxy-hTkP56XcS-9">
          <mxGeometry width="50" height="50" relative="1" as="geometry">
            <mxPoint x="110" y="90" as="sourcePoint" />
            <mxPoint x="80" y="30" as="targetPoint" />
            <Array as="points">
              <mxPoint x="100" y="70" />
            </Array>
          </mxGeometry>
        </mxCell>
        <mxCell id="zWPt4ddoxy-hTkP56XcS-7" value="" style="endArrow=classic;startArrow=classic;html=1;" edge="1" parent="zWPt4ddoxy-hTkP56XcS-9" source="zWPt4ddoxy-hTkP56XcS-2">
          <mxGeometry width="50" height="50" relative="1" as="geometry">
            <mxPoint x="50" y="110" as="sourcePoint" />
            <mxPoint x="90" y="110" as="targetPoint" />
          </mxGeometry>
        </mxCell>
        <mxCell id="zWPt4ddoxy-hTkP56XcS-12" value="" style="shape=image;verticalLabelPosition=bottom;labelBackgroundColor=#ffffff;verticalAlign=top;aspect=fixed;imageAspect=0;image=https://static001.infoq.cn/resource/image/52/f8/52e36625af8e076da45984c1971174f8.png;" vertex="1" parent="1">
          <mxGeometry x="-4359.93" y="1870" width="520" height="234" as="geometry" />
        </mxCell>
        <mxCell id="zWPt4ddoxy-hTkP56XcS-13" value="企业架构 方法论/模型&lt;br&gt;&lt;br&gt;zachmann&amp;nbsp; 模型&amp;nbsp; 5W1H 事/人/责任&amp;amp;角色分配&lt;br&gt;&lt;br&gt;可以根据上面大的企业架构模型，结合关键业务活动，绘制出业务活动流程图。&lt;br&gt;业务流程图分部门/角色 用到，就得到了业务架构+流程图" style="text;html=1;strokeColor=none;fillColor=none;align=left;verticalAlign=middle;whiteSpace=wrap;rounded=0;" vertex="1" parent="1">
          <mxGeometry x="-4360" y="2260" width="520" height="130" as="geometry" />
        </mxCell>
        <mxCell id="zWPt4ddoxy-hTkP56XcS-29" value="" style="group" vertex="1" connectable="0" parent="1">
          <mxGeometry x="-4468.68" y="1210" width="737.5" height="530" as="geometry" />
        </mxCell>
        <mxCell id="zWPt4ddoxy-hTkP56XcS-14" value="客户关系：" style="rounded=0;whiteSpace=wrap;html=1;" vertex="1" parent="zWPt4ddoxy-hTkP56XcS-29">
          <mxGeometry x="110.90225563909775" y="290.2380952380953" width="133.0827067669173" height="75.71428571428572" as="geometry" />
        </mxCell>
        <mxCell id="zWPt4ddoxy-hTkP56XcS-15" value="客户细分：学生/家庭/商务/" style="rounded=0;whiteSpace=wrap;html=1;" vertex="1" parent="zWPt4ddoxy-hTkP56XcS-29">
          <mxGeometry x="110.90225563909775" y="378.57142857142856" width="133.0827067669173" height="75.71428571428572" as="geometry" />
        </mxCell>
        <mxCell id="zWPt4ddoxy-hTkP56XcS-16" value="关键活动：房源发布/库存维护/价格维护/营销活动维护/结算管理/订单管理" style="rounded=0;whiteSpace=wrap;html=1;" vertex="1" parent="zWPt4ddoxy-hTkP56XcS-29">
          <mxGeometry x="476.87969924812035" y="290.2380952380953" width="133.0827067669173" height="75.71428571428572" as="geometry" />
        </mxCell>
        <mxCell id="zWPt4ddoxy-hTkP56XcS-17" value="资源：房源" style="rounded=0;whiteSpace=wrap;html=1;" vertex="1" parent="zWPt4ddoxy-hTkP56XcS-29">
          <mxGeometry x="476.87969924812035" y="378.57142857142856" width="133.0827067669173" height="75.71428571428572" as="geometry" />
        </mxCell>
        <mxCell id="zWPt4ddoxy-hTkP56XcS-19" value="渠道：&lt;br&gt;小猪APP/小程序/公众号&lt;br&gt;&lt;br&gt;飞猪/马蜂窝...&amp;nbsp;" style="rounded=0;whiteSpace=wrap;html=1;" vertex="1" parent="zWPt4ddoxy-hTkP56XcS-29">
          <mxGeometry y="290.2380952380953" width="77.63157894736841" height="164.04761904761907" as="geometry" />
        </mxCell>
        <mxCell id="zWPt4ddoxy-hTkP56XcS-20" value="合作伙伴：&lt;br&gt;个人房东&lt;br&gt;专职房东&lt;br&gt;民宿品牌连锁&lt;br&gt;第三方平台" style="rounded=0;whiteSpace=wrap;html=1;" vertex="1" parent="zWPt4ddoxy-hTkP56XcS-29">
          <mxGeometry x="654.3233082706766" y="290.2380952380953" width="77.63157894736841" height="164.04761904761907" as="geometry" />
        </mxCell>
        <mxCell id="zWPt4ddoxy-hTkP56XcS-21" value="价值：提供快捷方便的住宿体验（预订/入住/售后）" style="rounded=0;whiteSpace=wrap;html=1;" vertex="1" parent="zWPt4ddoxy-hTkP56XcS-29">
          <mxGeometry x="299.43609022556393" y="290.2380952380953" width="144.17293233082705" height="164.04761904761907" as="geometry" />
        </mxCell>
        <mxCell id="zWPt4ddoxy-hTkP56XcS-22" value="收入：资源售卖收入" style="rounded=1;whiteSpace=wrap;html=1;" vertex="1" parent="zWPt4ddoxy-hTkP56XcS-29">
          <mxGeometry y="479.5238095238096" width="354.8872180451128" height="50.47619047619048" as="geometry" />
        </mxCell>
        <mxCell id="zWPt4ddoxy-hTkP56XcS-23" value="成本：管理成本/获客成本/资源成本/系统开发维护" style="rounded=1;whiteSpace=wrap;html=1;" vertex="1" parent="zWPt4ddoxy-hTkP56XcS-29">
          <mxGeometry x="377.0676691729323" y="479.5238095238096" width="354.8872180451128" height="50.47619047619048" as="geometry" />
        </mxCell>
        <mxCell id="zWPt4ddoxy-hTkP56XcS-24" value="战略：B端战略，通过更好的提升供给，来更好的给客户提供住宿体验" style="rounded=1;whiteSpace=wrap;html=1;" vertex="1" parent="zWPt4ddoxy-hTkP56XcS-29">
          <mxGeometry x="5.55" y="200" width="354.89" height="65" as="geometry" />
        </mxCell>
        <mxCell id="zWPt4ddoxy-hTkP56XcS-25" value="战略能力：&lt;br&gt;全国范围内民宿提供能力，&lt;br&gt;网上便捷民宿购买使用能力&lt;br&gt;房源维护能力（保洁/保险/摄影）" style="rounded=1;whiteSpace=wrap;html=1;" vertex="1" parent="zWPt4ddoxy-hTkP56XcS-29">
          <mxGeometry x="382.61" y="200" width="354.89" height="65" as="geometry" />
        </mxCell>
        <mxCell id="zWPt4ddoxy-hTkP56XcS-26" value="目标：让小猪成为中国最大的共享住宿平台" style="rounded=1;whiteSpace=wrap;html=1;" vertex="1" parent="zWPt4ddoxy-hTkP56XcS-29">
          <mxGeometry x="17.635338345864664" y="138.80952380952382" width="701.4567669172933" height="50.47619047619048" as="geometry" />
        </mxCell>
        <mxCell id="zWPt4ddoxy-hTkP56XcS-27" value="使命：通过共享房屋改变中国人的住宿" style="rounded=1;whiteSpace=wrap;html=1;" vertex="1" parent="zWPt4ddoxy-hTkP56XcS-29">
          <mxGeometry x="30.49812030075188" y="63.0952380952381" width="676.5037593984963" height="50.47619047619048" as="geometry" />
        </mxCell>
        <mxCell id="zWPt4ddoxy-hTkP56XcS-28" value="愿景：让小猪成为中国最大的共享住宿平台" style="rounded=1;whiteSpace=wrap;html=1;" vertex="1" parent="zWPt4ddoxy-hTkP56XcS-29">
          <mxGeometry x="119.21992481203009" width="487.96992481203006" height="50.47619047619048" as="geometry" />
        </mxCell>
        <mxCell id="zWPt4ddoxy-hTkP56XcS-30" value="&lt;br&gt;业务流程图可以使用用 BPMN （&lt;span&gt;业务流程模型和标记法&lt;/span&gt;）方法来绘制，也可以直接使用 活动时序图绘制&lt;br&gt;&lt;br&gt;关键活动绘制的业务流程图之后，可以根据四色建模方法，进行数据模型建模&lt;br&gt;&lt;br&gt;业务流程模型，根据需要，需要能够支持绘制四色建模。" style="text;html=1;strokeColor=none;fillColor=none;align=left;verticalAlign=middle;whiteSpace=wrap;rounded=0;" vertex="1" parent="1">
          <mxGeometry x="-4360" y="2410" width="520" height="150" as="geometry" />
        </mxCell>
        <mxCell id="zWPt4ddoxy-hTkP56XcS-34" value="&lt;p style=&quot;box-sizing: border-box ; margin-top: 0px ; margin-bottom: 16px ; color: rgb(36 , 41 , 46) ; font-family: , , , &amp;quot;pingfang sc&amp;quot; , &amp;quot;helvetica&amp;quot; , &amp;quot;arial&amp;quot; , &amp;quot;hiragino sans gb&amp;quot; , &amp;quot;microsoft yahei&amp;quot; , &amp;quot;simsun&amp;quot; , , &amp;quot;heiti&amp;quot; , , sans-serif ; font-size: 14px&quot;&gt;四色建模法基本的内容元素四种：&lt;/p&gt;&lt;ol style=&quot;box-sizing: border-box ; padding-left: 2em ; margin-top: 0px ; margin-bottom: 16px ; color: rgb(36 , 41 , 46) ; font-family: , , , &amp;quot;pingfang sc&amp;quot; , &amp;quot;helvetica&amp;quot; , &amp;quot;arial&amp;quot; , &amp;quot;hiragino sans gb&amp;quot; , &amp;quot;microsoft yahei&amp;quot; , &amp;quot;simsun&amp;quot; , , &amp;quot;heiti&amp;quot; , , sans-serif ; font-size: 14px&quot;&gt;&lt;li style=&quot;box-sizing: border-box&quot;&gt;时标型（Moment-Interval）对象:&lt;ul style=&quot;box-sizing: border-box ; padding-left: 2em ; margin-top: 0px ; margin-bottom: 0px&quot;&gt;&lt;li style=&quot;box-sizing: border-box&quot;&gt;粉红色&lt;/li&gt;&lt;li style=&quot;box-sizing: border-box ; margin-top: 0.25em&quot;&gt;表示在某个时刻或某一段时间内发生的某个活动。&lt;/li&gt;&lt;li style=&quot;box-sizing: border-box ; margin-top: 0.25em&quot;&gt;核心业务对象状态转换？&lt;/li&gt;&lt;li style=&quot;box-sizing: border-box ; margin-top: 0.25em&quot;&gt;what, when, how&lt;/li&gt;&lt;li style=&quot;box-sizing: border-box ; margin-top: 0.25em&quot;&gt;第一是事实不可变性：记录了过去某个时间点或时间段内发生的事实。&lt;/li&gt;&lt;li style=&quot;box-sizing: border-box ; margin-top: 0.25em&quot;&gt;第二是责任可追溯性：记录了管理者关注的信息。&lt;/li&gt;&lt;/ul&gt;&lt;/li&gt;&lt;li style=&quot;box-sizing: border-box ; margin-top: 0.25em&quot;&gt;PPT（Party/Place/Thing）对象&lt;ul style=&quot;box-sizing: border-box ; padding-left: 2em ; margin-top: 0px ; margin-bottom: 0px&quot;&gt;&lt;li style=&quot;box-sizing: border-box&quot;&gt;绿色&lt;/li&gt;&lt;li style=&quot;box-sizing: border-box ; margin-top: 0.25em&quot;&gt;参与方（Party）：订单就需要有客户，否则不知道是谁下单，客户对象就是参与方。支付单据就需要有客户和账户，客户对象和账户对象就是参与方。&lt;/li&gt;&lt;li style=&quot;box-sizing: border-box ; margin-top: 0.25em&quot;&gt;地点（Place）：配送单据就需要配送地址对象，否则就无法知道配送目的地。&lt;/li&gt;&lt;li style=&quot;box-sizing: border-box ; margin-top: 0.25em&quot;&gt;物品（Thing）：订单需要商品对象，否则无法说明买家到底购买了哪些商品。作为业务流程中核心步骤的被操作对象，并为时标对象提供必要信息，以便于后续信息追溯&lt;/li&gt;&lt;li style=&quot;box-sizing: border-box ; margin-top: 0.25em&quot;&gt;（what, where）&lt;/li&gt;&lt;/ul&gt;&lt;/li&gt;&lt;li style=&quot;box-sizing: border-box ; margin-top: 0.25em&quot;&gt;角色（Role）对象&lt;ul style=&quot;box-sizing: border-box ; padding-left: 2em ; margin-top: 0px ; margin-bottom: 0px&quot;&gt;&lt;li style=&quot;box-sizing: border-box&quot;&gt;黄色&lt;/li&gt;&lt;li style=&quot;box-sizing: border-box ; margin-top: 0.25em&quot;&gt;角色 (who)&lt;/li&gt;&lt;/ul&gt;&lt;/li&gt;&lt;li style=&quot;box-sizing: border-box ; margin-top: 0.25em&quot;&gt;描述（Description）&lt;ul style=&quot;box-sizing: border-box ; padding-left: 2em ; margin-top: 0px ; margin-bottom: 0px&quot;&gt;&lt;li style=&quot;box-sizing: border-box&quot;&gt;蓝色&lt;/li&gt;&lt;li style=&quot;box-sizing: border-box ; margin-top: 0.25em&quot;&gt;表示对PPT的本质描述&lt;/li&gt;&lt;li style=&quot;box-sizing: border-box ; margin-top: 0.25em&quot;&gt;Description是从PPT抽象出来的不变的共性的属性的集合。&lt;/li&gt;&lt;/ul&gt;&lt;/li&gt;&lt;/ol&gt;" style="text;html=1;strokeColor=none;fillColor=none;align=left;verticalAlign=middle;whiteSpace=wrap;rounded=0;" vertex="1" parent="1">
          <mxGeometry x="-4369.93" y="2600" width="530" height="540" as="geometry" />
        </mxCell>
        <mxCell id="zWPt4ddoxy-hTkP56XcS-85" value="用户" style="swimlane;html=1;childLayout=stackLayout;resizeParent=1;resizeParentMax=0;horizontal=0;startSize=20;horizontalStack=0;align=left;" vertex="1" parent="1">
          <mxGeometry x="-2540" y="310" width="1705" height="480" as="geometry" />
        </mxCell>
        <mxCell id="zWPt4ddoxy-hTkP56XcS-86" value="注册流程" style="swimlane;html=1;startSize=20;horizontal=0;" vertex="1" parent="zWPt4ddoxy-hTkP56XcS-85">
          <mxGeometry x="20" width="1685" height="120" as="geometry" />
        </mxCell>
        <mxCell id="zWPt4ddoxy-hTkP56XcS-37" value="User" style="html=1;whiteSpace=wrap;rounded=1;dropTarget=0;align=left;" vertex="1" parent="zWPt4ddoxy-hTkP56XcS-86">
          <mxGeometry x="53.38999999999987" y="20" width="120" height="80" as="geometry" />
        </mxCell>
        <mxCell id="zWPt4ddoxy-hTkP56XcS-38" value="" style="html=1;shape=mxgraph.bpmn.user_task;outlineConnect=0;" vertex="1" parent="zWPt4ddoxy-hTkP56XcS-37">
          <mxGeometry width="14" height="14" relative="1" as="geometry">
            <mxPoint x="7" y="7" as="offset" />
          </mxGeometry>
        </mxCell>
        <mxCell id="zWPt4ddoxy-hTkP56XcS-39" value="" style="html=1;shape=plus;outlineConnect=0;" vertex="1" parent="zWPt4ddoxy-hTkP56XcS-37">
          <mxGeometry x="0.5" y="1" width="14" height="14" relative="1" as="geometry">
            <mxPoint x="-7" y="-14" as="offset" />
          </mxGeometry>
        </mxCell>
        <mxCell id="zWPt4ddoxy-hTkP56XcS-35" value="用户注册" style="shape=ext;rounded=1;html=1;whiteSpace=wrap;align=left;" vertex="1" parent="zWPt4ddoxy-hTkP56XcS-86">
          <mxGeometry x="245" y="20" width="120" height="80" as="geometry" />
        </mxCell>
        <mxCell id="zWPt4ddoxy-hTkP56XcS-87" value="下单流程" style="swimlane;html=1;startSize=20;horizontal=0;" vertex="1" parent="zWPt4ddoxy-hTkP56XcS-85">
          <mxGeometry x="20" y="120" width="1685" height="120" as="geometry" />
        </mxCell>
        <mxCell id="zWPt4ddoxy-hTkP56XcS-84" value="" style="shape=mxgraph.bpmn.shape;html=1;verticalLabelPosition=bottom;labelBackgroundColor=#ffffff;verticalAlign=top;align=center;perimeter=ellipsePerimeter;outlineConnect=0;outline=standard;symbol=general;" vertex="1" parent="zWPt4ddoxy-hTkP56XcS-87">
          <mxGeometry x="85" y="40" width="50" height="50" as="geometry" />
        </mxCell>
        <mxCell id="zWPt4ddoxy-hTkP56XcS-74" value="Sub-Process&lt;br&gt;房源下单" style="html=1;whiteSpace=wrap;rounded=1;dropTarget=0;align=left;" vertex="1" parent="zWPt4ddoxy-hTkP56XcS-87">
          <mxGeometry x="245" y="20" width="120" height="80" as="geometry" />
        </mxCell>
        <mxCell id="zWPt4ddoxy-hTkP56XcS-75" value="" style="html=1;shape=plus;outlineConnect=0;" vertex="1" parent="zWPt4ddoxy-hTkP56XcS-74">
          <mxGeometry x="0.5" y="1" width="14" height="14" relative="1" as="geometry">
            <mxPoint x="-7" y="-14" as="offset" />
          </mxGeometry>
        </mxCell>
        <mxCell id="zWPt4ddoxy-hTkP56XcS-76" value="Sub-Process&lt;br&gt;订单支付" style="html=1;whiteSpace=wrap;rounded=1;dropTarget=0;align=left;" vertex="1" parent="zWPt4ddoxy-hTkP56XcS-87">
          <mxGeometry x="495" y="20" width="120" height="80" as="geometry" />
        </mxCell>
        <mxCell id="zWPt4ddoxy-hTkP56XcS-77" value="" style="html=1;shape=plus;outlineConnect=0;" vertex="1" parent="zWPt4ddoxy-hTkP56XcS-76">
          <mxGeometry x="0.5" y="1" width="14" height="14" relative="1" as="geometry">
            <mxPoint x="-7" y="-14" as="offset" />
          </mxGeometry>
        </mxCell>
        <mxCell id="zWPt4ddoxy-hTkP56XcS-78" value="Sub-Process&lt;br&gt;订单取消" style="html=1;whiteSpace=wrap;rounded=1;dropTarget=0;align=left;" vertex="1" parent="zWPt4ddoxy-hTkP56XcS-87">
          <mxGeometry x="735" y="20" width="120" height="80" as="geometry" />
        </mxCell>
        <mxCell id="zWPt4ddoxy-hTkP56XcS-79" value="" style="html=1;shape=plus;outlineConnect=0;" vertex="1" parent="zWPt4ddoxy-hTkP56XcS-78">
          <mxGeometry x="0.5" y="1" width="14" height="14" relative="1" as="geometry">
            <mxPoint x="-7" y="-14" as="offset" />
          </mxGeometry>
        </mxCell>
        <mxCell id="zWPt4ddoxy-hTkP56XcS-88" value="售后流程" style="swimlane;html=1;startSize=20;horizontal=0;" vertex="1" parent="zWPt4ddoxy-hTkP56XcS-85">
          <mxGeometry x="20" y="240" width="1685" height="120" as="geometry" />
        </mxCell>
        <mxCell id="zWPt4ddoxy-hTkP56XcS-178" style="edgeStyle=orthogonalEdgeStyle;rounded=0;orthogonalLoop=1;jettySize=auto;html=1;entryX=0;entryY=0.5;entryDx=0;entryDy=0;" edge="1" parent="zWPt4ddoxy-hTkP56XcS-88" source="zWPt4ddoxy-hTkP56XcS-82" target="zWPt4ddoxy-hTkP56XcS-170">
          <mxGeometry relative="1" as="geometry" />
        </mxCell>
        <mxCell id="zWPt4ddoxy-hTkP56XcS-82" value="Sub-Process&lt;br&gt;订单售后" style="html=1;whiteSpace=wrap;rounded=1;dropTarget=0;align=left;" vertex="1" parent="zWPt4ddoxy-hTkP56XcS-88">
          <mxGeometry x="360" y="47.5" width="120" height="55" as="geometry" />
        </mxCell>
        <mxCell id="zWPt4ddoxy-hTkP56XcS-83" value="" style="html=1;shape=plus;outlineConnect=0;" vertex="1" parent="zWPt4ddoxy-hTkP56XcS-82">
          <mxGeometry x="0.5" y="1" width="14" height="14" relative="1" as="geometry">
            <mxPoint x="-7" y="-14" as="offset" />
          </mxGeometry>
        </mxCell>
        <mxCell id="zWPt4ddoxy-hTkP56XcS-179" style="edgeStyle=orthogonalEdgeStyle;rounded=0;orthogonalLoop=1;jettySize=auto;html=1;entryX=0;entryY=0.5;entryDx=0;entryDy=0;" edge="1" parent="zWPt4ddoxy-hTkP56XcS-88" source="zWPt4ddoxy-hTkP56XcS-89" target="zWPt4ddoxy-hTkP56XcS-172">
          <mxGeometry relative="1" as="geometry" />
        </mxCell>
        <mxCell id="zWPt4ddoxy-hTkP56XcS-89" value="" style="shape=mxgraph.bpmn.shape;html=1;verticalLabelPosition=bottom;labelBackgroundColor=#ffffff;verticalAlign=top;align=center;perimeter=ellipsePerimeter;outlineConnect=0;outline=standard;symbol=general;" vertex="1" parent="zWPt4ddoxy-hTkP56XcS-88">
          <mxGeometry x="70" y="60" width="30" height="30" as="geometry" />
        </mxCell>
        <mxCell id="zWPt4ddoxy-hTkP56XcS-162" value="" style="shape=mxgraph.bpmn.shape;html=1;verticalLabelPosition=bottom;labelBackgroundColor=#ffffff;verticalAlign=top;align=center;perimeter=ellipsePerimeter;outlineConnect=0;outline=end;symbol=terminate;" vertex="1" parent="zWPt4ddoxy-hTkP56XcS-88">
          <mxGeometry x="520" y="10" width="30" height="30" as="geometry" />
        </mxCell>
        <mxCell id="zWPt4ddoxy-hTkP56XcS-170" value="" style="shape=mxgraph.bpmn.shape;html=1;verticalLabelPosition=bottom;labelBackgroundColor=#ffffff;verticalAlign=top;align=center;perimeter=ellipsePerimeter;outlineConnect=0;outline=end;symbol=general;" vertex="1" parent="zWPt4ddoxy-hTkP56XcS-88">
          <mxGeometry x="650" y="57.5" width="30" height="35" as="geometry" />
        </mxCell>
        <mxCell id="zWPt4ddoxy-hTkP56XcS-174" style="edgeStyle=orthogonalEdgeStyle;rounded=0;orthogonalLoop=1;jettySize=auto;html=1;entryX=0;entryY=0.5;entryDx=0;entryDy=0;" edge="1" parent="zWPt4ddoxy-hTkP56XcS-88" source="zWPt4ddoxy-hTkP56XcS-171" target="zWPt4ddoxy-hTkP56XcS-162">
          <mxGeometry relative="1" as="geometry" />
        </mxCell>
        <mxCell id="zWPt4ddoxy-hTkP56XcS-176" value="是" style="edgeLabel;html=1;align=center;verticalAlign=middle;resizable=0;points=[];" vertex="1" connectable="0" parent="zWPt4ddoxy-hTkP56XcS-174">
          <mxGeometry x="-0.3158" relative="1" as="geometry">
            <mxPoint as="offset" />
          </mxGeometry>
        </mxCell>
        <mxCell id="zWPt4ddoxy-hTkP56XcS-175" style="edgeStyle=orthogonalEdgeStyle;rounded=0;orthogonalLoop=1;jettySize=auto;html=1;exitX=0.5;exitY=1;exitDx=0;exitDy=0;entryX=-0.008;entryY=0.627;entryDx=0;entryDy=0;entryPerimeter=0;" edge="1" parent="zWPt4ddoxy-hTkP56XcS-88" source="zWPt4ddoxy-hTkP56XcS-171" target="zWPt4ddoxy-hTkP56XcS-82">
          <mxGeometry relative="1" as="geometry" />
        </mxCell>
        <mxCell id="zWPt4ddoxy-hTkP56XcS-177" value="否" style="edgeLabel;html=1;align=center;verticalAlign=middle;resizable=0;points=[];" vertex="1" connectable="0" parent="zWPt4ddoxy-hTkP56XcS-175">
          <mxGeometry x="0.2176" y="2" relative="1" as="geometry">
            <mxPoint as="offset" />
          </mxGeometry>
        </mxCell>
        <mxCell id="zWPt4ddoxy-hTkP56XcS-171" value="取消售后？" style="shape=mxgraph.bpmn.shape;html=1;verticalLabelPosition=bottom;labelBackgroundColor=#ffffff;verticalAlign=top;align=center;perimeter=rhombusPerimeter;background=gateway;outlineConnect=0;outline=none;symbol=exclusiveGw;" vertex="1" parent="zWPt4ddoxy-hTkP56XcS-88">
          <mxGeometry x="277.5" y="10" width="52.5" height="30" as="geometry" />
        </mxCell>
        <mxCell id="zWPt4ddoxy-hTkP56XcS-173" style="edgeStyle=orthogonalEdgeStyle;rounded=0;orthogonalLoop=1;jettySize=auto;html=1;entryX=0;entryY=0.5;entryDx=0;entryDy=0;" edge="1" parent="zWPt4ddoxy-hTkP56XcS-88" source="zWPt4ddoxy-hTkP56XcS-172" target="zWPt4ddoxy-hTkP56XcS-171">
          <mxGeometry relative="1" as="geometry" />
        </mxCell>
        <mxCell id="zWPt4ddoxy-hTkP56XcS-172" value="创建售后申请" style="shape=ext;rounded=1;html=1;whiteSpace=wrap;align=left;" vertex="1" parent="zWPt4ddoxy-hTkP56XcS-88">
          <mxGeometry x="140" y="55" width="85" height="40" as="geometry" />
        </mxCell>
        <mxCell id="zWPt4ddoxy-hTkP56XcS-102" value="评论流程" style="swimlane;startSize=20;horizontal=0;align=left;" vertex="1" parent="zWPt4ddoxy-hTkP56XcS-85">
          <mxGeometry x="20" y="360" width="1685" height="120" as="geometry" />
        </mxCell>
        <mxCell id="zWPt4ddoxy-hTkP56XcS-80" value="Sub-Process&lt;br&gt;订单评论" style="html=1;whiteSpace=wrap;rounded=1;dropTarget=0;align=left;" vertex="1" parent="zWPt4ddoxy-hTkP56XcS-102">
          <mxGeometry x="225" y="20" width="120" height="80" as="geometry" />
        </mxCell>
        <mxCell id="zWPt4ddoxy-hTkP56XcS-81" value="" style="html=1;shape=plus;outlineConnect=0;" vertex="1" parent="zWPt4ddoxy-hTkP56XcS-80">
          <mxGeometry x="0.5" y="1" width="14" height="14" relative="1" as="geometry">
            <mxPoint x="-7" y="-14" as="offset" />
          </mxGeometry>
        </mxCell>
        <mxCell id="zWPt4ddoxy-hTkP56XcS-107" value="" style="shape=mxgraph.bpmn.shape;html=1;verticalLabelPosition=bottom;labelBackgroundColor=#ffffff;verticalAlign=top;align=center;perimeter=ellipsePerimeter;outlineConnect=0;outline=standard;symbol=general;" vertex="1" parent="zWPt4ddoxy-hTkP56XcS-102">
          <mxGeometry x="85" y="40" width="50" height="50" as="geometry" />
        </mxCell>
        <mxCell id="zWPt4ddoxy-hTkP56XcS-109" value="房东" style="swimlane;html=1;childLayout=stackLayout;resizeParent=1;resizeParentMax=0;horizontal=0;startSize=20;horizontalStack=0;align=left;" vertex="1" parent="1">
          <mxGeometry x="-2530" y="2240" width="1710" height="933.1" as="geometry" />
        </mxCell>
        <mxCell id="zWPt4ddoxy-hTkP56XcS-110" value="注册流程" style="swimlane;html=1;startSize=20;horizontal=0;" vertex="1" parent="zWPt4ddoxy-hTkP56XcS-109">
          <mxGeometry x="20" width="1690" height="120" as="geometry" />
        </mxCell>
        <mxCell id="zWPt4ddoxy-hTkP56XcS-40" value="房东" style="html=1;whiteSpace=wrap;rounded=1;dropTarget=0;align=left;" vertex="1" parent="zWPt4ddoxy-hTkP56XcS-110">
          <mxGeometry x="60" y="20" width="120" height="80" as="geometry" />
        </mxCell>
        <mxCell id="zWPt4ddoxy-hTkP56XcS-41" value="" style="html=1;shape=mxgraph.bpmn.user_task;outlineConnect=0;" vertex="1" parent="zWPt4ddoxy-hTkP56XcS-40">
          <mxGeometry width="14" height="14" relative="1" as="geometry">
            <mxPoint x="7" y="7" as="offset" />
          </mxGeometry>
        </mxCell>
        <mxCell id="zWPt4ddoxy-hTkP56XcS-42" value="" style="html=1;shape=plus;outlineConnect=0;" vertex="1" parent="zWPt4ddoxy-hTkP56XcS-40">
          <mxGeometry x="0.5" y="1" width="14" height="14" relative="1" as="geometry">
            <mxPoint x="-7" y="-14" as="offset" />
          </mxGeometry>
        </mxCell>
        <mxCell id="zWPt4ddoxy-hTkP56XcS-36" value="房东注册" style="shape=ext;rounded=1;html=1;whiteSpace=wrap;align=left;" vertex="1" parent="zWPt4ddoxy-hTkP56XcS-110">
          <mxGeometry x="245" y="20" width="120" height="80" as="geometry" />
        </mxCell>
        <mxCell id="zWPt4ddoxy-hTkP56XcS-111" value="资质审核流程" style="swimlane;html=1;startSize=20;horizontal=0;" vertex="1" parent="zWPt4ddoxy-hTkP56XcS-109">
          <mxGeometry x="20" y="120" width="1690" height="213.10000000000002" as="geometry" />
        </mxCell>
        <mxCell id="zWPt4ddoxy-hTkP56XcS-54" value="Sub-Process：&lt;br&gt;资质管理" style="html=1;whiteSpace=wrap;rounded=1;dropTarget=0;align=left;" vertex="1" parent="zWPt4ddoxy-hTkP56XcS-111">
          <mxGeometry x="70" y="10" width="120" height="80" as="geometry" />
        </mxCell>
        <mxCell id="zWPt4ddoxy-hTkP56XcS-55" value="" style="html=1;shape=plus;outlineConnect=0;" vertex="1" parent="zWPt4ddoxy-hTkP56XcS-54">
          <mxGeometry x="0.5" y="1" width="14" height="14" relative="1" as="geometry">
            <mxPoint x="-7" y="-14" as="offset" />
          </mxGeometry>
        </mxCell>
        <mxCell id="zWPt4ddoxy-hTkP56XcS-100" value="" style="group" vertex="1" connectable="0" parent="zWPt4ddoxy-hTkP56XcS-111">
          <mxGeometry x="400" y="3.1000000000000227" width="300" height="210" as="geometry" />
        </mxCell>
        <mxCell id="zWPt4ddoxy-hTkP56XcS-49" value="Transaction：审核资质" style="shape=ext;rounded=1;html=1;whiteSpace=wrap;double=1;align=left;" vertex="1" parent="zWPt4ddoxy-hTkP56XcS-100">
          <mxGeometry y="157.5" width="124.13793103448276" height="52.5" as="geometry" />
        </mxCell>
        <mxCell id="zWPt4ddoxy-hTkP56XcS-50" value="房东上传资质信息" style="shape=ext;rounded=1;html=1;whiteSpace=wrap;align=left;" vertex="1" parent="zWPt4ddoxy-hTkP56XcS-100">
          <mxGeometry width="124.13793103448276" height="52.5" as="geometry" />
        </mxCell>
        <mxCell id="zWPt4ddoxy-hTkP56XcS-51" value="房东更新资质信息" style="shape=ext;rounded=1;html=1;whiteSpace=wrap;align=left;" vertex="1" parent="zWPt4ddoxy-hTkP56XcS-100">
          <mxGeometry x="175.86206896551727" width="124.13793103448276" height="52.5" as="geometry" />
        </mxCell>
        <mxCell id="zWPt4ddoxy-hTkP56XcS-60" style="edgeStyle=orthogonalEdgeStyle;rounded=0;orthogonalLoop=1;jettySize=auto;html=1;entryX=0.5;entryY=0;entryDx=0;entryDy=0;" edge="1" parent="zWPt4ddoxy-hTkP56XcS-100" source="zWPt4ddoxy-hTkP56XcS-52" target="zWPt4ddoxy-hTkP56XcS-49">
          <mxGeometry relative="1" as="geometry" />
        </mxCell>
        <mxCell id="zWPt4ddoxy-hTkP56XcS-52" value="房东申请资质审核" style="shape=ext;rounded=1;html=1;whiteSpace=wrap;align=left;" vertex="1" parent="zWPt4ddoxy-hTkP56XcS-100">
          <mxGeometry y="85.3125" width="124.13793103448276" height="52.5" as="geometry" />
        </mxCell>
        <mxCell id="zWPt4ddoxy-hTkP56XcS-56" value="房东撤销资质审核" style="shape=ext;rounded=1;html=1;whiteSpace=wrap;align=left;" vertex="1" parent="zWPt4ddoxy-hTkP56XcS-100">
          <mxGeometry x="175.86206896551727" y="85.3125" width="124.13793103448276" height="52.5" as="geometry" />
        </mxCell>
        <mxCell id="zWPt4ddoxy-hTkP56XcS-61" style="edgeStyle=orthogonalEdgeStyle;rounded=0;orthogonalLoop=1;jettySize=auto;html=1;entryX=0.5;entryY=0;entryDx=0;entryDy=0;" edge="1" parent="zWPt4ddoxy-hTkP56XcS-100" source="zWPt4ddoxy-hTkP56XcS-50" target="zWPt4ddoxy-hTkP56XcS-52">
          <mxGeometry relative="1" as="geometry" />
        </mxCell>
        <mxCell id="zWPt4ddoxy-hTkP56XcS-58" value="" style="startArrow=diamondThin;startFill=0;startSize=14;endArrow=block;endFill=1;endSize=6;html=1;exitX=1;exitY=0.5;exitDx=0;exitDy=0;entryX=0;entryY=0.5;entryDx=0;entryDy=0;" edge="1" parent="zWPt4ddoxy-hTkP56XcS-100" source="zWPt4ddoxy-hTkP56XcS-50" target="zWPt4ddoxy-hTkP56XcS-51">
          <mxGeometry width="100" relative="1" as="geometry">
            <mxPoint x="124.13793103448276" y="-13.125" as="sourcePoint" />
            <mxPoint x="227.58620689655174" y="-13.125" as="targetPoint" />
          </mxGeometry>
        </mxCell>
        <mxCell id="zWPt4ddoxy-hTkP56XcS-59" value="" style="startArrow=diamondThin;startFill=0;startSize=14;endArrow=block;endFill=1;endSize=6;html=1;exitX=1;exitY=0.5;exitDx=0;exitDy=0;" edge="1" parent="zWPt4ddoxy-hTkP56XcS-100" source="zWPt4ddoxy-hTkP56XcS-52">
          <mxGeometry width="100" relative="1" as="geometry">
            <mxPoint x="134.48275862068965" y="111.5625" as="sourcePoint" />
            <mxPoint x="175.86206896551727" y="111.5625" as="targetPoint" />
          </mxGeometry>
        </mxCell>
        <mxCell id="zWPt4ddoxy-hTkP56XcS-112" value="房源管理流程" style="swimlane;html=1;startSize=20;horizontal=0;" vertex="1" parent="zWPt4ddoxy-hTkP56XcS-109">
          <mxGeometry x="20" y="333.1" width="1690" height="120" as="geometry" />
        </mxCell>
        <mxCell id="zWPt4ddoxy-hTkP56XcS-66" value="Sub-Process&lt;br&gt;价格日历设置" style="html=1;whiteSpace=wrap;rounded=1;dropTarget=0;align=left;" vertex="1" parent="zWPt4ddoxy-hTkP56XcS-112">
          <mxGeometry x="509.99999999999983" y="20" width="120" height="80" as="geometry" />
        </mxCell>
        <mxCell id="zWPt4ddoxy-hTkP56XcS-67" value="" style="html=1;shape=plus;outlineConnect=0;" vertex="1" parent="zWPt4ddoxy-hTkP56XcS-66">
          <mxGeometry x="0.5" y="1" width="14" height="14" relative="1" as="geometry">
            <mxPoint x="-7" y="-14" as="offset" />
          </mxGeometry>
        </mxCell>
        <mxCell id="zWPt4ddoxy-hTkP56XcS-68" value="Sub-Process&lt;br&gt;基本信息设置" style="html=1;whiteSpace=wrap;rounded=1;dropTarget=0;align=left;" vertex="1" parent="zWPt4ddoxy-hTkP56XcS-112">
          <mxGeometry x="679.5899999999999" y="20" width="120" height="80" as="geometry" />
        </mxCell>
        <mxCell id="zWPt4ddoxy-hTkP56XcS-69" value="" style="html=1;shape=plus;outlineConnect=0;" vertex="1" parent="zWPt4ddoxy-hTkP56XcS-68">
          <mxGeometry x="0.5" y="1" width="14" height="14" relative="1" as="geometry">
            <mxPoint x="-7" y="-14" as="offset" />
          </mxGeometry>
        </mxCell>
        <mxCell id="zWPt4ddoxy-hTkP56XcS-62" value="Sub-Process&lt;br&gt;发布房源" style="html=1;whiteSpace=wrap;rounded=1;dropTarget=0;align=left;" vertex="1" parent="zWPt4ddoxy-hTkP56XcS-112">
          <mxGeometry x="350" y="20" width="120" height="80" as="geometry" />
        </mxCell>
        <mxCell id="zWPt4ddoxy-hTkP56XcS-63" value="" style="html=1;shape=plus;outlineConnect=0;" vertex="1" parent="zWPt4ddoxy-hTkP56XcS-62">
          <mxGeometry x="0.5" y="1" width="14" height="14" relative="1" as="geometry">
            <mxPoint x="-7" y="-14" as="offset" />
          </mxGeometry>
        </mxCell>
        <mxCell id="zWPt4ddoxy-hTkP56XcS-96" value="" style="shape=mxgraph.bpmn.shape;html=1;verticalLabelPosition=bottom;labelBackgroundColor=#ffffff;verticalAlign=top;align=center;perimeter=ellipsePerimeter;outlineConnect=0;outline=standard;symbol=general;" vertex="1" parent="zWPt4ddoxy-hTkP56XcS-112">
          <mxGeometry x="210" y="40" width="50" height="50" as="geometry" />
        </mxCell>
        <mxCell id="zWPt4ddoxy-hTkP56XcS-113" value="订单管理流程" style="swimlane;startSize=20;horizontal=0;align=left;" vertex="1" parent="zWPt4ddoxy-hTkP56XcS-109">
          <mxGeometry x="20" y="453.1" width="1690" height="120" as="geometry" />
        </mxCell>
        <mxCell id="zWPt4ddoxy-hTkP56XcS-116" value="" style="group" vertex="1" connectable="0" parent="zWPt4ddoxy-hTkP56XcS-113">
          <mxGeometry x="350" y="16.90000000000009" width="250" height="80" as="geometry" />
        </mxCell>
        <mxCell id="zWPt4ddoxy-hTkP56XcS-70" value="Sub-Process:&lt;br&gt;订单管理" style="html=1;whiteSpace=wrap;rounded=1;dropTarget=0;align=left;" vertex="1" parent="zWPt4ddoxy-hTkP56XcS-116">
          <mxGeometry x="130" width="120" height="80" as="geometry" />
        </mxCell>
        <mxCell id="zWPt4ddoxy-hTkP56XcS-71" value="" style="html=1;shape=plus;outlineConnect=0;" vertex="1" parent="zWPt4ddoxy-hTkP56XcS-70">
          <mxGeometry x="0.5" y="1" width="14" height="14" relative="1" as="geometry">
            <mxPoint x="-7" y="-14" as="offset" />
          </mxGeometry>
        </mxCell>
        <mxCell id="zWPt4ddoxy-hTkP56XcS-98" value="" style="shape=mxgraph.bpmn.shape;html=1;verticalLabelPosition=bottom;labelBackgroundColor=#ffffff;verticalAlign=top;align=center;perimeter=ellipsePerimeter;outlineConnect=0;outline=standard;symbol=message;" vertex="1" parent="zWPt4ddoxy-hTkP56XcS-116">
          <mxGeometry y="15" width="50" height="50" as="geometry" />
        </mxCell>
        <mxCell id="zWPt4ddoxy-hTkP56XcS-182" value="结算管理流程" style="swimlane;startSize=20;horizontal=0;align=left;" vertex="1" parent="zWPt4ddoxy-hTkP56XcS-109">
          <mxGeometry x="20" y="573.1" width="1690" height="120" as="geometry" />
        </mxCell>
        <mxCell id="zWPt4ddoxy-hTkP56XcS-183" value="Sub-Process:&lt;br&gt;资金结算管理" style="html=1;whiteSpace=wrap;rounded=1;dropTarget=0;align=left;" vertex="1" parent="zWPt4ddoxy-hTkP56XcS-182">
          <mxGeometry x="330" y="36.90000000000009" width="120" height="80" as="geometry" />
        </mxCell>
        <mxCell id="zWPt4ddoxy-hTkP56XcS-184" value="" style="html=1;shape=plus;outlineConnect=0;" vertex="1" parent="zWPt4ddoxy-hTkP56XcS-183">
          <mxGeometry x="0.5" y="1" width="14" height="14" relative="1" as="geometry">
            <mxPoint x="-7" y="-14" as="offset" />
          </mxGeometry>
        </mxCell>
        <mxCell id="zWPt4ddoxy-hTkP56XcS-217" value="活动管理流程" style="swimlane;startSize=20;horizontal=0;align=left;" vertex="1" parent="zWPt4ddoxy-hTkP56XcS-109">
          <mxGeometry x="20" y="693.1" width="1690" height="120" as="geometry" />
        </mxCell>
        <mxCell id="zWPt4ddoxy-hTkP56XcS-64" value="Sub-Process&lt;br&gt;房源活动管理" style="html=1;whiteSpace=wrap;rounded=1;dropTarget=0;align=left;" vertex="1" parent="zWPt4ddoxy-hTkP56XcS-217">
          <mxGeometry x="325" y="26.9" width="120" height="80" as="geometry" />
        </mxCell>
        <mxCell id="zWPt4ddoxy-hTkP56XcS-65" value="" style="html=1;shape=plus;outlineConnect=0;" vertex="1" parent="zWPt4ddoxy-hTkP56XcS-64">
          <mxGeometry x="0.5" y="1" width="14" height="14" relative="1" as="geometry">
            <mxPoint x="-7" y="-14" as="offset" />
          </mxGeometry>
        </mxCell>
        <mxCell id="zWPt4ddoxy-hTkP56XcS-114" value="结算管理流程" style="swimlane;startSize=20;horizontal=0;align=left;" vertex="1" parent="zWPt4ddoxy-hTkP56XcS-109">
          <mxGeometry x="20" y="813.1" width="1690" height="120" as="geometry" />
        </mxCell>
        <mxCell id="zWPt4ddoxy-hTkP56XcS-72" value="Sub-Process:&lt;br&gt;资金结算管理" style="html=1;whiteSpace=wrap;rounded=1;dropTarget=0;align=left;" vertex="1" parent="zWPt4ddoxy-hTkP56XcS-114">
          <mxGeometry x="315" y="26.90000000000009" width="120" height="80" as="geometry" />
        </mxCell>
        <mxCell id="zWPt4ddoxy-hTkP56XcS-73" value="" style="html=1;shape=plus;outlineConnect=0;" vertex="1" parent="zWPt4ddoxy-hTkP56XcS-72">
          <mxGeometry x="0.5" y="1" width="14" height="14" relative="1" as="geometry">
            <mxPoint x="-7" y="-14" as="offset" />
          </mxGeometry>
        </mxCell>
        <mxCell id="zWPt4ddoxy-hTkP56XcS-218" value="Sub-Process&lt;br&gt;订单资金结算" style="html=1;whiteSpace=wrap;rounded=1;dropTarget=0;align=left;" vertex="1" parent="zWPt4ddoxy-hTkP56XcS-114">
          <mxGeometry x="520" y="26.90000000000009" width="120" height="80" as="geometry" />
        </mxCell>
        <mxCell id="zWPt4ddoxy-hTkP56XcS-219" value="" style="html=1;shape=plus;outlineConnect=0;" vertex="1" parent="zWPt4ddoxy-hTkP56XcS-218">
          <mxGeometry x="0.5" y="1" width="14" height="14" relative="1" as="geometry">
            <mxPoint x="-7" y="-14" as="offset" />
          </mxGeometry>
        </mxCell>
        <mxCell id="zWPt4ddoxy-hTkP56XcS-220" value="Sub-Process&lt;br&gt;活动资金结算" style="html=1;whiteSpace=wrap;rounded=1;dropTarget=0;align=left;" vertex="1" parent="zWPt4ddoxy-hTkP56XcS-114">
          <mxGeometry x="710" y="26.90000000000009" width="120" height="80" as="geometry" />
        </mxCell>
        <mxCell id="zWPt4ddoxy-hTkP56XcS-221" value="" style="html=1;shape=plus;outlineConnect=0;" vertex="1" parent="zWPt4ddoxy-hTkP56XcS-220">
          <mxGeometry x="0.5" y="1" width="14" height="14" relative="1" as="geometry">
            <mxPoint x="-7" y="-14" as="offset" />
          </mxGeometry>
        </mxCell>
        <mxCell id="zWPt4ddoxy-hTkP56XcS-118" value="小猪平台" style="swimlane;html=1;childLayout=stackLayout;resizeParent=1;resizeParentMax=0;horizontal=0;startSize=20;horizontalStack=0;align=left;" vertex="1" parent="1">
          <mxGeometry x="-2540" y="1020" width="1710" height="1030" as="geometry" />
        </mxCell>
        <mxCell id="zWPt4ddoxy-hTkP56XcS-206" value="房东注册管理流程" style="swimlane;startSize=20;horizontal=0;align=left;" vertex="1" parent="zWPt4ddoxy-hTkP56XcS-118">
          <mxGeometry x="20" width="1690" height="120" as="geometry" />
        </mxCell>
        <mxCell id="zWPt4ddoxy-hTkP56XcS-204" value="房东注册通知" style="shape=mxgraph.bpmn.shape;html=1;verticalLabelPosition=bottom;labelBackgroundColor=#ffffff;verticalAlign=top;align=center;perimeter=ellipsePerimeter;outlineConnect=0;outline=eventNonint;symbol=message;" vertex="1" parent="zWPt4ddoxy-hTkP56XcS-206">
          <mxGeometry x="90" y="35" width="50" height="50" as="geometry" />
        </mxCell>
        <mxCell id="zWPt4ddoxy-hTkP56XcS-207" value="房东管理流程" style="shape=ext;rounded=1;html=1;whiteSpace=wrap;align=left;" vertex="1" parent="zWPt4ddoxy-hTkP56XcS-206">
          <mxGeometry x="250" y="30" width="120" height="80" as="geometry" />
        </mxCell>
        <mxCell id="zWPt4ddoxy-hTkP56XcS-208" value="惩戒流程" style="html=1;whiteSpace=wrap;rounded=1;dropTarget=0;align=left;" vertex="1" parent="zWPt4ddoxy-hTkP56XcS-206">
          <mxGeometry x="455" y="30" width="120" height="80" as="geometry" />
        </mxCell>
        <mxCell id="zWPt4ddoxy-hTkP56XcS-209" value="" style="html=1;shape=plus;outlineConnect=0;" vertex="1" parent="zWPt4ddoxy-hTkP56XcS-208">
          <mxGeometry x="0.5" y="1" width="14" height="14" relative="1" as="geometry">
            <mxPoint x="-7" y="-14" as="offset" />
          </mxGeometry>
        </mxCell>
        <mxCell id="zWPt4ddoxy-hTkP56XcS-210" value="解封流程" style="html=1;whiteSpace=wrap;rounded=1;dropTarget=0;align=left;" vertex="1" parent="zWPt4ddoxy-hTkP56XcS-206">
          <mxGeometry x="670" y="30" width="120" height="80" as="geometry" />
        </mxCell>
        <mxCell id="zWPt4ddoxy-hTkP56XcS-211" value="" style="html=1;shape=plus;outlineConnect=0;" vertex="1" parent="zWPt4ddoxy-hTkP56XcS-210">
          <mxGeometry x="0.5" y="1" width="14" height="14" relative="1" as="geometry">
            <mxPoint x="-7" y="-14" as="offset" />
          </mxGeometry>
        </mxCell>
        <mxCell id="zWPt4ddoxy-hTkP56XcS-119" value="用户管理流程" style="swimlane;html=1;startSize=20;horizontal=0;" vertex="1" parent="zWPt4ddoxy-hTkP56XcS-118">
          <mxGeometry x="20" y="120" width="1690" height="120" as="geometry" />
        </mxCell>
        <mxCell id="zWPt4ddoxy-hTkP56XcS-123" value="用户管理流程" style="shape=ext;rounded=1;html=1;whiteSpace=wrap;align=left;" vertex="1" parent="zWPt4ddoxy-hTkP56XcS-119">
          <mxGeometry x="260" y="30" width="120" height="80" as="geometry" />
        </mxCell>
        <mxCell id="zWPt4ddoxy-hTkP56XcS-205" value="用户注册通知" style="shape=mxgraph.bpmn.shape;html=1;verticalLabelPosition=bottom;labelBackgroundColor=#ffffff;verticalAlign=top;align=center;perimeter=ellipsePerimeter;outlineConnect=0;outline=eventNonint;symbol=message;" vertex="1" parent="zWPt4ddoxy-hTkP56XcS-119">
          <mxGeometry x="100" y="35" width="50" height="50" as="geometry" />
        </mxCell>
        <mxCell id="zWPt4ddoxy-hTkP56XcS-212" value="拉黑流程" style="html=1;whiteSpace=wrap;rounded=1;dropTarget=0;align=left;" vertex="1" parent="zWPt4ddoxy-hTkP56XcS-119">
          <mxGeometry x="455" y="20" width="120" height="80" as="geometry" />
        </mxCell>
        <mxCell id="zWPt4ddoxy-hTkP56XcS-213" value="" style="html=1;shape=plus;outlineConnect=0;" vertex="1" parent="zWPt4ddoxy-hTkP56XcS-212">
          <mxGeometry x="0.5" y="1" width="14" height="14" relative="1" as="geometry">
            <mxPoint x="-7" y="-14" as="offset" />
          </mxGeometry>
        </mxCell>
        <mxCell id="zWPt4ddoxy-hTkP56XcS-214" value="解封流程" style="html=1;whiteSpace=wrap;rounded=1;dropTarget=0;align=left;" vertex="1" parent="zWPt4ddoxy-hTkP56XcS-119">
          <mxGeometry x="660" y="20" width="120" height="80" as="geometry" />
        </mxCell>
        <mxCell id="zWPt4ddoxy-hTkP56XcS-215" value="" style="html=1;shape=plus;outlineConnect=0;" vertex="1" parent="zWPt4ddoxy-hTkP56XcS-214">
          <mxGeometry x="0.5" y="1" width="14" height="14" relative="1" as="geometry">
            <mxPoint x="-7" y="-14" as="offset" />
          </mxGeometry>
        </mxCell>
        <mxCell id="zWPt4ddoxy-hTkP56XcS-124" value="资质审核流程" style="swimlane;html=1;startSize=20;horizontal=0;" vertex="1" parent="zWPt4ddoxy-hTkP56XcS-118">
          <mxGeometry x="20" y="240" width="1690" height="186" as="geometry" />
        </mxCell>
        <mxCell id="zWPt4ddoxy-hTkP56XcS-125" value="Sub-Process：&lt;br&gt;资质管理" style="html=1;whiteSpace=wrap;rounded=1;dropTarget=0;align=left;" vertex="1" parent="zWPt4ddoxy-hTkP56XcS-124">
          <mxGeometry x="195" y="57" width="120" height="80" as="geometry" />
        </mxCell>
        <mxCell id="zWPt4ddoxy-hTkP56XcS-126" value="" style="html=1;shape=plus;outlineConnect=0;" vertex="1" parent="zWPt4ddoxy-hTkP56XcS-125">
          <mxGeometry x="0.5" y="1" width="14" height="14" relative="1" as="geometry">
            <mxPoint x="-7" y="-14" as="offset" />
          </mxGeometry>
        </mxCell>
        <mxCell id="zWPt4ddoxy-hTkP56XcS-158" value="Sub-Process：&lt;br&gt;资质审核流程" style="html=1;whiteSpace=wrap;rounded=1;dropTarget=0;align=left;" vertex="1" parent="zWPt4ddoxy-hTkP56XcS-124">
          <mxGeometry x="363" y="53" width="120" height="80" as="geometry" />
        </mxCell>
        <mxCell id="zWPt4ddoxy-hTkP56XcS-159" value="" style="html=1;shape=plus;outlineConnect=0;" vertex="1" parent="zWPt4ddoxy-hTkP56XcS-158">
          <mxGeometry x="0.5" y="1" width="14" height="14" relative="1" as="geometry">
            <mxPoint x="-7" y="-14" as="offset" />
          </mxGeometry>
        </mxCell>
        <mxCell id="zWPt4ddoxy-hTkP56XcS-160" value="资质审核申请通知" style="shape=mxgraph.bpmn.shape;html=1;verticalLabelPosition=bottom;labelBackgroundColor=#ffffff;verticalAlign=top;align=center;perimeter=ellipsePerimeter;outlineConnect=0;outline=eventNonint;symbol=message;" vertex="1" parent="zWPt4ddoxy-hTkP56XcS-124">
          <mxGeometry x="70" y="78" width="50" height="50" as="geometry" />
        </mxCell>
        <mxCell id="zWPt4ddoxy-hTkP56XcS-137" value="房源管理流程" style="swimlane;html=1;startSize=20;horizontal=0;" vertex="1" parent="zWPt4ddoxy-hTkP56XcS-118">
          <mxGeometry x="20" y="426" width="1690" height="120" as="geometry" />
        </mxCell>
        <mxCell id="zWPt4ddoxy-hTkP56XcS-147" value="" style="shape=mxgraph.bpmn.shape;html=1;verticalLabelPosition=bottom;labelBackgroundColor=#ffffff;verticalAlign=top;align=center;perimeter=ellipsePerimeter;outlineConnect=0;outline=standard;symbol=general;" vertex="1" parent="zWPt4ddoxy-hTkP56XcS-137">
          <mxGeometry x="185" y="14" width="40" height="36" as="geometry" />
        </mxCell>
        <mxCell id="zWPt4ddoxy-hTkP56XcS-156" value="Sub-Process&lt;br&gt;房源审核" style="html=1;whiteSpace=wrap;rounded=1;dropTarget=0;align=left;" vertex="1" parent="zWPt4ddoxy-hTkP56XcS-137">
          <mxGeometry x="340" y="20" width="120" height="80" as="geometry" />
        </mxCell>
        <mxCell id="zWPt4ddoxy-hTkP56XcS-157" value="" style="html=1;shape=plus;outlineConnect=0;" vertex="1" parent="zWPt4ddoxy-hTkP56XcS-156">
          <mxGeometry x="0.5" y="1" width="14" height="14" relative="1" as="geometry">
            <mxPoint x="-7" y="-14" as="offset" />
          </mxGeometry>
        </mxCell>
        <mxCell id="zWPt4ddoxy-hTkP56XcS-203" value="房源上线通知" style="shape=mxgraph.bpmn.shape;html=1;verticalLabelPosition=bottom;labelBackgroundColor=#ffffff;verticalAlign=top;align=center;perimeter=ellipsePerimeter;outlineConnect=0;outline=standard;symbol=message;" vertex="1" parent="zWPt4ddoxy-hTkP56XcS-137">
          <mxGeometry x="185" y="66" width="40" height="34" as="geometry" />
        </mxCell>
        <mxCell id="zWPt4ddoxy-hTkP56XcS-148" value="订单管理流程" style="swimlane;startSize=20;horizontal=0;align=left;" vertex="1" parent="zWPt4ddoxy-hTkP56XcS-118">
          <mxGeometry x="20" y="546" width="1690" height="120" as="geometry" />
        </mxCell>
        <mxCell id="zWPt4ddoxy-hTkP56XcS-149" value="" style="group" vertex="1" connectable="0" parent="zWPt4ddoxy-hTkP56XcS-148">
          <mxGeometry x="208" y="23.90000000000009" width="250" height="80" as="geometry" />
        </mxCell>
        <mxCell id="zWPt4ddoxy-hTkP56XcS-150" value="Sub-Process:&lt;br&gt;订单价格计算" style="html=1;whiteSpace=wrap;rounded=1;dropTarget=0;align=left;" vertex="1" parent="zWPt4ddoxy-hTkP56XcS-149">
          <mxGeometry x="130" width="120" height="80" as="geometry" />
        </mxCell>
        <mxCell id="zWPt4ddoxy-hTkP56XcS-151" value="" style="html=1;shape=plus;outlineConnect=0;" vertex="1" parent="zWPt4ddoxy-hTkP56XcS-150">
          <mxGeometry x="0.5" y="1" width="14" height="14" relative="1" as="geometry">
            <mxPoint x="-7" y="-14" as="offset" />
          </mxGeometry>
        </mxCell>
        <mxCell id="zWPt4ddoxy-hTkP56XcS-152" value="" style="shape=mxgraph.bpmn.shape;html=1;verticalLabelPosition=bottom;labelBackgroundColor=#ffffff;verticalAlign=top;align=center;perimeter=ellipsePerimeter;outlineConnect=0;outline=standard;symbol=message;" vertex="1" parent="zWPt4ddoxy-hTkP56XcS-149">
          <mxGeometry y="15" width="50" height="50" as="geometry" />
        </mxCell>
        <mxCell id="zWPt4ddoxy-hTkP56XcS-153" value="结算管理流程" style="swimlane;startSize=20;horizontal=0;align=left;" vertex="1" parent="zWPt4ddoxy-hTkP56XcS-118">
          <mxGeometry x="20" y="666" width="1690" height="120" as="geometry" />
        </mxCell>
        <mxCell id="zWPt4ddoxy-hTkP56XcS-154" value="Sub-Process:&lt;br&gt;资金结算管理" style="html=1;whiteSpace=wrap;rounded=1;dropTarget=0;align=left;" vertex="1" parent="zWPt4ddoxy-hTkP56XcS-153">
          <mxGeometry x="338" y="20.000000000000092" width="120" height="80" as="geometry" />
        </mxCell>
        <mxCell id="zWPt4ddoxy-hTkP56XcS-155" value="" style="html=1;shape=plus;outlineConnect=0;" vertex="1" parent="zWPt4ddoxy-hTkP56XcS-154">
          <mxGeometry x="0.5" y="1" width="14" height="14" relative="1" as="geometry">
            <mxPoint x="-7" y="-14" as="offset" />
          </mxGeometry>
        </mxCell>
        <mxCell id="zWPt4ddoxy-hTkP56XcS-168" value="" style="shape=mxgraph.bpmn.shape;html=1;verticalLabelPosition=bottom;labelBackgroundColor=#ffffff;verticalAlign=top;align=center;perimeter=ellipsePerimeter;outlineConnect=0;outline=standard;symbol=timer;" vertex="1" parent="zWPt4ddoxy-hTkP56XcS-153">
          <mxGeometry x="200" y="37.5" width="50" height="50" as="geometry" />
        </mxCell>
        <mxCell id="zWPt4ddoxy-hTkP56XcS-195" value="Sub-Process&lt;br&gt;生成账单" style="html=1;whiteSpace=wrap;rounded=1;dropTarget=0;align=left;" vertex="1" parent="zWPt4ddoxy-hTkP56XcS-153">
          <mxGeometry x="530" y="20" width="120" height="80" as="geometry" />
        </mxCell>
        <mxCell id="zWPt4ddoxy-hTkP56XcS-196" value="" style="html=1;shape=plus;outlineConnect=0;" vertex="1" parent="zWPt4ddoxy-hTkP56XcS-195">
          <mxGeometry x="0.5" y="1" width="14" height="14" relative="1" as="geometry">
            <mxPoint x="-7" y="-14" as="offset" />
          </mxGeometry>
        </mxCell>
        <mxCell id="zWPt4ddoxy-hTkP56XcS-197" value="Sub-Process&lt;br&gt;确认账单" style="html=1;whiteSpace=wrap;rounded=1;dropTarget=0;align=left;" vertex="1" parent="zWPt4ddoxy-hTkP56XcS-153">
          <mxGeometry x="720" y="22.5" width="120" height="80" as="geometry" />
        </mxCell>
        <mxCell id="zWPt4ddoxy-hTkP56XcS-198" value="" style="html=1;shape=plus;outlineConnect=0;" vertex="1" parent="zWPt4ddoxy-hTkP56XcS-197">
          <mxGeometry x="0.5" y="1" width="14" height="14" relative="1" as="geometry">
            <mxPoint x="-7" y="-14" as="offset" />
          </mxGeometry>
        </mxCell>
        <mxCell id="zWPt4ddoxy-hTkP56XcS-199" value="Sub-Process&lt;br&gt;账单打款" style="html=1;whiteSpace=wrap;rounded=1;dropTarget=0;align=left;" vertex="1" parent="zWPt4ddoxy-hTkP56XcS-153">
          <mxGeometry x="910" y="22.5" width="120" height="80" as="geometry" />
        </mxCell>
        <mxCell id="zWPt4ddoxy-hTkP56XcS-200" value="" style="html=1;shape=plus;outlineConnect=0;" vertex="1" parent="zWPt4ddoxy-hTkP56XcS-199">
          <mxGeometry x="0.5" y="1" width="14" height="14" relative="1" as="geometry">
            <mxPoint x="-7" y="-14" as="offset" />
          </mxGeometry>
        </mxCell>
        <mxCell id="zWPt4ddoxy-hTkP56XcS-163" value="评论审核流程" style="swimlane;startSize=20;horizontal=0;align=left;" vertex="1" parent="zWPt4ddoxy-hTkP56XcS-118">
          <mxGeometry x="20" y="786" width="1690" height="120" as="geometry" />
        </mxCell>
        <mxCell id="zWPt4ddoxy-hTkP56XcS-164" value="" style="group" vertex="1" connectable="0" parent="zWPt4ddoxy-hTkP56XcS-163">
          <mxGeometry x="180" y="24" width="250" height="80" as="geometry" />
        </mxCell>
        <mxCell id="zWPt4ddoxy-hTkP56XcS-165" value="Sub-Process:&lt;br&gt;评论审核过滤流程" style="html=1;whiteSpace=wrap;rounded=1;dropTarget=0;align=left;" vertex="1" parent="zWPt4ddoxy-hTkP56XcS-164">
          <mxGeometry x="130" width="120" height="80" as="geometry" />
        </mxCell>
        <mxCell id="zWPt4ddoxy-hTkP56XcS-166" value="" style="html=1;shape=plus;outlineConnect=0;" vertex="1" parent="zWPt4ddoxy-hTkP56XcS-165">
          <mxGeometry x="0.5" y="1" width="14" height="14" relative="1" as="geometry">
            <mxPoint x="-7" y="-14" as="offset" />
          </mxGeometry>
        </mxCell>
        <mxCell id="zWPt4ddoxy-hTkP56XcS-167" value="" style="shape=mxgraph.bpmn.shape;html=1;verticalLabelPosition=bottom;labelBackgroundColor=#ffffff;verticalAlign=top;align=center;perimeter=ellipsePerimeter;outlineConnect=0;outline=standard;symbol=message;" vertex="1" parent="zWPt4ddoxy-hTkP56XcS-164">
          <mxGeometry y="15" width="50" height="50" as="geometry" />
        </mxCell>
        <mxCell id="zWPt4ddoxy-hTkP56XcS-169" value="房源活动管理" style="swimlane;startSize=20;horizontal=0;align=left;" vertex="1" parent="zWPt4ddoxy-hTkP56XcS-118">
          <mxGeometry x="20" y="906" width="1690" height="124" as="geometry" />
        </mxCell>
        <mxCell id="zWPt4ddoxy-hTkP56XcS-194" style="edgeStyle=orthogonalEdgeStyle;rounded=0;orthogonalLoop=1;jettySize=auto;html=1;entryX=0;entryY=0.5;entryDx=0;entryDy=0;" edge="1" parent="zWPt4ddoxy-hTkP56XcS-169" source="zWPt4ddoxy-hTkP56XcS-143" target="zWPt4ddoxy-hTkP56XcS-189">
          <mxGeometry relative="1" as="geometry" />
        </mxCell>
        <mxCell id="zWPt4ddoxy-hTkP56XcS-143" value="Sub-Process&lt;br&gt;房源活动运营" style="html=1;whiteSpace=wrap;rounded=1;dropTarget=0;align=left;" vertex="1" parent="zWPt4ddoxy-hTkP56XcS-169">
          <mxGeometry x="450" y="11.5" width="130" height="68.5" as="geometry" />
        </mxCell>
        <mxCell id="zWPt4ddoxy-hTkP56XcS-144" value="" style="html=1;shape=plus;outlineConnect=0;" vertex="1" parent="zWPt4ddoxy-hTkP56XcS-143">
          <mxGeometry x="0.5" y="1" width="14" height="14" relative="1" as="geometry">
            <mxPoint x="-7" y="-14" as="offset" />
          </mxGeometry>
        </mxCell>
        <mxCell id="zWPt4ddoxy-hTkP56XcS-190" style="edgeStyle=orthogonalEdgeStyle;rounded=0;orthogonalLoop=1;jettySize=auto;html=1;entryX=0.009;entryY=0.607;entryDx=0;entryDy=0;entryPerimeter=0;" edge="1" parent="zWPt4ddoxy-hTkP56XcS-169" source="zWPt4ddoxy-hTkP56XcS-180" target="zWPt4ddoxy-hTkP56XcS-187">
          <mxGeometry relative="1" as="geometry" />
        </mxCell>
        <mxCell id="zWPt4ddoxy-hTkP56XcS-180" value="" style="shape=mxgraph.bpmn.shape;html=1;verticalLabelPosition=bottom;labelBackgroundColor=#ffffff;verticalAlign=top;align=center;perimeter=ellipsePerimeter;outlineConnect=0;outline=standard;symbol=general;" vertex="1" parent="zWPt4ddoxy-hTkP56XcS-169">
          <mxGeometry x="60" y="30" width="55" height="50" as="geometry" />
        </mxCell>
        <mxCell id="zWPt4ddoxy-hTkP56XcS-193" style="edgeStyle=orthogonalEdgeStyle;rounded=0;orthogonalLoop=1;jettySize=auto;html=1;exitX=1;exitY=0.5;exitDx=0;exitDy=0;entryX=0;entryY=0.5;entryDx=0;entryDy=0;" edge="1" parent="zWPt4ddoxy-hTkP56XcS-169" source="zWPt4ddoxy-hTkP56XcS-185" target="zWPt4ddoxy-hTkP56XcS-143">
          <mxGeometry relative="1" as="geometry" />
        </mxCell>
        <mxCell id="zWPt4ddoxy-hTkP56XcS-185" value="Sub-Process&lt;br&gt;邀请参加活动" style="html=1;whiteSpace=wrap;rounded=1;dropTarget=0;align=left;" vertex="1" parent="zWPt4ddoxy-hTkP56XcS-169">
          <mxGeometry x="310" y="11.5" width="110" height="70" as="geometry" />
        </mxCell>
        <mxCell id="zWPt4ddoxy-hTkP56XcS-186" value="" style="html=1;shape=plus;outlineConnect=0;" vertex="1" parent="zWPt4ddoxy-hTkP56XcS-185">
          <mxGeometry x="0.5" y="1" width="14" height="14" relative="1" as="geometry">
            <mxPoint x="-7" y="-14" as="offset" />
          </mxGeometry>
        </mxCell>
        <mxCell id="zWPt4ddoxy-hTkP56XcS-192" style="edgeStyle=orthogonalEdgeStyle;rounded=0;orthogonalLoop=1;jettySize=auto;html=1;exitX=1;exitY=0.5;exitDx=0;exitDy=0;entryX=0;entryY=0.5;entryDx=0;entryDy=0;" edge="1" parent="zWPt4ddoxy-hTkP56XcS-169" source="zWPt4ddoxy-hTkP56XcS-187" target="zWPt4ddoxy-hTkP56XcS-185">
          <mxGeometry relative="1" as="geometry" />
        </mxCell>
        <mxCell id="zWPt4ddoxy-hTkP56XcS-187" value="Sub-Process&lt;br&gt;创建活动" style="html=1;whiteSpace=wrap;rounded=1;dropTarget=0;align=left;" vertex="1" parent="zWPt4ddoxy-hTkP56XcS-169">
          <mxGeometry x="160" y="11.5" width="110" height="70" as="geometry" />
        </mxCell>
        <mxCell id="zWPt4ddoxy-hTkP56XcS-188" value="" style="html=1;shape=plus;outlineConnect=0;" vertex="1" parent="zWPt4ddoxy-hTkP56XcS-187">
          <mxGeometry x="0.5" y="1" width="14" height="14" relative="1" as="geometry">
            <mxPoint x="-7" y="-14" as="offset" />
          </mxGeometry>
        </mxCell>
        <mxCell id="zWPt4ddoxy-hTkP56XcS-189" value="" style="shape=mxgraph.bpmn.shape;html=1;verticalLabelPosition=bottom;labelBackgroundColor=#ffffff;verticalAlign=top;align=center;perimeter=ellipsePerimeter;outlineConnect=0;outline=end;symbol=general;" vertex="1" parent="zWPt4ddoxy-hTkP56XcS-169">
          <mxGeometry x="680" y="20.75" width="50" height="50" as="geometry" />
        </mxCell>
        <mxCell id="zWPt4ddoxy-hTkP56XcS-161" value="这里面当前的BPMN 绘制的都是关键业务活动，都没有具体的流程细节" style="text;html=1;strokeColor=none;fillColor=none;align=left;verticalAlign=middle;whiteSpace=wrap;rounded=0;" vertex="1" parent="1">
          <mxGeometry x="-2540" y="140" width="240" height="130" as="geometry" />
        </mxCell>
      </root>
    </mxGraphModel>
  </diagram>
</mxfile>
